G75*
%MOIN*%
%OFA0B0*%
%FSLAX25Y25*%
%IPPOS*%
%LPD*%
%AMOC8*
5,1,8,0,0,1.08239X$1,22.5*
%
%ADD10C,0.00000*%
%ADD11OC8,0.10400*%
%ADD12OC8,0.06337*%
%ADD13OC8,0.12668*%
%ADD14OC8,0.06400*%
%ADD15OC8,0.05550*%
%ADD16OC8,0.07000*%
D10*
X0012874Y0005200D02*
X0272047Y0005200D01*
X0272237Y0005202D01*
X0272427Y0005209D01*
X0272617Y0005221D01*
X0272807Y0005237D01*
X0272996Y0005257D01*
X0273185Y0005283D01*
X0273373Y0005312D01*
X0273560Y0005347D01*
X0273746Y0005386D01*
X0273931Y0005429D01*
X0274116Y0005477D01*
X0274299Y0005529D01*
X0274480Y0005585D01*
X0274660Y0005646D01*
X0274839Y0005712D01*
X0275016Y0005781D01*
X0275192Y0005855D01*
X0275365Y0005933D01*
X0275537Y0006016D01*
X0275706Y0006102D01*
X0275874Y0006192D01*
X0276039Y0006287D01*
X0276202Y0006385D01*
X0276362Y0006488D01*
X0276520Y0006594D01*
X0276675Y0006704D01*
X0276828Y0006817D01*
X0276978Y0006935D01*
X0277124Y0007056D01*
X0277268Y0007180D01*
X0277409Y0007308D01*
X0277547Y0007439D01*
X0277682Y0007574D01*
X0277813Y0007712D01*
X0277941Y0007853D01*
X0278065Y0007997D01*
X0278186Y0008143D01*
X0278304Y0008293D01*
X0278417Y0008446D01*
X0278527Y0008601D01*
X0278633Y0008759D01*
X0278736Y0008919D01*
X0278834Y0009082D01*
X0278929Y0009247D01*
X0279019Y0009415D01*
X0279105Y0009584D01*
X0279188Y0009756D01*
X0279266Y0009929D01*
X0279340Y0010105D01*
X0279409Y0010282D01*
X0279475Y0010461D01*
X0279536Y0010641D01*
X0279592Y0010822D01*
X0279644Y0011005D01*
X0279692Y0011190D01*
X0279735Y0011375D01*
X0279774Y0011561D01*
X0279809Y0011748D01*
X0279838Y0011936D01*
X0279864Y0012125D01*
X0279884Y0012314D01*
X0279900Y0012504D01*
X0279912Y0012694D01*
X0279919Y0012884D01*
X0279921Y0013074D01*
X0279921Y0206913D01*
X0279919Y0207103D01*
X0279912Y0207293D01*
X0279900Y0207483D01*
X0279884Y0207673D01*
X0279864Y0207862D01*
X0279838Y0208051D01*
X0279809Y0208239D01*
X0279774Y0208426D01*
X0279735Y0208612D01*
X0279692Y0208797D01*
X0279644Y0208982D01*
X0279592Y0209165D01*
X0279536Y0209346D01*
X0279475Y0209526D01*
X0279409Y0209705D01*
X0279340Y0209882D01*
X0279266Y0210058D01*
X0279188Y0210231D01*
X0279105Y0210403D01*
X0279019Y0210572D01*
X0278929Y0210740D01*
X0278834Y0210905D01*
X0278736Y0211068D01*
X0278633Y0211228D01*
X0278527Y0211386D01*
X0278417Y0211541D01*
X0278304Y0211694D01*
X0278186Y0211844D01*
X0278065Y0211990D01*
X0277941Y0212134D01*
X0277813Y0212275D01*
X0277682Y0212413D01*
X0277547Y0212548D01*
X0277409Y0212679D01*
X0277268Y0212807D01*
X0277124Y0212931D01*
X0276978Y0213052D01*
X0276828Y0213170D01*
X0276675Y0213283D01*
X0276520Y0213393D01*
X0276362Y0213499D01*
X0276202Y0213602D01*
X0276039Y0213700D01*
X0275874Y0213795D01*
X0275706Y0213885D01*
X0275537Y0213971D01*
X0275365Y0214054D01*
X0275192Y0214132D01*
X0275016Y0214206D01*
X0274839Y0214275D01*
X0274660Y0214341D01*
X0274480Y0214402D01*
X0274299Y0214458D01*
X0274116Y0214510D01*
X0273931Y0214558D01*
X0273746Y0214601D01*
X0273560Y0214640D01*
X0273373Y0214675D01*
X0273185Y0214704D01*
X0272996Y0214730D01*
X0272807Y0214750D01*
X0272617Y0214766D01*
X0272427Y0214778D01*
X0272237Y0214785D01*
X0272047Y0214787D01*
X0012874Y0214787D01*
X0012684Y0214785D01*
X0012494Y0214778D01*
X0012304Y0214766D01*
X0012114Y0214750D01*
X0011925Y0214730D01*
X0011736Y0214704D01*
X0011548Y0214675D01*
X0011361Y0214640D01*
X0011175Y0214601D01*
X0010990Y0214558D01*
X0010805Y0214510D01*
X0010622Y0214458D01*
X0010441Y0214402D01*
X0010261Y0214341D01*
X0010082Y0214275D01*
X0009905Y0214206D01*
X0009729Y0214132D01*
X0009556Y0214054D01*
X0009384Y0213971D01*
X0009215Y0213885D01*
X0009047Y0213795D01*
X0008882Y0213700D01*
X0008719Y0213602D01*
X0008559Y0213499D01*
X0008401Y0213393D01*
X0008246Y0213283D01*
X0008093Y0213170D01*
X0007943Y0213052D01*
X0007797Y0212931D01*
X0007653Y0212807D01*
X0007512Y0212679D01*
X0007374Y0212548D01*
X0007239Y0212413D01*
X0007108Y0212275D01*
X0006980Y0212134D01*
X0006856Y0211990D01*
X0006735Y0211844D01*
X0006617Y0211694D01*
X0006504Y0211541D01*
X0006394Y0211386D01*
X0006288Y0211228D01*
X0006185Y0211068D01*
X0006087Y0210905D01*
X0005992Y0210740D01*
X0005902Y0210572D01*
X0005816Y0210403D01*
X0005733Y0210231D01*
X0005655Y0210058D01*
X0005581Y0209882D01*
X0005512Y0209705D01*
X0005446Y0209526D01*
X0005385Y0209346D01*
X0005329Y0209165D01*
X0005277Y0208982D01*
X0005229Y0208797D01*
X0005186Y0208612D01*
X0005147Y0208426D01*
X0005112Y0208239D01*
X0005083Y0208051D01*
X0005057Y0207862D01*
X0005037Y0207673D01*
X0005021Y0207483D01*
X0005009Y0207293D01*
X0005002Y0207103D01*
X0005000Y0206913D01*
X0005000Y0013074D01*
X0005002Y0012884D01*
X0005009Y0012694D01*
X0005021Y0012504D01*
X0005037Y0012314D01*
X0005057Y0012125D01*
X0005083Y0011936D01*
X0005112Y0011748D01*
X0005147Y0011561D01*
X0005186Y0011375D01*
X0005229Y0011190D01*
X0005277Y0011005D01*
X0005329Y0010822D01*
X0005385Y0010641D01*
X0005446Y0010461D01*
X0005512Y0010282D01*
X0005581Y0010105D01*
X0005655Y0009929D01*
X0005733Y0009756D01*
X0005816Y0009584D01*
X0005902Y0009415D01*
X0005992Y0009247D01*
X0006087Y0009082D01*
X0006185Y0008919D01*
X0006288Y0008759D01*
X0006394Y0008601D01*
X0006504Y0008446D01*
X0006617Y0008293D01*
X0006735Y0008143D01*
X0006856Y0007997D01*
X0006980Y0007853D01*
X0007108Y0007712D01*
X0007239Y0007574D01*
X0007374Y0007439D01*
X0007512Y0007308D01*
X0007653Y0007180D01*
X0007797Y0007056D01*
X0007943Y0006935D01*
X0008093Y0006817D01*
X0008246Y0006704D01*
X0008401Y0006594D01*
X0008559Y0006488D01*
X0008719Y0006385D01*
X0008882Y0006287D01*
X0009047Y0006192D01*
X0009215Y0006102D01*
X0009384Y0006016D01*
X0009556Y0005933D01*
X0009729Y0005855D01*
X0009905Y0005781D01*
X0010082Y0005712D01*
X0010261Y0005646D01*
X0010441Y0005585D01*
X0010622Y0005529D01*
X0010805Y0005477D01*
X0010990Y0005429D01*
X0011175Y0005386D01*
X0011361Y0005347D01*
X0011548Y0005312D01*
X0011736Y0005283D01*
X0011925Y0005257D01*
X0012114Y0005237D01*
X0012304Y0005221D01*
X0012494Y0005209D01*
X0012684Y0005202D01*
X0012874Y0005200D01*
D11*
X0120200Y0170000D03*
X0149800Y0170000D03*
D12*
X0205157Y0142441D03*
X0215000Y0142441D03*
X0224843Y0142441D03*
X0224843Y0087441D03*
X0215000Y0087441D03*
X0205157Y0087441D03*
X0205157Y0032441D03*
X0215000Y0032441D03*
X0224843Y0032441D03*
D13*
X0233307Y0060000D03*
X0196693Y0060000D03*
X0196693Y0115000D03*
X0233307Y0115000D03*
X0233307Y0170000D03*
X0196693Y0170000D03*
D14*
X0165000Y0110000D03*
X0155000Y0110000D03*
X0145000Y0110000D03*
X0135000Y0110000D03*
X0125000Y0060000D03*
X0115000Y0060000D03*
X0105000Y0060000D03*
X0105000Y0050000D03*
X0115000Y0050000D03*
X0115000Y0040000D03*
X0105000Y0040000D03*
X0125000Y0040000D03*
X0125000Y0050000D03*
X0150000Y0050000D03*
X0160000Y0050000D03*
X0160000Y0040000D03*
X0150000Y0040000D03*
X0150000Y0030000D03*
X0160000Y0030000D03*
D15*
X0075000Y0085000D03*
X0075000Y0095000D03*
X0075000Y0105000D03*
X0075000Y0115000D03*
X0075000Y0125000D03*
X0075000Y0135000D03*
X0015000Y0135000D03*
X0015000Y0125000D03*
X0015000Y0115000D03*
X0015000Y0105000D03*
X0015000Y0095000D03*
X0015000Y0085000D03*
D16*
X0115000Y0015000D03*
X0125000Y0015000D03*
X0135000Y0015000D03*
X0145000Y0015000D03*
X0155000Y0015000D03*
X0165000Y0015000D03*
X0175000Y0015000D03*
X0185000Y0015000D03*
X0205000Y0015000D03*
X0215000Y0015000D03*
X0225000Y0015000D03*
X0235000Y0015000D03*
X0245000Y0015000D03*
X0255000Y0015000D03*
X0255000Y0205000D03*
X0245000Y0205000D03*
X0235000Y0205000D03*
X0225000Y0205000D03*
X0215000Y0205000D03*
X0205000Y0205000D03*
X0195000Y0205000D03*
X0185000Y0205000D03*
X0169000Y0205000D03*
X0159000Y0205000D03*
X0149000Y0205000D03*
X0139000Y0205000D03*
X0129000Y0205000D03*
X0119000Y0205000D03*
X0109000Y0205000D03*
X0099000Y0205000D03*
X0089000Y0205000D03*
X0079000Y0205000D03*
M02*
