G75*
%MOIN*%
%OFA0B0*%
%FSLAX25Y25*%
%IPPOS*%
%LPD*%
%AMOC8*
5,1,8,0,0,1.08239X$1,22.5*
%
%ADD10OC8,0.10000*%
%ADD11OC8,0.05937*%
%ADD12OC8,0.12268*%
%ADD13OC8,0.06000*%
%ADD14OC8,0.05150*%
%ADD15OC8,0.06600*%
%ADD16C,0.01200*%
%ADD17C,0.02578*%
%ADD18C,0.01000*%
D10*
X0120200Y0170000D03*
X0149800Y0170000D03*
D11*
X0205157Y0142441D03*
X0215000Y0142441D03*
X0224843Y0142441D03*
X0224843Y0087441D03*
X0215000Y0087441D03*
X0205157Y0087441D03*
X0205157Y0032441D03*
X0215000Y0032441D03*
X0224843Y0032441D03*
D12*
X0233307Y0060000D03*
X0196693Y0060000D03*
X0196693Y0115000D03*
X0233307Y0115000D03*
X0233307Y0170000D03*
X0196693Y0170000D03*
D13*
X0165000Y0110000D03*
X0155000Y0110000D03*
X0145000Y0110000D03*
X0135000Y0110000D03*
X0125000Y0060000D03*
X0115000Y0060000D03*
X0105000Y0060000D03*
X0105000Y0050000D03*
X0115000Y0050000D03*
X0115000Y0040000D03*
X0105000Y0040000D03*
X0125000Y0040000D03*
X0125000Y0050000D03*
X0150000Y0050000D03*
X0160000Y0050000D03*
X0160000Y0040000D03*
X0150000Y0040000D03*
X0150000Y0030000D03*
X0160000Y0030000D03*
D14*
X0075000Y0085000D03*
X0075000Y0095000D03*
X0075000Y0105000D03*
X0075000Y0115000D03*
X0075000Y0125000D03*
X0075000Y0135000D03*
X0015000Y0135000D03*
X0015000Y0125000D03*
X0015000Y0115000D03*
X0015000Y0105000D03*
X0015000Y0095000D03*
X0015000Y0085000D03*
D15*
X0115000Y0015000D03*
X0125000Y0015000D03*
X0135000Y0015000D03*
X0145000Y0015000D03*
X0155000Y0015000D03*
X0165000Y0015000D03*
X0175000Y0015000D03*
X0185000Y0015000D03*
X0205000Y0015000D03*
X0215000Y0015000D03*
X0225000Y0015000D03*
X0235000Y0015000D03*
X0245000Y0015000D03*
X0255000Y0015000D03*
X0255000Y0205000D03*
X0245000Y0205000D03*
X0235000Y0205000D03*
X0225000Y0205000D03*
X0215000Y0205000D03*
X0205000Y0205000D03*
X0195000Y0205000D03*
X0185000Y0205000D03*
X0169000Y0205000D03*
X0159000Y0205000D03*
X0149000Y0205000D03*
X0139000Y0205000D03*
X0129000Y0205000D03*
X0119000Y0205000D03*
X0109000Y0205000D03*
X0099000Y0205000D03*
X0089000Y0205000D03*
X0079000Y0205000D03*
D16*
X0007284Y0010226D02*
X0008438Y0008638D01*
X0010026Y0007484D01*
X0011893Y0006877D01*
X0012874Y0006800D01*
X0272047Y0006800D01*
X0273029Y0006877D01*
X0274896Y0007484D01*
X0276484Y0008638D01*
X0277637Y0010226D01*
X0278244Y0012093D01*
X0278321Y0013074D01*
X0278321Y0206913D01*
X0278244Y0207895D01*
X0277637Y0209762D01*
X0276484Y0211350D01*
X0274896Y0212504D01*
X0273029Y0213110D01*
X0272047Y0213187D01*
X0012874Y0213187D01*
X0011893Y0213110D01*
X0010026Y0212504D01*
X0008438Y0211350D01*
X0007284Y0209762D01*
X0006677Y0207895D01*
X0006600Y0206913D01*
X0006600Y0013074D01*
X0006677Y0012093D01*
X0007284Y0010226D01*
X0007597Y0009794D02*
X0277324Y0009794D01*
X0277887Y0010993D02*
X0257639Y0010993D01*
X0256947Y0010300D02*
X0259700Y0013053D01*
X0259700Y0016947D01*
X0256947Y0019700D01*
X0253128Y0019700D01*
X0246000Y0026828D01*
X0244828Y0028000D01*
X0207177Y0028000D01*
X0209726Y0030549D01*
X0209726Y0032057D01*
X0205542Y0032057D01*
X0205542Y0032825D01*
X0209726Y0032825D01*
X0209726Y0034333D01*
X0207050Y0037009D01*
X0205542Y0037009D01*
X0205542Y0032825D01*
X0204773Y0032825D01*
X0204773Y0032057D01*
X0200589Y0032057D01*
X0200589Y0030549D01*
X0203138Y0028000D01*
X0184828Y0028000D01*
X0164400Y0048428D01*
X0164400Y0051823D01*
X0161823Y0054400D01*
X0158177Y0054400D01*
X0155600Y0051823D01*
X0155600Y0048177D01*
X0158177Y0045600D01*
X0161572Y0045600D01*
X0182000Y0025172D01*
X0182272Y0024900D01*
X0177787Y0024900D01*
X0164400Y0038287D01*
X0164400Y0041823D01*
X0161823Y0044400D01*
X0158177Y0044400D01*
X0155600Y0041823D01*
X0155600Y0038177D01*
X0158177Y0035600D01*
X0161713Y0035600D01*
X0175100Y0022213D01*
X0175100Y0022072D01*
X0175672Y0021500D01*
X0171187Y0021500D01*
X0164400Y0028287D01*
X0164400Y0031823D01*
X0161823Y0034400D01*
X0158177Y0034400D01*
X0155600Y0031823D01*
X0155600Y0028177D01*
X0158177Y0025600D01*
X0161713Y0025600D01*
X0168500Y0018813D01*
X0169613Y0017700D01*
X0170770Y0017700D01*
X0170100Y0017030D01*
X0170100Y0015384D01*
X0174616Y0015384D01*
X0174616Y0014616D01*
X0175384Y0014616D01*
X0175384Y0010100D01*
X0177030Y0010100D01*
X0179900Y0012970D01*
X0179900Y0014616D01*
X0175384Y0014616D01*
X0175384Y0015384D01*
X0179900Y0015384D01*
X0179900Y0017030D01*
X0179230Y0017700D01*
X0181053Y0017700D01*
X0180300Y0016947D01*
X0180300Y0013053D01*
X0183053Y0010300D01*
X0186947Y0010300D01*
X0189700Y0013053D01*
X0189700Y0016947D01*
X0188947Y0017700D01*
X0201053Y0017700D01*
X0200300Y0016947D01*
X0200300Y0013053D01*
X0203053Y0010300D01*
X0206947Y0010300D01*
X0209700Y0013053D01*
X0209700Y0016947D01*
X0208947Y0017700D01*
X0211053Y0017700D01*
X0210300Y0016947D01*
X0210300Y0013053D01*
X0213053Y0010300D01*
X0216947Y0010300D01*
X0219700Y0013053D01*
X0219700Y0016947D01*
X0218947Y0017700D01*
X0221053Y0017700D01*
X0220300Y0016947D01*
X0220300Y0013053D01*
X0223053Y0010300D01*
X0226947Y0010300D01*
X0229700Y0013053D01*
X0229700Y0016947D01*
X0229047Y0017600D01*
X0229572Y0017600D01*
X0230300Y0016872D01*
X0230300Y0013053D01*
X0233053Y0010300D01*
X0236947Y0010300D01*
X0239700Y0013053D01*
X0239700Y0016947D01*
X0236947Y0019700D01*
X0233128Y0019700D01*
X0231928Y0020900D01*
X0236272Y0020900D01*
X0240300Y0016872D01*
X0240300Y0013053D01*
X0243053Y0010300D01*
X0246947Y0010300D01*
X0249700Y0013053D01*
X0249700Y0016947D01*
X0246947Y0019700D01*
X0243128Y0019700D01*
X0239100Y0023728D01*
X0238828Y0024000D01*
X0243172Y0024000D01*
X0250300Y0016872D01*
X0250300Y0013053D01*
X0253053Y0010300D01*
X0256947Y0010300D01*
X0258838Y0012191D02*
X0278252Y0012191D01*
X0278321Y0013390D02*
X0259700Y0013390D01*
X0259700Y0014588D02*
X0278321Y0014588D01*
X0278321Y0015787D02*
X0259700Y0015787D01*
X0259662Y0016985D02*
X0278321Y0016985D01*
X0278321Y0018184D02*
X0258463Y0018184D01*
X0257265Y0019382D02*
X0278321Y0019382D01*
X0278321Y0020581D02*
X0252248Y0020581D01*
X0251049Y0021779D02*
X0278321Y0021779D01*
X0278321Y0022978D02*
X0249851Y0022978D01*
X0248652Y0024176D02*
X0278321Y0024176D01*
X0278321Y0025375D02*
X0247454Y0025375D01*
X0246255Y0026573D02*
X0278321Y0026573D01*
X0278321Y0027772D02*
X0245057Y0027772D01*
X0244000Y0026000D02*
X0184000Y0026000D01*
X0160000Y0050000D01*
X0156830Y0046948D02*
X0153453Y0046948D01*
X0154600Y0048095D02*
X0154600Y0049600D01*
X0150400Y0049600D01*
X0150400Y0050400D01*
X0149600Y0050400D01*
X0149600Y0054600D01*
X0148095Y0054600D01*
X0145400Y0051905D01*
X0145400Y0050400D01*
X0149600Y0050400D01*
X0149600Y0049600D01*
X0145400Y0049600D01*
X0145400Y0048095D01*
X0148095Y0045400D01*
X0149600Y0045400D01*
X0149600Y0049600D01*
X0150400Y0049600D01*
X0150400Y0045400D01*
X0151905Y0045400D01*
X0154600Y0048095D01*
X0154600Y0048146D02*
X0155631Y0048146D01*
X0155600Y0049345D02*
X0154600Y0049345D01*
X0154600Y0050400D02*
X0154600Y0051905D01*
X0151905Y0054600D01*
X0150400Y0054600D01*
X0150400Y0050400D01*
X0154600Y0050400D01*
X0154600Y0050543D02*
X0155600Y0050543D01*
X0155600Y0051742D02*
X0154600Y0051742D01*
X0153565Y0052940D02*
X0156718Y0052940D01*
X0157916Y0054139D02*
X0152366Y0054139D01*
X0150400Y0054139D02*
X0149600Y0054139D01*
X0149600Y0052940D02*
X0150400Y0052940D01*
X0150400Y0051742D02*
X0149600Y0051742D01*
X0149600Y0050543D02*
X0150400Y0050543D01*
X0150400Y0049345D02*
X0149600Y0049345D01*
X0149600Y0048146D02*
X0150400Y0048146D01*
X0150400Y0046948D02*
X0149600Y0046948D01*
X0149600Y0045749D02*
X0150400Y0045749D01*
X0150400Y0044600D02*
X0150400Y0040400D01*
X0149600Y0040400D01*
X0149600Y0044600D01*
X0148095Y0044600D01*
X0145400Y0041905D01*
X0145400Y0040400D01*
X0149600Y0040400D01*
X0149600Y0039600D01*
X0145400Y0039600D01*
X0145400Y0038095D01*
X0148095Y0035400D01*
X0149600Y0035400D01*
X0149600Y0039600D01*
X0150400Y0039600D01*
X0150400Y0040400D01*
X0154600Y0040400D01*
X0154600Y0041905D01*
X0151905Y0044600D01*
X0150400Y0044600D01*
X0150400Y0044551D02*
X0149600Y0044551D01*
X0149600Y0043352D02*
X0150400Y0043352D01*
X0150400Y0042154D02*
X0149600Y0042154D01*
X0149600Y0040955D02*
X0150400Y0040955D01*
X0150400Y0039757D02*
X0155600Y0039757D01*
X0154600Y0039600D02*
X0150400Y0039600D01*
X0150400Y0035400D01*
X0151905Y0035400D01*
X0154600Y0038095D01*
X0154600Y0039600D01*
X0154600Y0038558D02*
X0155600Y0038558D01*
X0156418Y0037360D02*
X0153865Y0037360D01*
X0152667Y0036161D02*
X0157616Y0036161D01*
X0157542Y0033764D02*
X0152741Y0033764D01*
X0151905Y0034600D02*
X0154600Y0031905D01*
X0154600Y0030400D01*
X0150400Y0030400D01*
X0149600Y0030400D01*
X0149600Y0034600D01*
X0148095Y0034600D01*
X0145400Y0031905D01*
X0145400Y0030400D01*
X0149600Y0030400D01*
X0149600Y0029600D01*
X0145400Y0029600D01*
X0145400Y0028095D01*
X0148095Y0025400D01*
X0149600Y0025400D01*
X0149600Y0029600D01*
X0150400Y0029600D01*
X0150400Y0030400D01*
X0150400Y0034600D01*
X0151905Y0034600D01*
X0150400Y0033764D02*
X0149600Y0033764D01*
X0149600Y0032566D02*
X0150400Y0032566D01*
X0150400Y0031367D02*
X0149600Y0031367D01*
X0149600Y0030169D02*
X0006600Y0030169D01*
X0006600Y0031367D02*
X0145400Y0031367D01*
X0146060Y0032566D02*
X0006600Y0032566D01*
X0006600Y0033764D02*
X0147259Y0033764D01*
X0147333Y0036161D02*
X0127384Y0036161D01*
X0126823Y0035600D02*
X0129400Y0038177D01*
X0129400Y0041823D01*
X0126823Y0044400D01*
X0123177Y0044400D01*
X0120600Y0041823D01*
X0120600Y0038177D01*
X0123177Y0035600D01*
X0126823Y0035600D01*
X0128582Y0037360D02*
X0146135Y0037360D01*
X0145400Y0038558D02*
X0129400Y0038558D01*
X0129400Y0039757D02*
X0149600Y0039757D01*
X0149600Y0038558D02*
X0150400Y0038558D01*
X0150400Y0037360D02*
X0149600Y0037360D01*
X0149600Y0036161D02*
X0150400Y0036161D01*
X0153940Y0032566D02*
X0156343Y0032566D01*
X0155600Y0031367D02*
X0154600Y0031367D01*
X0155600Y0030169D02*
X0150400Y0030169D01*
X0150400Y0029600D02*
X0154600Y0029600D01*
X0154600Y0028095D01*
X0151905Y0025400D01*
X0150400Y0025400D01*
X0150400Y0029600D01*
X0150400Y0028970D02*
X0149600Y0028970D01*
X0149600Y0027772D02*
X0150400Y0027772D01*
X0150400Y0026573D02*
X0149600Y0026573D01*
X0146921Y0026573D02*
X0006600Y0026573D01*
X0006600Y0025375D02*
X0161938Y0025375D01*
X0163137Y0024176D02*
X0006600Y0024176D01*
X0006600Y0022978D02*
X0164335Y0022978D01*
X0165534Y0021779D02*
X0006600Y0021779D01*
X0006600Y0020581D02*
X0166732Y0020581D01*
X0167030Y0019900D02*
X0165384Y0019900D01*
X0165384Y0015384D01*
X0169900Y0015384D01*
X0169900Y0017030D01*
X0167030Y0019900D01*
X0167547Y0019382D02*
X0167931Y0019382D01*
X0168746Y0018184D02*
X0169129Y0018184D01*
X0169900Y0016985D02*
X0170100Y0016985D01*
X0170100Y0015787D02*
X0169900Y0015787D01*
X0169900Y0014616D02*
X0165384Y0014616D01*
X0165384Y0010100D01*
X0167030Y0010100D01*
X0169900Y0012970D01*
X0169900Y0014616D01*
X0169900Y0014588D02*
X0170100Y0014588D01*
X0170100Y0014616D02*
X0170100Y0012970D01*
X0172970Y0010100D01*
X0174616Y0010100D01*
X0174616Y0014616D01*
X0170100Y0014616D01*
X0170100Y0013390D02*
X0169900Y0013390D01*
X0169121Y0012191D02*
X0170879Y0012191D01*
X0172078Y0010993D02*
X0167922Y0010993D01*
X0165384Y0010993D02*
X0164616Y0010993D01*
X0164616Y0010100D02*
X0164616Y0014616D01*
X0165384Y0014616D01*
X0165384Y0015384D01*
X0164616Y0015384D01*
X0164616Y0014616D01*
X0160100Y0014616D01*
X0160100Y0012970D01*
X0162970Y0010100D01*
X0164616Y0010100D01*
X0164616Y0012191D02*
X0165384Y0012191D01*
X0165384Y0013390D02*
X0164616Y0013390D01*
X0164616Y0014588D02*
X0165384Y0014588D01*
X0164616Y0015384D02*
X0160100Y0015384D01*
X0160100Y0017030D01*
X0162970Y0019900D01*
X0164616Y0019900D01*
X0164616Y0015384D01*
X0164616Y0015787D02*
X0165384Y0015787D01*
X0165384Y0016985D02*
X0164616Y0016985D01*
X0164616Y0018184D02*
X0165384Y0018184D01*
X0165384Y0019382D02*
X0164616Y0019382D01*
X0162452Y0019382D02*
X0157265Y0019382D01*
X0156947Y0019700D02*
X0153053Y0019700D01*
X0150300Y0016947D01*
X0150300Y0013053D01*
X0153053Y0010300D01*
X0156947Y0010300D01*
X0159700Y0013053D01*
X0159700Y0016947D01*
X0156947Y0019700D01*
X0158463Y0018184D02*
X0161254Y0018184D01*
X0160100Y0016985D02*
X0159662Y0016985D01*
X0159700Y0015787D02*
X0160100Y0015787D01*
X0160100Y0014588D02*
X0159700Y0014588D01*
X0159700Y0013390D02*
X0160100Y0013390D01*
X0160879Y0012191D02*
X0158838Y0012191D01*
X0157639Y0010993D02*
X0162078Y0010993D01*
X0152361Y0010993D02*
X0147639Y0010993D01*
X0146947Y0010300D02*
X0149700Y0013053D01*
X0149700Y0016947D01*
X0146947Y0019700D01*
X0143053Y0019700D01*
X0140300Y0016947D01*
X0140300Y0013053D01*
X0143053Y0010300D01*
X0146947Y0010300D01*
X0148838Y0012191D02*
X0151162Y0012191D01*
X0150300Y0013390D02*
X0149700Y0013390D01*
X0149700Y0014588D02*
X0150300Y0014588D01*
X0150300Y0015787D02*
X0149700Y0015787D01*
X0149662Y0016985D02*
X0150338Y0016985D01*
X0151537Y0018184D02*
X0148463Y0018184D01*
X0147265Y0019382D02*
X0152735Y0019382D01*
X0153079Y0026573D02*
X0157204Y0026573D01*
X0156006Y0027772D02*
X0154277Y0027772D01*
X0154600Y0028970D02*
X0155600Y0028970D01*
X0162458Y0033764D02*
X0163549Y0033764D01*
X0163657Y0032566D02*
X0164747Y0032566D01*
X0164400Y0031367D02*
X0165946Y0031367D01*
X0167144Y0030169D02*
X0164400Y0030169D01*
X0164400Y0028970D02*
X0168343Y0028970D01*
X0169541Y0027772D02*
X0164915Y0027772D01*
X0166114Y0026573D02*
X0170740Y0026573D01*
X0171938Y0025375D02*
X0167312Y0025375D01*
X0168511Y0024176D02*
X0173137Y0024176D01*
X0174335Y0022978D02*
X0169709Y0022978D01*
X0170908Y0021779D02*
X0175392Y0021779D01*
X0177100Y0022900D02*
X0237100Y0022900D01*
X0245000Y0015000D01*
X0240300Y0014588D02*
X0239700Y0014588D01*
X0239700Y0013390D02*
X0240300Y0013390D01*
X0241162Y0012191D02*
X0238838Y0012191D01*
X0237639Y0010993D02*
X0242361Y0010993D01*
X0247639Y0010993D02*
X0252361Y0010993D01*
X0251162Y0012191D02*
X0248838Y0012191D01*
X0249700Y0013390D02*
X0250300Y0013390D01*
X0250300Y0014588D02*
X0249700Y0014588D01*
X0249700Y0015787D02*
X0250300Y0015787D01*
X0250186Y0016985D02*
X0249662Y0016985D01*
X0248988Y0018184D02*
X0248463Y0018184D01*
X0247789Y0019382D02*
X0247265Y0019382D01*
X0246591Y0020581D02*
X0242248Y0020581D01*
X0241049Y0021779D02*
X0245392Y0021779D01*
X0244194Y0022978D02*
X0239851Y0022978D01*
X0236591Y0020581D02*
X0232248Y0020581D01*
X0230400Y0019600D02*
X0235000Y0015000D01*
X0239700Y0015787D02*
X0240300Y0015787D01*
X0240186Y0016985D02*
X0239662Y0016985D01*
X0238988Y0018184D02*
X0238463Y0018184D01*
X0237789Y0019382D02*
X0237265Y0019382D01*
X0230400Y0019600D02*
X0226905Y0019600D01*
X0229662Y0016985D02*
X0230186Y0016985D01*
X0230300Y0015787D02*
X0229700Y0015787D01*
X0229700Y0014588D02*
X0230300Y0014588D01*
X0230300Y0013390D02*
X0229700Y0013390D01*
X0228838Y0012191D02*
X0231162Y0012191D01*
X0232361Y0010993D02*
X0227639Y0010993D01*
X0222361Y0010993D02*
X0217639Y0010993D01*
X0218838Y0012191D02*
X0221162Y0012191D01*
X0220300Y0013390D02*
X0219700Y0013390D01*
X0219700Y0014588D02*
X0220300Y0014588D01*
X0220300Y0015787D02*
X0219700Y0015787D01*
X0219662Y0016985D02*
X0220338Y0016985D01*
X0212361Y0010993D02*
X0207639Y0010993D01*
X0208838Y0012191D02*
X0211162Y0012191D01*
X0210300Y0013390D02*
X0209700Y0013390D01*
X0209700Y0014588D02*
X0210300Y0014588D01*
X0210300Y0015787D02*
X0209700Y0015787D01*
X0209662Y0016985D02*
X0210338Y0016985D01*
X0202361Y0010993D02*
X0187639Y0010993D01*
X0188838Y0012191D02*
X0201162Y0012191D01*
X0200300Y0013390D02*
X0189700Y0013390D01*
X0189700Y0014588D02*
X0200300Y0014588D01*
X0200300Y0015787D02*
X0189700Y0015787D01*
X0189662Y0016985D02*
X0200338Y0016985D01*
X0213191Y0028072D02*
X0216809Y0028072D01*
X0219368Y0030631D01*
X0219368Y0034250D01*
X0216809Y0036809D01*
X0213191Y0036809D01*
X0210631Y0034250D01*
X0210631Y0030631D01*
X0213191Y0028072D01*
X0212293Y0028970D02*
X0208148Y0028970D01*
X0209346Y0030169D02*
X0211094Y0030169D01*
X0210631Y0031367D02*
X0209726Y0031367D01*
X0210631Y0032566D02*
X0205542Y0032566D01*
X0204773Y0032566D02*
X0180263Y0032566D01*
X0181461Y0031367D02*
X0200589Y0031367D01*
X0200969Y0030169D02*
X0182660Y0030169D01*
X0183858Y0028970D02*
X0202167Y0028970D01*
X0200589Y0032825D02*
X0204773Y0032825D01*
X0204773Y0037009D01*
X0203265Y0037009D01*
X0200589Y0034333D01*
X0200589Y0032825D01*
X0200589Y0033764D02*
X0179064Y0033764D01*
X0177866Y0034963D02*
X0201218Y0034963D01*
X0202417Y0036161D02*
X0176667Y0036161D01*
X0175469Y0037360D02*
X0222843Y0037360D01*
X0222843Y0036619D02*
X0220474Y0034250D01*
X0220474Y0030631D01*
X0223033Y0028072D01*
X0226652Y0028072D01*
X0229211Y0030631D01*
X0229211Y0034250D01*
X0226843Y0036619D01*
X0226843Y0055810D01*
X0230186Y0052466D01*
X0236428Y0052466D01*
X0240841Y0056879D01*
X0240841Y0063121D01*
X0236428Y0067534D01*
X0230186Y0067534D01*
X0226843Y0064190D01*
X0226843Y0083263D01*
X0229211Y0085631D01*
X0229211Y0089250D01*
X0226843Y0091619D01*
X0226843Y0110810D01*
X0230186Y0107466D01*
X0236428Y0107466D01*
X0240841Y0111879D01*
X0240841Y0118121D01*
X0236428Y0122534D01*
X0230186Y0122534D01*
X0226843Y0119190D01*
X0226843Y0138263D01*
X0229211Y0140631D01*
X0229211Y0144250D01*
X0226652Y0146809D01*
X0223033Y0146809D01*
X0220474Y0144250D01*
X0220474Y0140631D01*
X0222843Y0138263D01*
X0222843Y0091619D01*
X0220474Y0089250D01*
X0220474Y0085631D01*
X0222843Y0083263D01*
X0222843Y0036619D01*
X0222385Y0036161D02*
X0217458Y0036161D01*
X0218656Y0034963D02*
X0221186Y0034963D01*
X0220474Y0033764D02*
X0219368Y0033764D01*
X0219368Y0032566D02*
X0220474Y0032566D01*
X0220474Y0031367D02*
X0219368Y0031367D01*
X0218906Y0030169D02*
X0220937Y0030169D01*
X0222135Y0028970D02*
X0217707Y0028970D01*
X0224843Y0032441D02*
X0224843Y0142441D01*
X0224843Y0087441D01*
X0220474Y0087697D02*
X0219368Y0087697D01*
X0219368Y0086499D02*
X0220474Y0086499D01*
X0220805Y0085300D02*
X0219037Y0085300D01*
X0219368Y0085631D02*
X0216809Y0083072D01*
X0213191Y0083072D01*
X0210631Y0085631D01*
X0210631Y0089250D01*
X0213191Y0091809D01*
X0216809Y0091809D01*
X0219368Y0089250D01*
X0219368Y0085631D01*
X0217839Y0084102D02*
X0222004Y0084102D01*
X0222843Y0082903D02*
X0207081Y0082903D01*
X0207050Y0082872D02*
X0209726Y0085549D01*
X0209726Y0087057D01*
X0205542Y0087057D01*
X0205542Y0087825D01*
X0209726Y0087825D01*
X0209726Y0089333D01*
X0207050Y0092009D01*
X0205542Y0092009D01*
X0205542Y0087825D01*
X0204773Y0087825D01*
X0204773Y0087057D01*
X0200589Y0087057D01*
X0200589Y0085549D01*
X0203265Y0082872D01*
X0204773Y0082872D01*
X0204773Y0087057D01*
X0205542Y0087057D01*
X0205542Y0082872D01*
X0207050Y0082872D01*
X0205542Y0082903D02*
X0204773Y0082903D01*
X0204773Y0084102D02*
X0205542Y0084102D01*
X0205542Y0085300D02*
X0204773Y0085300D01*
X0204773Y0086499D02*
X0205542Y0086499D01*
X0205542Y0087697D02*
X0210631Y0087697D01*
X0210631Y0086499D02*
X0209726Y0086499D01*
X0209478Y0085300D02*
X0210963Y0085300D01*
X0212161Y0084102D02*
X0208279Y0084102D01*
X0204773Y0087697D02*
X0117000Y0087697D01*
X0117000Y0086499D02*
X0200589Y0086499D01*
X0200837Y0085300D02*
X0117000Y0085300D01*
X0117000Y0084102D02*
X0202036Y0084102D01*
X0203234Y0082903D02*
X0117000Y0082903D01*
X0117000Y0081705D02*
X0222843Y0081705D01*
X0222843Y0080506D02*
X0117000Y0080506D01*
X0117000Y0079308D02*
X0222843Y0079308D01*
X0222843Y0078109D02*
X0117000Y0078109D01*
X0117000Y0076911D02*
X0222843Y0076911D01*
X0222843Y0075712D02*
X0117000Y0075712D01*
X0117000Y0074514D02*
X0222843Y0074514D01*
X0222843Y0073315D02*
X0117000Y0073315D01*
X0117000Y0072117D02*
X0222843Y0072117D01*
X0222843Y0070918D02*
X0117000Y0070918D01*
X0117000Y0069720D02*
X0222843Y0069720D01*
X0222843Y0068521D02*
X0117000Y0068521D01*
X0117000Y0067323D02*
X0193361Y0067323D01*
X0193572Y0067534D02*
X0189159Y0063121D01*
X0189159Y0056879D01*
X0193572Y0052466D01*
X0199814Y0052466D01*
X0204227Y0056879D01*
X0204227Y0063121D01*
X0199814Y0067534D01*
X0193572Y0067534D01*
X0192163Y0066124D02*
X0117000Y0066124D01*
X0117000Y0064926D02*
X0190964Y0064926D01*
X0189765Y0063727D02*
X0127495Y0063727D01*
X0126823Y0064400D02*
X0123177Y0064400D01*
X0120600Y0061823D01*
X0120600Y0058177D01*
X0123177Y0055600D01*
X0126823Y0055600D01*
X0129400Y0058177D01*
X0129400Y0061823D01*
X0126823Y0064400D01*
X0128694Y0062529D02*
X0189159Y0062529D01*
X0189159Y0061330D02*
X0129400Y0061330D01*
X0129400Y0060132D02*
X0189159Y0060132D01*
X0189159Y0058933D02*
X0129400Y0058933D01*
X0128957Y0057734D02*
X0189159Y0057734D01*
X0189502Y0056536D02*
X0127759Y0056536D01*
X0126823Y0054400D02*
X0123177Y0054400D01*
X0120600Y0051823D01*
X0120600Y0048177D01*
X0123177Y0045600D01*
X0126823Y0045600D01*
X0129400Y0048177D01*
X0129400Y0051823D01*
X0126823Y0054400D01*
X0127084Y0054139D02*
X0147634Y0054139D01*
X0146435Y0052940D02*
X0128282Y0052940D01*
X0129400Y0051742D02*
X0145400Y0051742D01*
X0145400Y0050543D02*
X0129400Y0050543D01*
X0129400Y0049345D02*
X0145400Y0049345D01*
X0145400Y0048146D02*
X0129369Y0048146D01*
X0128170Y0046948D02*
X0146547Y0046948D01*
X0147745Y0045749D02*
X0126972Y0045749D01*
X0127870Y0043352D02*
X0146847Y0043352D01*
X0145648Y0042154D02*
X0129069Y0042154D01*
X0129400Y0040955D02*
X0145400Y0040955D01*
X0148045Y0044551D02*
X0006600Y0044551D01*
X0006600Y0045749D02*
X0103028Y0045749D01*
X0103177Y0045600D02*
X0106823Y0045600D01*
X0109400Y0048177D01*
X0109400Y0051823D01*
X0106823Y0054400D01*
X0103177Y0054400D01*
X0100903Y0052125D01*
X0062000Y0091028D01*
X0062000Y0098197D01*
X0062280Y0098477D01*
X0062689Y0099465D01*
X0062689Y0100535D01*
X0062280Y0101523D01*
X0061523Y0102280D01*
X0060535Y0102689D01*
X0059465Y0102689D01*
X0058477Y0102280D01*
X0057720Y0101523D01*
X0057311Y0100535D01*
X0057311Y0099465D01*
X0057720Y0098477D01*
X0058000Y0098197D01*
X0058000Y0089372D01*
X0099372Y0048000D01*
X0100777Y0048000D01*
X0103177Y0045600D01*
X0103177Y0044400D02*
X0100600Y0041823D01*
X0100600Y0038177D01*
X0103177Y0035600D01*
X0106823Y0035600D01*
X0109400Y0038177D01*
X0109400Y0041823D01*
X0106823Y0044400D01*
X0103177Y0044400D01*
X0102130Y0043352D02*
X0006600Y0043352D01*
X0006600Y0042154D02*
X0100931Y0042154D01*
X0100600Y0040955D02*
X0006600Y0040955D01*
X0006600Y0039757D02*
X0100600Y0039757D01*
X0100600Y0038558D02*
X0006600Y0038558D01*
X0006600Y0037360D02*
X0101418Y0037360D01*
X0102616Y0036161D02*
X0006600Y0036161D01*
X0006600Y0034963D02*
X0162350Y0034963D01*
X0165327Y0037360D02*
X0169812Y0037360D01*
X0171010Y0036161D02*
X0166526Y0036161D01*
X0167724Y0034963D02*
X0172209Y0034963D01*
X0173407Y0033764D02*
X0168923Y0033764D01*
X0170121Y0032566D02*
X0174606Y0032566D01*
X0175804Y0031367D02*
X0171320Y0031367D01*
X0172518Y0030169D02*
X0177003Y0030169D01*
X0178201Y0028970D02*
X0173717Y0028970D01*
X0174915Y0027772D02*
X0179400Y0027772D01*
X0180598Y0026573D02*
X0176114Y0026573D01*
X0177312Y0025375D02*
X0181797Y0025375D01*
X0180338Y0016985D02*
X0179900Y0016985D01*
X0179900Y0015787D02*
X0180300Y0015787D01*
X0180300Y0014588D02*
X0179900Y0014588D01*
X0179900Y0013390D02*
X0180300Y0013390D01*
X0181162Y0012191D02*
X0179121Y0012191D01*
X0177922Y0010993D02*
X0182361Y0010993D01*
X0175384Y0010993D02*
X0174616Y0010993D01*
X0174616Y0012191D02*
X0175384Y0012191D01*
X0175384Y0013390D02*
X0174616Y0013390D01*
X0174616Y0014588D02*
X0175384Y0014588D01*
X0204773Y0033764D02*
X0205542Y0033764D01*
X0205542Y0034963D02*
X0204773Y0034963D01*
X0204773Y0036161D02*
X0205542Y0036161D01*
X0207898Y0036161D02*
X0212542Y0036161D01*
X0211344Y0034963D02*
X0209096Y0034963D01*
X0209726Y0033764D02*
X0210631Y0033764D01*
X0222843Y0038558D02*
X0174270Y0038558D01*
X0173072Y0039757D02*
X0222843Y0039757D01*
X0222843Y0040955D02*
X0171873Y0040955D01*
X0170675Y0042154D02*
X0222843Y0042154D01*
X0222843Y0043352D02*
X0169476Y0043352D01*
X0168278Y0044551D02*
X0222843Y0044551D01*
X0222843Y0045749D02*
X0167079Y0045749D01*
X0165881Y0046948D02*
X0222843Y0046948D01*
X0222843Y0048146D02*
X0164682Y0048146D01*
X0164400Y0049345D02*
X0222843Y0049345D01*
X0222843Y0050543D02*
X0164400Y0050543D01*
X0164400Y0051742D02*
X0222843Y0051742D01*
X0222843Y0052940D02*
X0200288Y0052940D01*
X0201486Y0054139D02*
X0222843Y0054139D01*
X0222843Y0055337D02*
X0202685Y0055337D01*
X0203883Y0056536D02*
X0222843Y0056536D01*
X0222843Y0057734D02*
X0204227Y0057734D01*
X0204227Y0058933D02*
X0222843Y0058933D01*
X0222843Y0060132D02*
X0204227Y0060132D01*
X0204227Y0061330D02*
X0222843Y0061330D01*
X0222843Y0062529D02*
X0204227Y0062529D01*
X0203620Y0063727D02*
X0222843Y0063727D01*
X0222843Y0064926D02*
X0202422Y0064926D01*
X0201223Y0066124D02*
X0222843Y0066124D01*
X0222843Y0067323D02*
X0200025Y0067323D01*
X0190701Y0055337D02*
X0112491Y0055337D01*
X0112000Y0055828D02*
X0112000Y0056777D01*
X0113177Y0055600D01*
X0116823Y0055600D01*
X0119400Y0058177D01*
X0119400Y0061823D01*
X0117000Y0064223D01*
X0117000Y0146343D01*
X0143200Y0172543D01*
X0143200Y0170400D01*
X0149400Y0170400D01*
X0149400Y0176600D01*
X0147257Y0176600D01*
X0159828Y0189172D01*
X0161000Y0190343D01*
X0161000Y0200353D01*
X0163700Y0203053D01*
X0163700Y0206947D01*
X0160947Y0209700D01*
X0157053Y0209700D01*
X0154300Y0206947D01*
X0154300Y0203053D01*
X0157000Y0200353D01*
X0157000Y0192000D01*
X0151000Y0186000D01*
X0151000Y0200353D01*
X0153700Y0203053D01*
X0153700Y0206947D01*
X0150947Y0209700D01*
X0147053Y0209700D01*
X0144300Y0206947D01*
X0144300Y0203053D01*
X0147000Y0200353D01*
X0147000Y0184828D01*
X0141000Y0178828D01*
X0141000Y0200353D01*
X0143700Y0203053D01*
X0143700Y0206947D01*
X0140947Y0209700D01*
X0137053Y0209700D01*
X0134300Y0206947D01*
X0134300Y0203053D01*
X0137000Y0200353D01*
X0137000Y0177657D01*
X0104172Y0144828D01*
X0104172Y0144828D01*
X0103000Y0143657D01*
X0103000Y0081803D01*
X0102720Y0081523D01*
X0102311Y0080535D01*
X0102311Y0079465D01*
X0102720Y0078477D01*
X0103477Y0077720D01*
X0104465Y0077311D01*
X0105535Y0077311D01*
X0106523Y0077720D01*
X0107280Y0078477D01*
X0107689Y0079465D01*
X0107689Y0080535D01*
X0107280Y0081523D01*
X0107000Y0081803D01*
X0107000Y0142000D01*
X0108000Y0143000D01*
X0108000Y0063223D01*
X0106823Y0064400D01*
X0103177Y0064400D01*
X0100600Y0061823D01*
X0100600Y0058177D01*
X0103177Y0055600D01*
X0106823Y0055600D01*
X0108000Y0056777D01*
X0108000Y0054172D01*
X0109172Y0053000D01*
X0110600Y0051572D01*
X0110600Y0048177D01*
X0113177Y0045600D01*
X0116823Y0045600D01*
X0119400Y0048177D01*
X0119400Y0051823D01*
X0116823Y0054400D01*
X0113428Y0054400D01*
X0112000Y0055828D01*
X0112000Y0056536D02*
X0112241Y0056536D01*
X0110000Y0055000D02*
X0110000Y0145000D01*
X0149000Y0184000D01*
X0149000Y0205000D01*
X0144300Y0205151D02*
X0143700Y0205151D01*
X0143700Y0203953D02*
X0144300Y0203953D01*
X0144599Y0202754D02*
X0143401Y0202754D01*
X0142203Y0201556D02*
X0145797Y0201556D01*
X0146996Y0200357D02*
X0141004Y0200357D01*
X0141000Y0199159D02*
X0147000Y0199159D01*
X0147000Y0197960D02*
X0141000Y0197960D01*
X0141000Y0196762D02*
X0147000Y0196762D01*
X0147000Y0195563D02*
X0141000Y0195563D01*
X0141000Y0194365D02*
X0147000Y0194365D01*
X0147000Y0193166D02*
X0141000Y0193166D01*
X0141000Y0191968D02*
X0147000Y0191968D01*
X0147000Y0190769D02*
X0141000Y0190769D01*
X0141000Y0189571D02*
X0147000Y0189571D01*
X0147000Y0188372D02*
X0141000Y0188372D01*
X0141000Y0187174D02*
X0147000Y0187174D01*
X0147000Y0185975D02*
X0141000Y0185975D01*
X0141000Y0184777D02*
X0146948Y0184777D01*
X0145750Y0183578D02*
X0141000Y0183578D01*
X0141000Y0182380D02*
X0144551Y0182380D01*
X0143353Y0181181D02*
X0141000Y0181181D01*
X0141000Y0179983D02*
X0142154Y0179983D01*
X0139000Y0176828D02*
X0105000Y0142828D01*
X0105000Y0080000D01*
X0103088Y0078109D02*
X0074919Y0078109D01*
X0073721Y0079308D02*
X0102376Y0079308D01*
X0102311Y0080506D02*
X0072522Y0080506D01*
X0073354Y0081025D02*
X0076646Y0081025D01*
X0078975Y0083354D01*
X0078975Y0086646D01*
X0076646Y0088975D01*
X0073354Y0088975D01*
X0071025Y0086646D01*
X0071025Y0083354D01*
X0073354Y0081025D01*
X0072674Y0081705D02*
X0071324Y0081705D01*
X0071476Y0082903D02*
X0070125Y0082903D01*
X0071025Y0084102D02*
X0068927Y0084102D01*
X0067728Y0085300D02*
X0071025Y0085300D01*
X0071025Y0086499D02*
X0066530Y0086499D01*
X0065331Y0087697D02*
X0072076Y0087697D01*
X0073275Y0088896D02*
X0064133Y0088896D01*
X0062934Y0090094D02*
X0103000Y0090094D01*
X0103000Y0088896D02*
X0076725Y0088896D01*
X0077924Y0087697D02*
X0103000Y0087697D01*
X0103000Y0086499D02*
X0078975Y0086499D01*
X0078975Y0085300D02*
X0103000Y0085300D01*
X0103000Y0084102D02*
X0078975Y0084102D01*
X0078524Y0082903D02*
X0103000Y0082903D01*
X0102902Y0081705D02*
X0077326Y0081705D01*
X0076118Y0076911D02*
X0108000Y0076911D01*
X0108000Y0078109D02*
X0106912Y0078109D01*
X0107624Y0079308D02*
X0108000Y0079308D01*
X0108000Y0080506D02*
X0107689Y0080506D01*
X0108000Y0081705D02*
X0107098Y0081705D01*
X0107000Y0082903D02*
X0108000Y0082903D01*
X0108000Y0084102D02*
X0107000Y0084102D01*
X0107000Y0085300D02*
X0108000Y0085300D01*
X0108000Y0086499D02*
X0107000Y0086499D01*
X0107000Y0087697D02*
X0108000Y0087697D01*
X0108000Y0088896D02*
X0107000Y0088896D01*
X0107000Y0090094D02*
X0108000Y0090094D01*
X0108000Y0091293D02*
X0107000Y0091293D01*
X0107000Y0092491D02*
X0108000Y0092491D01*
X0108000Y0093690D02*
X0107000Y0093690D01*
X0107000Y0094888D02*
X0108000Y0094888D01*
X0108000Y0096087D02*
X0107000Y0096087D01*
X0107000Y0097285D02*
X0108000Y0097285D01*
X0108000Y0098484D02*
X0107000Y0098484D01*
X0107000Y0099682D02*
X0108000Y0099682D01*
X0108000Y0100881D02*
X0107000Y0100881D01*
X0107000Y0102079D02*
X0108000Y0102079D01*
X0108000Y0103278D02*
X0107000Y0103278D01*
X0107000Y0104476D02*
X0108000Y0104476D01*
X0108000Y0105675D02*
X0107000Y0105675D01*
X0107000Y0106873D02*
X0108000Y0106873D01*
X0108000Y0108072D02*
X0107000Y0108072D01*
X0107000Y0109270D02*
X0108000Y0109270D01*
X0108000Y0110469D02*
X0107000Y0110469D01*
X0107000Y0111668D02*
X0108000Y0111668D01*
X0108000Y0112866D02*
X0107000Y0112866D01*
X0107000Y0114065D02*
X0108000Y0114065D01*
X0108000Y0115263D02*
X0107000Y0115263D01*
X0107000Y0116462D02*
X0108000Y0116462D01*
X0108000Y0117660D02*
X0107000Y0117660D01*
X0107000Y0118859D02*
X0108000Y0118859D01*
X0108000Y0120057D02*
X0107000Y0120057D01*
X0107000Y0121256D02*
X0108000Y0121256D01*
X0108000Y0122454D02*
X0107000Y0122454D01*
X0107000Y0123653D02*
X0108000Y0123653D01*
X0108000Y0124851D02*
X0107000Y0124851D01*
X0107000Y0126050D02*
X0108000Y0126050D01*
X0108000Y0127248D02*
X0107000Y0127248D01*
X0107000Y0128447D02*
X0108000Y0128447D01*
X0108000Y0129645D02*
X0107000Y0129645D01*
X0107000Y0130844D02*
X0108000Y0130844D01*
X0108000Y0132042D02*
X0107000Y0132042D01*
X0107000Y0133241D02*
X0108000Y0133241D01*
X0108000Y0134439D02*
X0107000Y0134439D01*
X0107000Y0135638D02*
X0108000Y0135638D01*
X0108000Y0136836D02*
X0107000Y0136836D01*
X0107000Y0138035D02*
X0108000Y0138035D01*
X0108000Y0139233D02*
X0107000Y0139233D01*
X0107000Y0140432D02*
X0108000Y0140432D01*
X0108000Y0141630D02*
X0107000Y0141630D01*
X0107829Y0142829D02*
X0108000Y0142829D01*
X0104569Y0145226D02*
X0082689Y0145226D01*
X0082689Y0145535D02*
X0082280Y0146523D01*
X0081523Y0147280D01*
X0080535Y0147689D01*
X0079465Y0147689D01*
X0078477Y0147280D01*
X0077720Y0146523D01*
X0077311Y0145535D01*
X0077311Y0144465D01*
X0077720Y0143477D01*
X0078000Y0143197D01*
X0078000Y0137621D01*
X0076646Y0138975D01*
X0073354Y0138975D01*
X0071025Y0136646D01*
X0071025Y0133354D01*
X0073354Y0131025D01*
X0076646Y0131025D01*
X0078000Y0132379D01*
X0078000Y0127621D01*
X0076646Y0128975D01*
X0073354Y0128975D01*
X0071025Y0126646D01*
X0071025Y0123354D01*
X0073354Y0121025D01*
X0076646Y0121025D01*
X0078000Y0122379D01*
X0078000Y0117621D01*
X0076646Y0118975D01*
X0073354Y0118975D01*
X0071025Y0116646D01*
X0071025Y0113354D01*
X0073354Y0111025D01*
X0076646Y0111025D01*
X0078000Y0112379D01*
X0078000Y0110828D01*
X0076146Y0108975D01*
X0073354Y0108975D01*
X0071025Y0106646D01*
X0071025Y0103354D01*
X0073354Y0101025D01*
X0076646Y0101025D01*
X0078975Y0103354D01*
X0078975Y0106146D01*
X0080828Y0108000D01*
X0082000Y0109172D01*
X0082000Y0143197D01*
X0082280Y0143477D01*
X0082689Y0144465D01*
X0082689Y0145535D01*
X0082321Y0146424D02*
X0105767Y0146424D01*
X0106966Y0147623D02*
X0080694Y0147623D01*
X0079306Y0147623D02*
X0006600Y0147623D01*
X0006600Y0148821D02*
X0108165Y0148821D01*
X0109363Y0150020D02*
X0006600Y0150020D01*
X0006600Y0151218D02*
X0110562Y0151218D01*
X0111760Y0152417D02*
X0006600Y0152417D01*
X0006600Y0153615D02*
X0112959Y0153615D01*
X0114157Y0154814D02*
X0006600Y0154814D01*
X0006600Y0156012D02*
X0115356Y0156012D01*
X0116554Y0157211D02*
X0006600Y0157211D01*
X0006600Y0158409D02*
X0117753Y0158409D01*
X0118951Y0159608D02*
X0006600Y0159608D01*
X0006600Y0160806D02*
X0120150Y0160806D01*
X0121348Y0162005D02*
X0006600Y0162005D01*
X0006600Y0163203D02*
X0122547Y0163203D01*
X0122851Y0163600D02*
X0126600Y0167349D01*
X0126600Y0172651D01*
X0122851Y0176400D01*
X0117549Y0176400D01*
X0113800Y0172651D01*
X0113800Y0167349D01*
X0117549Y0163600D01*
X0122851Y0163600D01*
X0123653Y0164402D02*
X0123745Y0164402D01*
X0124851Y0165601D02*
X0124944Y0165601D01*
X0126050Y0166799D02*
X0126142Y0166799D01*
X0126600Y0167998D02*
X0127341Y0167998D01*
X0126600Y0169196D02*
X0128539Y0169196D01*
X0129738Y0170395D02*
X0126600Y0170395D01*
X0126600Y0171593D02*
X0130936Y0171593D01*
X0132135Y0172792D02*
X0126459Y0172792D01*
X0125261Y0173990D02*
X0133333Y0173990D01*
X0134532Y0175189D02*
X0124062Y0175189D01*
X0122864Y0176387D02*
X0135730Y0176387D01*
X0136929Y0177586D02*
X0006600Y0177586D01*
X0006600Y0178784D02*
X0137000Y0178784D01*
X0137000Y0179983D02*
X0006600Y0179983D01*
X0006600Y0181181D02*
X0137000Y0181181D01*
X0137000Y0182380D02*
X0006600Y0182380D01*
X0006600Y0183578D02*
X0137000Y0183578D01*
X0137000Y0184777D02*
X0006600Y0184777D01*
X0006600Y0185975D02*
X0137000Y0185975D01*
X0137000Y0187174D02*
X0006600Y0187174D01*
X0006600Y0188372D02*
X0137000Y0188372D01*
X0137000Y0189571D02*
X0006600Y0189571D01*
X0006600Y0190769D02*
X0137000Y0190769D01*
X0137000Y0191968D02*
X0006600Y0191968D01*
X0006600Y0193166D02*
X0137000Y0193166D01*
X0137000Y0194365D02*
X0006600Y0194365D01*
X0006600Y0195563D02*
X0137000Y0195563D01*
X0137000Y0196762D02*
X0006600Y0196762D01*
X0006600Y0197960D02*
X0137000Y0197960D01*
X0137000Y0199159D02*
X0006600Y0199159D01*
X0006600Y0200357D02*
X0076996Y0200357D01*
X0077053Y0200300D02*
X0080947Y0200300D01*
X0083700Y0203053D01*
X0083700Y0206947D01*
X0080947Y0209700D01*
X0077053Y0209700D01*
X0074300Y0206947D01*
X0074300Y0203053D01*
X0077053Y0200300D01*
X0075797Y0201556D02*
X0006600Y0201556D01*
X0006600Y0202754D02*
X0074599Y0202754D01*
X0074300Y0203953D02*
X0006600Y0203953D01*
X0006600Y0205151D02*
X0074300Y0205151D01*
X0074300Y0206350D02*
X0006600Y0206350D01*
X0006650Y0207548D02*
X0074902Y0207548D01*
X0076100Y0208747D02*
X0006954Y0208747D01*
X0007417Y0209945D02*
X0277504Y0209945D01*
X0277967Y0208747D02*
X0257900Y0208747D01*
X0256947Y0209700D02*
X0253053Y0209700D01*
X0250300Y0206947D01*
X0250300Y0203053D01*
X0253053Y0200300D01*
X0256947Y0200300D01*
X0259700Y0203053D01*
X0259700Y0206947D01*
X0256947Y0209700D01*
X0259098Y0207548D02*
X0278271Y0207548D01*
X0278321Y0206350D02*
X0259700Y0206350D01*
X0259700Y0205151D02*
X0278321Y0205151D01*
X0278321Y0203953D02*
X0259700Y0203953D01*
X0259401Y0202754D02*
X0278321Y0202754D01*
X0278321Y0201556D02*
X0258203Y0201556D01*
X0257004Y0200357D02*
X0278321Y0200357D01*
X0278321Y0199159D02*
X0161000Y0199159D01*
X0161004Y0200357D02*
X0166996Y0200357D01*
X0167053Y0200300D02*
X0170947Y0200300D01*
X0173700Y0203053D01*
X0173700Y0206947D01*
X0170947Y0209700D01*
X0167053Y0209700D01*
X0164300Y0206947D01*
X0164300Y0203053D01*
X0167053Y0200300D01*
X0165797Y0201556D02*
X0162203Y0201556D01*
X0163401Y0202754D02*
X0164599Y0202754D01*
X0164300Y0203953D02*
X0163700Y0203953D01*
X0163700Y0205151D02*
X0164300Y0205151D01*
X0164300Y0206350D02*
X0163700Y0206350D01*
X0163098Y0207548D02*
X0164902Y0207548D01*
X0166100Y0208747D02*
X0161900Y0208747D01*
X0159000Y0205000D02*
X0159000Y0191172D01*
X0115000Y0147172D01*
X0115000Y0060000D01*
X0117495Y0063727D02*
X0122505Y0063727D01*
X0121306Y0062529D02*
X0118694Y0062529D01*
X0119400Y0061330D02*
X0120600Y0061330D01*
X0120600Y0060132D02*
X0119400Y0060132D01*
X0119400Y0058933D02*
X0120600Y0058933D01*
X0121043Y0057734D02*
X0118957Y0057734D01*
X0117759Y0056536D02*
X0122241Y0056536D01*
X0122916Y0054139D02*
X0117084Y0054139D01*
X0118282Y0052940D02*
X0121718Y0052940D01*
X0120600Y0051742D02*
X0119400Y0051742D01*
X0119400Y0050543D02*
X0120600Y0050543D01*
X0120600Y0049345D02*
X0119400Y0049345D01*
X0119369Y0048146D02*
X0120631Y0048146D01*
X0121830Y0046948D02*
X0118170Y0046948D01*
X0116972Y0045749D02*
X0123028Y0045749D01*
X0122130Y0043352D02*
X0117870Y0043352D01*
X0116823Y0044400D02*
X0113177Y0044400D01*
X0110600Y0041823D01*
X0110600Y0038177D01*
X0113177Y0035600D01*
X0116823Y0035600D01*
X0119400Y0038177D01*
X0119400Y0041823D01*
X0116823Y0044400D01*
X0119069Y0042154D02*
X0120931Y0042154D01*
X0120600Y0040955D02*
X0119400Y0040955D01*
X0119400Y0039757D02*
X0120600Y0039757D01*
X0120600Y0038558D02*
X0119400Y0038558D01*
X0118582Y0037360D02*
X0121418Y0037360D01*
X0122616Y0036161D02*
X0117384Y0036161D01*
X0112616Y0036161D02*
X0107384Y0036161D01*
X0108582Y0037360D02*
X0111418Y0037360D01*
X0110600Y0038558D02*
X0109400Y0038558D01*
X0109400Y0039757D02*
X0110600Y0039757D01*
X0110600Y0040955D02*
X0109400Y0040955D01*
X0109069Y0042154D02*
X0110931Y0042154D01*
X0112130Y0043352D02*
X0107870Y0043352D01*
X0106972Y0045749D02*
X0113028Y0045749D01*
X0111830Y0046948D02*
X0108170Y0046948D01*
X0109369Y0048146D02*
X0110631Y0048146D01*
X0110600Y0049345D02*
X0109400Y0049345D01*
X0109400Y0050543D02*
X0110600Y0050543D01*
X0110430Y0051742D02*
X0109400Y0051742D01*
X0109231Y0052940D02*
X0108282Y0052940D01*
X0108033Y0054139D02*
X0107084Y0054139D01*
X0108000Y0055337D02*
X0097691Y0055337D01*
X0098889Y0054139D02*
X0102916Y0054139D01*
X0101718Y0052940D02*
X0100088Y0052940D01*
X0100200Y0050000D02*
X0060000Y0090200D01*
X0060000Y0100000D01*
X0057454Y0100881D02*
X0006600Y0100881D01*
X0006600Y0102079D02*
X0012299Y0102079D01*
X0013354Y0101025D02*
X0016646Y0101025D01*
X0018721Y0103100D01*
X0050787Y0103100D01*
X0064998Y0117311D01*
X0065535Y0117311D01*
X0066523Y0117720D01*
X0067280Y0118477D01*
X0067689Y0119465D01*
X0067689Y0120535D01*
X0067280Y0121523D01*
X0066523Y0122280D01*
X0065535Y0122689D01*
X0064465Y0122689D01*
X0063477Y0122280D01*
X0062720Y0121523D01*
X0062311Y0120535D01*
X0062311Y0119998D01*
X0049213Y0106900D01*
X0018721Y0106900D01*
X0016646Y0108975D01*
X0013354Y0108975D01*
X0011025Y0106646D01*
X0011025Y0103354D01*
X0013354Y0101025D01*
X0013354Y0098975D02*
X0011025Y0096646D01*
X0011025Y0093354D01*
X0013354Y0091025D01*
X0016646Y0091025D01*
X0018975Y0093354D01*
X0018975Y0096646D01*
X0016646Y0098975D01*
X0013354Y0098975D01*
X0012863Y0098484D02*
X0006600Y0098484D01*
X0006600Y0099682D02*
X0057311Y0099682D01*
X0057717Y0098484D02*
X0017137Y0098484D01*
X0018336Y0097285D02*
X0058000Y0097285D01*
X0058000Y0096087D02*
X0018975Y0096087D01*
X0018975Y0094888D02*
X0058000Y0094888D01*
X0058000Y0093690D02*
X0018975Y0093690D01*
X0018113Y0092491D02*
X0058000Y0092491D01*
X0058000Y0091293D02*
X0016914Y0091293D01*
X0016646Y0088975D02*
X0013354Y0088975D01*
X0011025Y0086646D01*
X0011025Y0083354D01*
X0013354Y0081025D01*
X0016646Y0081025D01*
X0018975Y0083354D01*
X0018975Y0086646D01*
X0016646Y0088975D01*
X0016725Y0088896D02*
X0058476Y0088896D01*
X0058000Y0090094D02*
X0006600Y0090094D01*
X0006600Y0088896D02*
X0013275Y0088896D01*
X0012076Y0087697D02*
X0006600Y0087697D01*
X0006600Y0086499D02*
X0011025Y0086499D01*
X0011025Y0085300D02*
X0006600Y0085300D01*
X0006600Y0084102D02*
X0011025Y0084102D01*
X0011476Y0082903D02*
X0006600Y0082903D01*
X0006600Y0081705D02*
X0012674Y0081705D01*
X0017326Y0081705D02*
X0065667Y0081705D01*
X0064468Y0082903D02*
X0018524Y0082903D01*
X0018975Y0084102D02*
X0063270Y0084102D01*
X0062071Y0085300D02*
X0018975Y0085300D01*
X0018975Y0086499D02*
X0060873Y0086499D01*
X0059674Y0087697D02*
X0017924Y0087697D01*
X0013086Y0091293D02*
X0006600Y0091293D01*
X0006600Y0092491D02*
X0011887Y0092491D01*
X0011025Y0093690D02*
X0006600Y0093690D01*
X0006600Y0094888D02*
X0011025Y0094888D01*
X0011025Y0096087D02*
X0006600Y0096087D01*
X0006600Y0097285D02*
X0011664Y0097285D01*
X0011101Y0103278D02*
X0006600Y0103278D01*
X0006600Y0104476D02*
X0011025Y0104476D01*
X0011025Y0105675D02*
X0006600Y0105675D01*
X0006600Y0106873D02*
X0011252Y0106873D01*
X0012451Y0108072D02*
X0006600Y0108072D01*
X0006600Y0109270D02*
X0051583Y0109270D01*
X0050385Y0108072D02*
X0017549Y0108072D01*
X0016646Y0111025D02*
X0013354Y0111025D01*
X0011025Y0113354D01*
X0011025Y0116646D01*
X0013354Y0118975D01*
X0016646Y0118975D01*
X0018975Y0116646D01*
X0018975Y0113354D01*
X0016646Y0111025D01*
X0017289Y0111668D02*
X0053981Y0111668D01*
X0055179Y0112866D02*
X0018487Y0112866D01*
X0018975Y0114065D02*
X0056378Y0114065D01*
X0057576Y0115263D02*
X0018975Y0115263D01*
X0018975Y0116462D02*
X0058775Y0116462D01*
X0059973Y0117660D02*
X0017961Y0117660D01*
X0016763Y0118859D02*
X0061172Y0118859D01*
X0062311Y0120057D02*
X0006600Y0120057D01*
X0006600Y0118859D02*
X0013237Y0118859D01*
X0012039Y0117660D02*
X0006600Y0117660D01*
X0006600Y0116462D02*
X0011025Y0116462D01*
X0011025Y0115263D02*
X0006600Y0115263D01*
X0006600Y0114065D02*
X0011025Y0114065D01*
X0011513Y0112866D02*
X0006600Y0112866D01*
X0006600Y0111668D02*
X0012711Y0111668D01*
X0006600Y0110469D02*
X0052782Y0110469D01*
X0055759Y0108072D02*
X0072451Y0108072D01*
X0071252Y0106873D02*
X0054560Y0106873D01*
X0053362Y0105675D02*
X0071025Y0105675D01*
X0071025Y0104476D02*
X0052163Y0104476D01*
X0050965Y0103278D02*
X0071101Y0103278D01*
X0072299Y0102079D02*
X0061723Y0102079D01*
X0062546Y0100881D02*
X0103000Y0100881D01*
X0103000Y0102079D02*
X0077701Y0102079D01*
X0078899Y0103278D02*
X0103000Y0103278D01*
X0103000Y0104476D02*
X0078975Y0104476D01*
X0078975Y0105675D02*
X0103000Y0105675D01*
X0103000Y0106873D02*
X0079702Y0106873D01*
X0080900Y0108072D02*
X0103000Y0108072D01*
X0103000Y0109270D02*
X0082000Y0109270D01*
X0082000Y0110469D02*
X0103000Y0110469D01*
X0103000Y0111668D02*
X0082000Y0111668D01*
X0082000Y0112866D02*
X0103000Y0112866D01*
X0103000Y0114065D02*
X0082000Y0114065D01*
X0082000Y0115263D02*
X0103000Y0115263D01*
X0103000Y0116462D02*
X0082000Y0116462D01*
X0082000Y0117660D02*
X0103000Y0117660D01*
X0103000Y0118859D02*
X0082000Y0118859D01*
X0082000Y0120057D02*
X0103000Y0120057D01*
X0103000Y0121256D02*
X0082000Y0121256D01*
X0082000Y0122454D02*
X0103000Y0122454D01*
X0103000Y0123653D02*
X0082000Y0123653D01*
X0082000Y0124851D02*
X0103000Y0124851D01*
X0103000Y0126050D02*
X0082000Y0126050D01*
X0082000Y0127248D02*
X0103000Y0127248D01*
X0103000Y0128447D02*
X0082000Y0128447D01*
X0082000Y0129645D02*
X0103000Y0129645D01*
X0103000Y0130844D02*
X0082000Y0130844D01*
X0082000Y0132042D02*
X0103000Y0132042D01*
X0103000Y0133241D02*
X0082000Y0133241D01*
X0082000Y0134439D02*
X0103000Y0134439D01*
X0103000Y0135638D02*
X0082000Y0135638D01*
X0082000Y0136836D02*
X0103000Y0136836D01*
X0103000Y0138035D02*
X0082000Y0138035D01*
X0082000Y0139233D02*
X0103000Y0139233D01*
X0103000Y0140432D02*
X0082000Y0140432D01*
X0082000Y0141630D02*
X0103000Y0141630D01*
X0103000Y0142829D02*
X0082000Y0142829D01*
X0082508Y0144027D02*
X0103370Y0144027D01*
X0117000Y0144027D02*
X0153000Y0144027D01*
X0153000Y0144172D02*
X0153000Y0114223D01*
X0150600Y0111823D01*
X0150600Y0108177D01*
X0153177Y0105600D01*
X0156823Y0105600D01*
X0159400Y0108177D01*
X0159400Y0111823D01*
X0157000Y0114223D01*
X0157000Y0145828D01*
X0142689Y0160139D01*
X0142689Y0160535D01*
X0142280Y0161523D01*
X0141523Y0162280D01*
X0140535Y0162689D01*
X0139465Y0162689D01*
X0138477Y0162280D01*
X0137720Y0161523D01*
X0137311Y0160535D01*
X0137311Y0159465D01*
X0137720Y0158477D01*
X0138477Y0157720D01*
X0139465Y0157311D01*
X0139861Y0157311D01*
X0153000Y0144172D01*
X0153000Y0142829D02*
X0117000Y0142829D01*
X0117000Y0141630D02*
X0153000Y0141630D01*
X0153000Y0140432D02*
X0117000Y0140432D01*
X0117000Y0139233D02*
X0153000Y0139233D01*
X0153000Y0138035D02*
X0117000Y0138035D01*
X0117000Y0136836D02*
X0153000Y0136836D01*
X0153000Y0135638D02*
X0117000Y0135638D01*
X0117000Y0134439D02*
X0153000Y0134439D01*
X0153000Y0133241D02*
X0117000Y0133241D01*
X0117000Y0132042D02*
X0153000Y0132042D01*
X0153000Y0130844D02*
X0117000Y0130844D01*
X0117000Y0129645D02*
X0153000Y0129645D01*
X0153000Y0128447D02*
X0117000Y0128447D01*
X0117000Y0127248D02*
X0153000Y0127248D01*
X0153000Y0126050D02*
X0117000Y0126050D01*
X0117000Y0124851D02*
X0153000Y0124851D01*
X0153000Y0123653D02*
X0117000Y0123653D01*
X0117000Y0122454D02*
X0153000Y0122454D01*
X0153000Y0121256D02*
X0117000Y0121256D01*
X0117000Y0120057D02*
X0153000Y0120057D01*
X0153000Y0118859D02*
X0117000Y0118859D01*
X0117000Y0117660D02*
X0153000Y0117660D01*
X0153000Y0116462D02*
X0117000Y0116462D01*
X0117000Y0115263D02*
X0153000Y0115263D01*
X0152842Y0114065D02*
X0147158Y0114065D01*
X0146823Y0114400D02*
X0143177Y0114400D01*
X0140600Y0111823D01*
X0140600Y0108177D01*
X0143177Y0105600D01*
X0146823Y0105600D01*
X0149400Y0108177D01*
X0149400Y0111823D01*
X0146823Y0114400D01*
X0148356Y0112866D02*
X0151643Y0112866D01*
X0150600Y0111668D02*
X0149400Y0111668D01*
X0149400Y0110469D02*
X0150600Y0110469D01*
X0150600Y0109270D02*
X0149400Y0109270D01*
X0149295Y0108072D02*
X0150705Y0108072D01*
X0151904Y0106873D02*
X0148096Y0106873D01*
X0146897Y0105675D02*
X0153103Y0105675D01*
X0156897Y0105675D02*
X0163103Y0105675D01*
X0163177Y0105600D02*
X0166823Y0105600D01*
X0169400Y0108177D01*
X0169400Y0111823D01*
X0166823Y0114400D01*
X0163177Y0114400D01*
X0160600Y0111823D01*
X0160600Y0108177D01*
X0163177Y0105600D01*
X0161904Y0106873D02*
X0158096Y0106873D01*
X0159295Y0108072D02*
X0160705Y0108072D01*
X0160600Y0109270D02*
X0159400Y0109270D01*
X0159400Y0110469D02*
X0160600Y0110469D01*
X0160600Y0111668D02*
X0159400Y0111668D01*
X0158356Y0112866D02*
X0161643Y0112866D01*
X0162842Y0114065D02*
X0157158Y0114065D01*
X0157000Y0115263D02*
X0189159Y0115263D01*
X0189159Y0114065D02*
X0167158Y0114065D01*
X0168356Y0112866D02*
X0189159Y0112866D01*
X0189159Y0111879D02*
X0193572Y0107466D01*
X0199814Y0107466D01*
X0204227Y0111879D01*
X0204227Y0118121D01*
X0199814Y0122534D01*
X0193572Y0122534D01*
X0189159Y0118121D01*
X0189159Y0111879D01*
X0189371Y0111668D02*
X0169400Y0111668D01*
X0169400Y0110469D02*
X0190569Y0110469D01*
X0191768Y0109270D02*
X0169400Y0109270D01*
X0169295Y0108072D02*
X0192966Y0108072D01*
X0200419Y0108072D02*
X0222843Y0108072D01*
X0222843Y0109270D02*
X0201618Y0109270D01*
X0202816Y0110469D02*
X0222843Y0110469D01*
X0222843Y0111668D02*
X0204015Y0111668D01*
X0204227Y0112866D02*
X0222843Y0112866D01*
X0222843Y0114065D02*
X0204227Y0114065D01*
X0204227Y0115263D02*
X0222843Y0115263D01*
X0222843Y0116462D02*
X0204227Y0116462D01*
X0204227Y0117660D02*
X0222843Y0117660D01*
X0222843Y0118859D02*
X0203489Y0118859D01*
X0202290Y0120057D02*
X0222843Y0120057D01*
X0222843Y0121256D02*
X0201092Y0121256D01*
X0199893Y0122454D02*
X0222843Y0122454D01*
X0222843Y0123653D02*
X0157000Y0123653D01*
X0157000Y0124851D02*
X0222843Y0124851D01*
X0222843Y0126050D02*
X0157000Y0126050D01*
X0157000Y0127248D02*
X0222843Y0127248D01*
X0222843Y0128447D02*
X0157000Y0128447D01*
X0157000Y0129645D02*
X0222843Y0129645D01*
X0222843Y0130844D02*
X0157000Y0130844D01*
X0157000Y0132042D02*
X0222843Y0132042D01*
X0222843Y0133241D02*
X0157000Y0133241D01*
X0157000Y0134439D02*
X0222843Y0134439D01*
X0222843Y0135638D02*
X0157000Y0135638D01*
X0157000Y0136836D02*
X0222843Y0136836D01*
X0222843Y0138035D02*
X0207212Y0138035D01*
X0207050Y0137872D02*
X0209726Y0140549D01*
X0209726Y0142057D01*
X0205542Y0142057D01*
X0205542Y0142825D01*
X0209726Y0142825D01*
X0209726Y0144333D01*
X0207050Y0147009D01*
X0205542Y0147009D01*
X0205542Y0142825D01*
X0204773Y0142825D01*
X0204773Y0142057D01*
X0200589Y0142057D01*
X0200589Y0140549D01*
X0203265Y0137872D01*
X0204773Y0137872D01*
X0204773Y0142057D01*
X0205542Y0142057D01*
X0205542Y0137872D01*
X0207050Y0137872D01*
X0205542Y0138035D02*
X0204773Y0138035D01*
X0204773Y0139233D02*
X0205542Y0139233D01*
X0205542Y0140432D02*
X0204773Y0140432D01*
X0204773Y0141630D02*
X0205542Y0141630D01*
X0205542Y0142829D02*
X0204773Y0142829D01*
X0204773Y0142825D02*
X0204773Y0147009D01*
X0203265Y0147009D01*
X0200589Y0144333D01*
X0200589Y0142825D01*
X0204773Y0142825D01*
X0204773Y0144027D02*
X0205542Y0144027D01*
X0205542Y0145226D02*
X0204773Y0145226D01*
X0204773Y0146424D02*
X0205542Y0146424D01*
X0207635Y0146424D02*
X0212805Y0146424D01*
X0213191Y0146809D02*
X0210631Y0144250D01*
X0210631Y0140631D01*
X0213191Y0138072D01*
X0216809Y0138072D01*
X0219368Y0140631D01*
X0219368Y0144250D01*
X0216809Y0146809D01*
X0213191Y0146809D01*
X0211607Y0145226D02*
X0208833Y0145226D01*
X0209726Y0144027D02*
X0210631Y0144027D01*
X0210631Y0142829D02*
X0209726Y0142829D01*
X0209726Y0141630D02*
X0210631Y0141630D01*
X0210831Y0140432D02*
X0209609Y0140432D01*
X0208411Y0139233D02*
X0212030Y0139233D01*
X0217970Y0139233D02*
X0221872Y0139233D01*
X0220674Y0140432D02*
X0219169Y0140432D01*
X0219368Y0141630D02*
X0220474Y0141630D01*
X0220474Y0142829D02*
X0219368Y0142829D01*
X0219368Y0144027D02*
X0220474Y0144027D01*
X0221449Y0145226D02*
X0218393Y0145226D01*
X0217195Y0146424D02*
X0222648Y0146424D01*
X0227037Y0146424D02*
X0278321Y0146424D01*
X0278321Y0145226D02*
X0228236Y0145226D01*
X0229211Y0144027D02*
X0278321Y0144027D01*
X0278321Y0142829D02*
X0229211Y0142829D01*
X0229211Y0141630D02*
X0278321Y0141630D01*
X0278321Y0140432D02*
X0229011Y0140432D01*
X0227813Y0139233D02*
X0278321Y0139233D01*
X0278321Y0138035D02*
X0226843Y0138035D01*
X0226843Y0136836D02*
X0278321Y0136836D01*
X0278321Y0135638D02*
X0226843Y0135638D01*
X0226843Y0134439D02*
X0278321Y0134439D01*
X0278321Y0133241D02*
X0226843Y0133241D01*
X0226843Y0132042D02*
X0278321Y0132042D01*
X0278321Y0130844D02*
X0226843Y0130844D01*
X0226843Y0129645D02*
X0278321Y0129645D01*
X0278321Y0128447D02*
X0226843Y0128447D01*
X0226843Y0127248D02*
X0278321Y0127248D01*
X0278321Y0126050D02*
X0226843Y0126050D01*
X0226843Y0124851D02*
X0278321Y0124851D01*
X0278321Y0123653D02*
X0226843Y0123653D01*
X0226843Y0122454D02*
X0230107Y0122454D01*
X0228908Y0121256D02*
X0226843Y0121256D01*
X0226843Y0120057D02*
X0227710Y0120057D01*
X0236507Y0122454D02*
X0278321Y0122454D01*
X0278321Y0121256D02*
X0237706Y0121256D01*
X0238904Y0120057D02*
X0278321Y0120057D01*
X0278321Y0118859D02*
X0240103Y0118859D01*
X0240841Y0117660D02*
X0278321Y0117660D01*
X0278321Y0116462D02*
X0240841Y0116462D01*
X0240841Y0115263D02*
X0278321Y0115263D01*
X0278321Y0114065D02*
X0240841Y0114065D01*
X0240841Y0112866D02*
X0278321Y0112866D01*
X0278321Y0111668D02*
X0240629Y0111668D01*
X0239431Y0110469D02*
X0278321Y0110469D01*
X0278321Y0109270D02*
X0238232Y0109270D01*
X0237034Y0108072D02*
X0278321Y0108072D01*
X0278321Y0106873D02*
X0226843Y0106873D01*
X0226843Y0105675D02*
X0278321Y0105675D01*
X0278321Y0104476D02*
X0226843Y0104476D01*
X0226843Y0103278D02*
X0278321Y0103278D01*
X0278321Y0102079D02*
X0226843Y0102079D01*
X0226843Y0100881D02*
X0278321Y0100881D01*
X0278321Y0099682D02*
X0226843Y0099682D01*
X0226843Y0098484D02*
X0278321Y0098484D01*
X0278321Y0097285D02*
X0226843Y0097285D01*
X0226843Y0096087D02*
X0278321Y0096087D01*
X0278321Y0094888D02*
X0226843Y0094888D01*
X0226843Y0093690D02*
X0278321Y0093690D01*
X0278321Y0092491D02*
X0226843Y0092491D01*
X0227169Y0091293D02*
X0278321Y0091293D01*
X0278321Y0090094D02*
X0228367Y0090094D01*
X0229211Y0088896D02*
X0278321Y0088896D01*
X0278321Y0087697D02*
X0229211Y0087697D01*
X0229211Y0086499D02*
X0278321Y0086499D01*
X0278321Y0085300D02*
X0228880Y0085300D01*
X0227681Y0084102D02*
X0278321Y0084102D01*
X0278321Y0082903D02*
X0226843Y0082903D01*
X0226843Y0081705D02*
X0278321Y0081705D01*
X0278321Y0080506D02*
X0226843Y0080506D01*
X0226843Y0079308D02*
X0278321Y0079308D01*
X0278321Y0078109D02*
X0226843Y0078109D01*
X0226843Y0076911D02*
X0278321Y0076911D01*
X0278321Y0075712D02*
X0226843Y0075712D01*
X0226843Y0074514D02*
X0278321Y0074514D01*
X0278321Y0073315D02*
X0226843Y0073315D01*
X0226843Y0072117D02*
X0278321Y0072117D01*
X0278321Y0070918D02*
X0226843Y0070918D01*
X0226843Y0069720D02*
X0278321Y0069720D01*
X0278321Y0068521D02*
X0226843Y0068521D01*
X0226843Y0067323D02*
X0229975Y0067323D01*
X0228777Y0066124D02*
X0226843Y0066124D01*
X0226843Y0064926D02*
X0227578Y0064926D01*
X0236639Y0067323D02*
X0278321Y0067323D01*
X0278321Y0066124D02*
X0237837Y0066124D01*
X0239036Y0064926D02*
X0278321Y0064926D01*
X0278321Y0063727D02*
X0240234Y0063727D01*
X0240841Y0062529D02*
X0278321Y0062529D01*
X0278321Y0061330D02*
X0240841Y0061330D01*
X0240841Y0060132D02*
X0278321Y0060132D01*
X0278321Y0058933D02*
X0240841Y0058933D01*
X0240841Y0057734D02*
X0278321Y0057734D01*
X0278321Y0056536D02*
X0240498Y0056536D01*
X0239299Y0055337D02*
X0278321Y0055337D01*
X0278321Y0054139D02*
X0238101Y0054139D01*
X0236902Y0052940D02*
X0278321Y0052940D01*
X0278321Y0051742D02*
X0226843Y0051742D01*
X0226843Y0052940D02*
X0229712Y0052940D01*
X0228514Y0054139D02*
X0226843Y0054139D01*
X0226843Y0055337D02*
X0227315Y0055337D01*
X0226843Y0050543D02*
X0278321Y0050543D01*
X0278321Y0049345D02*
X0226843Y0049345D01*
X0226843Y0048146D02*
X0278321Y0048146D01*
X0278321Y0046948D02*
X0226843Y0046948D01*
X0226843Y0045749D02*
X0278321Y0045749D01*
X0278321Y0044551D02*
X0226843Y0044551D01*
X0226843Y0043352D02*
X0278321Y0043352D01*
X0278321Y0042154D02*
X0226843Y0042154D01*
X0226843Y0040955D02*
X0278321Y0040955D01*
X0278321Y0039757D02*
X0226843Y0039757D01*
X0226843Y0038558D02*
X0278321Y0038558D01*
X0278321Y0037360D02*
X0226843Y0037360D01*
X0227300Y0036161D02*
X0278321Y0036161D01*
X0278321Y0034963D02*
X0228499Y0034963D01*
X0229211Y0033764D02*
X0278321Y0033764D01*
X0278321Y0032566D02*
X0229211Y0032566D01*
X0229211Y0031367D02*
X0278321Y0031367D01*
X0278321Y0030169D02*
X0228748Y0030169D01*
X0227550Y0028970D02*
X0278321Y0028970D01*
X0255000Y0015000D02*
X0244000Y0026000D01*
X0274628Y0007397D02*
X0010293Y0007397D01*
X0008496Y0008596D02*
X0276426Y0008596D01*
X0193098Y0052940D02*
X0163282Y0052940D01*
X0162084Y0054139D02*
X0191899Y0054139D01*
X0168613Y0038558D02*
X0164400Y0038558D01*
X0164400Y0039757D02*
X0167415Y0039757D01*
X0166216Y0040955D02*
X0164400Y0040955D01*
X0164069Y0042154D02*
X0165018Y0042154D01*
X0163819Y0043352D02*
X0162870Y0043352D01*
X0162621Y0044551D02*
X0151954Y0044551D01*
X0152255Y0045749D02*
X0158028Y0045749D01*
X0157130Y0043352D02*
X0153153Y0043352D01*
X0154352Y0042154D02*
X0155931Y0042154D01*
X0155600Y0040955D02*
X0154600Y0040955D01*
X0145400Y0028970D02*
X0006600Y0028970D01*
X0006600Y0027772D02*
X0145723Y0027772D01*
X0142735Y0019382D02*
X0137265Y0019382D01*
X0136947Y0019700D02*
X0133053Y0019700D01*
X0130300Y0016947D01*
X0130300Y0013053D01*
X0133053Y0010300D01*
X0136947Y0010300D01*
X0139700Y0013053D01*
X0139700Y0016947D01*
X0136947Y0019700D01*
X0138463Y0018184D02*
X0141537Y0018184D01*
X0140338Y0016985D02*
X0139662Y0016985D01*
X0139700Y0015787D02*
X0140300Y0015787D01*
X0140300Y0014588D02*
X0139700Y0014588D01*
X0139700Y0013390D02*
X0140300Y0013390D01*
X0141162Y0012191D02*
X0138838Y0012191D01*
X0137639Y0010993D02*
X0142361Y0010993D01*
X0132361Y0010993D02*
X0127639Y0010993D01*
X0126947Y0010300D02*
X0129700Y0013053D01*
X0129700Y0016947D01*
X0126947Y0019700D01*
X0123053Y0019700D01*
X0120300Y0016947D01*
X0120300Y0013053D01*
X0123053Y0010300D01*
X0126947Y0010300D01*
X0128838Y0012191D02*
X0131162Y0012191D01*
X0130300Y0013390D02*
X0129700Y0013390D01*
X0129700Y0014588D02*
X0130300Y0014588D01*
X0130300Y0015787D02*
X0129700Y0015787D01*
X0129662Y0016985D02*
X0130338Y0016985D01*
X0131537Y0018184D02*
X0128463Y0018184D01*
X0127265Y0019382D02*
X0132735Y0019382D01*
X0122735Y0019382D02*
X0117265Y0019382D01*
X0116947Y0019700D02*
X0113053Y0019700D01*
X0110300Y0016947D01*
X0110300Y0013053D01*
X0113053Y0010300D01*
X0116947Y0010300D01*
X0119700Y0013053D01*
X0119700Y0016947D01*
X0116947Y0019700D01*
X0118463Y0018184D02*
X0121537Y0018184D01*
X0120338Y0016985D02*
X0119662Y0016985D01*
X0119700Y0015787D02*
X0120300Y0015787D01*
X0120300Y0014588D02*
X0119700Y0014588D01*
X0119700Y0013390D02*
X0120300Y0013390D01*
X0121162Y0012191D02*
X0118838Y0012191D01*
X0117639Y0010993D02*
X0122361Y0010993D01*
X0112361Y0010993D02*
X0007035Y0010993D01*
X0006669Y0012191D02*
X0111162Y0012191D01*
X0110300Y0013390D02*
X0006600Y0013390D01*
X0006600Y0014588D02*
X0110300Y0014588D01*
X0110300Y0015787D02*
X0006600Y0015787D01*
X0006600Y0016985D02*
X0110338Y0016985D01*
X0111537Y0018184D02*
X0006600Y0018184D01*
X0006600Y0019382D02*
X0112735Y0019382D01*
X0101830Y0046948D02*
X0006600Y0046948D01*
X0006600Y0048146D02*
X0099225Y0048146D01*
X0098027Y0049345D02*
X0006600Y0049345D01*
X0006600Y0050543D02*
X0096828Y0050543D01*
X0095630Y0051742D02*
X0006600Y0051742D01*
X0006600Y0052940D02*
X0094431Y0052940D01*
X0093233Y0054139D02*
X0006600Y0054139D01*
X0006600Y0055337D02*
X0092034Y0055337D01*
X0090836Y0056536D02*
X0006600Y0056536D01*
X0006600Y0057734D02*
X0089637Y0057734D01*
X0088439Y0058933D02*
X0006600Y0058933D01*
X0006600Y0060132D02*
X0087240Y0060132D01*
X0086042Y0061330D02*
X0006600Y0061330D01*
X0006600Y0062529D02*
X0084843Y0062529D01*
X0083645Y0063727D02*
X0006600Y0063727D01*
X0006600Y0064926D02*
X0082446Y0064926D01*
X0081247Y0066124D02*
X0006600Y0066124D01*
X0006600Y0067323D02*
X0080049Y0067323D01*
X0078850Y0068521D02*
X0006600Y0068521D01*
X0006600Y0069720D02*
X0077652Y0069720D01*
X0076453Y0070918D02*
X0006600Y0070918D01*
X0006600Y0072117D02*
X0075255Y0072117D01*
X0074056Y0073315D02*
X0006600Y0073315D01*
X0006600Y0074514D02*
X0072858Y0074514D01*
X0071659Y0075712D02*
X0006600Y0075712D01*
X0006600Y0076911D02*
X0070461Y0076911D01*
X0069262Y0078109D02*
X0006600Y0078109D01*
X0006600Y0079308D02*
X0068064Y0079308D01*
X0066865Y0080506D02*
X0006600Y0080506D01*
X0017701Y0102079D02*
X0058277Y0102079D01*
X0062689Y0099682D02*
X0103000Y0099682D01*
X0103000Y0098484D02*
X0077137Y0098484D01*
X0076646Y0098975D02*
X0073354Y0098975D01*
X0071025Y0096646D01*
X0071025Y0093354D01*
X0073354Y0091025D01*
X0076646Y0091025D01*
X0078975Y0093354D01*
X0078975Y0096646D01*
X0076646Y0098975D01*
X0078336Y0097285D02*
X0103000Y0097285D01*
X0103000Y0096087D02*
X0078975Y0096087D01*
X0078975Y0094888D02*
X0103000Y0094888D01*
X0103000Y0093690D02*
X0078975Y0093690D01*
X0078113Y0092491D02*
X0103000Y0092491D01*
X0103000Y0091293D02*
X0076914Y0091293D01*
X0073086Y0091293D02*
X0062000Y0091293D01*
X0062000Y0092491D02*
X0071887Y0092491D01*
X0071025Y0093690D02*
X0062000Y0093690D01*
X0062000Y0094888D02*
X0071025Y0094888D01*
X0071025Y0096087D02*
X0062000Y0096087D01*
X0062000Y0097285D02*
X0071664Y0097285D01*
X0072863Y0098484D02*
X0062283Y0098484D01*
X0075000Y0105000D02*
X0080000Y0110000D01*
X0080000Y0145000D01*
X0077492Y0144027D02*
X0006600Y0144027D01*
X0006600Y0142829D02*
X0078000Y0142829D01*
X0078000Y0141630D02*
X0006600Y0141630D01*
X0006600Y0140432D02*
X0078000Y0140432D01*
X0078000Y0139233D02*
X0006600Y0139233D01*
X0006600Y0138035D02*
X0012414Y0138035D01*
X0013354Y0138975D02*
X0011025Y0136646D01*
X0011025Y0133354D01*
X0013354Y0131025D01*
X0016646Y0131025D01*
X0018975Y0133354D01*
X0018975Y0136646D01*
X0016646Y0138975D01*
X0013354Y0138975D01*
X0011215Y0136836D02*
X0006600Y0136836D01*
X0006600Y0135638D02*
X0011025Y0135638D01*
X0011025Y0134439D02*
X0006600Y0134439D01*
X0006600Y0133241D02*
X0011138Y0133241D01*
X0012337Y0132042D02*
X0006600Y0132042D01*
X0006600Y0130844D02*
X0078000Y0130844D01*
X0078000Y0132042D02*
X0077663Y0132042D01*
X0078000Y0129645D02*
X0006600Y0129645D01*
X0006600Y0128447D02*
X0012825Y0128447D01*
X0013354Y0128975D02*
X0011025Y0126646D01*
X0011025Y0123354D01*
X0013354Y0121025D01*
X0016646Y0121025D01*
X0018975Y0123354D01*
X0018975Y0126646D01*
X0016646Y0128975D01*
X0013354Y0128975D01*
X0011627Y0127248D02*
X0006600Y0127248D01*
X0006600Y0126050D02*
X0011025Y0126050D01*
X0011025Y0124851D02*
X0006600Y0124851D01*
X0006600Y0123653D02*
X0011025Y0123653D01*
X0011925Y0122454D02*
X0006600Y0122454D01*
X0006600Y0121256D02*
X0013123Y0121256D01*
X0016877Y0121256D02*
X0062610Y0121256D01*
X0063898Y0122454D02*
X0018075Y0122454D01*
X0018975Y0123653D02*
X0071025Y0123653D01*
X0071025Y0124851D02*
X0018975Y0124851D01*
X0018975Y0126050D02*
X0071025Y0126050D01*
X0071627Y0127248D02*
X0018373Y0127248D01*
X0017175Y0128447D02*
X0072825Y0128447D01*
X0072337Y0132042D02*
X0017663Y0132042D01*
X0018862Y0133241D02*
X0071138Y0133241D01*
X0071025Y0134439D02*
X0018975Y0134439D01*
X0018975Y0135638D02*
X0071025Y0135638D01*
X0071215Y0136836D02*
X0018785Y0136836D01*
X0017586Y0138035D02*
X0072414Y0138035D01*
X0077586Y0138035D02*
X0078000Y0138035D01*
X0077311Y0145226D02*
X0006600Y0145226D01*
X0006600Y0146424D02*
X0077679Y0146424D01*
X0078000Y0128447D02*
X0077175Y0128447D01*
X0071925Y0122454D02*
X0066102Y0122454D01*
X0067390Y0121256D02*
X0073123Y0121256D01*
X0073237Y0118859D02*
X0067438Y0118859D01*
X0067689Y0120057D02*
X0078000Y0120057D01*
X0078000Y0118859D02*
X0076763Y0118859D01*
X0077961Y0117660D02*
X0078000Y0117660D01*
X0078000Y0121256D02*
X0076877Y0121256D01*
X0072039Y0117660D02*
X0066378Y0117660D01*
X0064149Y0116462D02*
X0071025Y0116462D01*
X0071025Y0115263D02*
X0062950Y0115263D01*
X0061752Y0114065D02*
X0071025Y0114065D01*
X0071513Y0112866D02*
X0060553Y0112866D01*
X0059355Y0111668D02*
X0072711Y0111668D01*
X0076442Y0109270D02*
X0056957Y0109270D01*
X0058156Y0110469D02*
X0077641Y0110469D01*
X0077289Y0111668D02*
X0078000Y0111668D01*
X0117000Y0111668D02*
X0130600Y0111668D01*
X0130600Y0111823D02*
X0130600Y0108177D01*
X0133177Y0105600D01*
X0136823Y0105600D01*
X0139400Y0108177D01*
X0139400Y0111823D01*
X0136823Y0114400D01*
X0133177Y0114400D01*
X0130600Y0111823D01*
X0130600Y0110469D02*
X0117000Y0110469D01*
X0117000Y0109270D02*
X0130600Y0109270D01*
X0130705Y0108072D02*
X0117000Y0108072D01*
X0117000Y0106873D02*
X0131904Y0106873D01*
X0133103Y0105675D02*
X0117000Y0105675D01*
X0117000Y0104476D02*
X0222843Y0104476D01*
X0222843Y0103278D02*
X0117000Y0103278D01*
X0117000Y0102079D02*
X0222843Y0102079D01*
X0222843Y0100881D02*
X0117000Y0100881D01*
X0117000Y0099682D02*
X0222843Y0099682D01*
X0222843Y0098484D02*
X0117000Y0098484D01*
X0117000Y0097285D02*
X0222843Y0097285D01*
X0222843Y0096087D02*
X0117000Y0096087D01*
X0117000Y0094888D02*
X0222843Y0094888D01*
X0222843Y0093690D02*
X0117000Y0093690D01*
X0117000Y0092491D02*
X0222843Y0092491D01*
X0222516Y0091293D02*
X0217326Y0091293D01*
X0218525Y0090094D02*
X0221318Y0090094D01*
X0220474Y0088896D02*
X0219368Y0088896D01*
X0212674Y0091293D02*
X0207766Y0091293D01*
X0208965Y0090094D02*
X0211475Y0090094D01*
X0210631Y0088896D02*
X0209726Y0088896D01*
X0205542Y0088896D02*
X0204773Y0088896D01*
X0204773Y0087825D02*
X0204773Y0092009D01*
X0203265Y0092009D01*
X0200589Y0089333D01*
X0200589Y0087825D01*
X0204773Y0087825D01*
X0204773Y0090094D02*
X0205542Y0090094D01*
X0205542Y0091293D02*
X0204773Y0091293D01*
X0202549Y0091293D02*
X0117000Y0091293D01*
X0117000Y0090094D02*
X0201350Y0090094D01*
X0200589Y0088896D02*
X0117000Y0088896D01*
X0108000Y0075712D02*
X0077316Y0075712D01*
X0078515Y0074514D02*
X0108000Y0074514D01*
X0108000Y0073315D02*
X0079713Y0073315D01*
X0080912Y0072117D02*
X0108000Y0072117D01*
X0108000Y0070918D02*
X0082110Y0070918D01*
X0083309Y0069720D02*
X0108000Y0069720D01*
X0108000Y0068521D02*
X0084507Y0068521D01*
X0085706Y0067323D02*
X0108000Y0067323D01*
X0108000Y0066124D02*
X0086904Y0066124D01*
X0088103Y0064926D02*
X0108000Y0064926D01*
X0108000Y0063727D02*
X0107495Y0063727D01*
X0102505Y0063727D02*
X0089301Y0063727D01*
X0090500Y0062529D02*
X0101306Y0062529D01*
X0100600Y0061330D02*
X0091698Y0061330D01*
X0092897Y0060132D02*
X0100600Y0060132D01*
X0100600Y0058933D02*
X0094095Y0058933D01*
X0095294Y0057734D02*
X0101043Y0057734D01*
X0102241Y0056536D02*
X0096492Y0056536D01*
X0100200Y0050000D02*
X0105000Y0050000D01*
X0110000Y0055000D02*
X0115000Y0050000D01*
X0108000Y0056536D02*
X0107759Y0056536D01*
X0136897Y0105675D02*
X0143103Y0105675D01*
X0141904Y0106873D02*
X0138096Y0106873D01*
X0139295Y0108072D02*
X0140705Y0108072D01*
X0140600Y0109270D02*
X0139400Y0109270D01*
X0139400Y0110469D02*
X0140600Y0110469D01*
X0140600Y0111668D02*
X0139400Y0111668D01*
X0138356Y0112866D02*
X0141643Y0112866D01*
X0142842Y0114065D02*
X0137158Y0114065D01*
X0132842Y0114065D02*
X0117000Y0114065D01*
X0117000Y0112866D02*
X0131643Y0112866D01*
X0155000Y0110000D02*
X0155000Y0145000D01*
X0140000Y0160000D01*
X0138202Y0162005D02*
X0132662Y0162005D01*
X0133860Y0163203D02*
X0192835Y0163203D01*
X0193572Y0162466D02*
X0199814Y0162466D01*
X0204227Y0166879D01*
X0204227Y0173121D01*
X0199814Y0177534D01*
X0193572Y0177534D01*
X0189159Y0173121D01*
X0189159Y0166879D01*
X0193572Y0162466D01*
X0191636Y0164402D02*
X0153536Y0164402D01*
X0152534Y0163400D02*
X0150200Y0163400D01*
X0150200Y0169600D01*
X0150200Y0170400D01*
X0149400Y0170400D01*
X0149400Y0169600D01*
X0150200Y0169600D01*
X0156400Y0169600D01*
X0156400Y0167266D01*
X0152534Y0163400D01*
X0150200Y0164402D02*
X0149400Y0164402D01*
X0149400Y0163400D02*
X0149400Y0169600D01*
X0143200Y0169600D01*
X0143200Y0167266D01*
X0147066Y0163400D01*
X0149400Y0163400D01*
X0149400Y0165601D02*
X0150200Y0165601D01*
X0150200Y0166799D02*
X0149400Y0166799D01*
X0149400Y0167998D02*
X0150200Y0167998D01*
X0150200Y0169196D02*
X0149400Y0169196D01*
X0149400Y0170395D02*
X0141051Y0170395D01*
X0142250Y0171593D02*
X0143200Y0171593D01*
X0143200Y0169196D02*
X0139853Y0169196D01*
X0138654Y0167998D02*
X0143200Y0167998D01*
X0143667Y0166799D02*
X0137456Y0166799D01*
X0136257Y0165601D02*
X0144866Y0165601D01*
X0146064Y0164402D02*
X0135059Y0164402D01*
X0137424Y0160806D02*
X0131463Y0160806D01*
X0130265Y0159608D02*
X0137311Y0159608D01*
X0137788Y0158409D02*
X0129066Y0158409D01*
X0127868Y0157211D02*
X0139961Y0157211D01*
X0141159Y0156012D02*
X0126669Y0156012D01*
X0125471Y0154814D02*
X0142358Y0154814D01*
X0143556Y0153615D02*
X0124272Y0153615D01*
X0123074Y0152417D02*
X0144755Y0152417D01*
X0145953Y0151218D02*
X0121875Y0151218D01*
X0120677Y0150020D02*
X0147152Y0150020D01*
X0148350Y0148821D02*
X0119478Y0148821D01*
X0118280Y0147623D02*
X0149549Y0147623D01*
X0150747Y0146424D02*
X0117081Y0146424D01*
X0117000Y0145226D02*
X0151946Y0145226D01*
X0155206Y0147623D02*
X0278321Y0147623D01*
X0278321Y0148821D02*
X0154007Y0148821D01*
X0152809Y0150020D02*
X0278321Y0150020D01*
X0278321Y0151218D02*
X0151610Y0151218D01*
X0150412Y0152417D02*
X0278321Y0152417D01*
X0278321Y0153615D02*
X0149213Y0153615D01*
X0148014Y0154814D02*
X0278321Y0154814D01*
X0278321Y0156012D02*
X0146816Y0156012D01*
X0145617Y0157211D02*
X0278321Y0157211D01*
X0278321Y0158409D02*
X0144419Y0158409D01*
X0143220Y0159608D02*
X0278321Y0159608D01*
X0278321Y0160806D02*
X0142576Y0160806D01*
X0141798Y0162005D02*
X0278321Y0162005D01*
X0278321Y0163203D02*
X0237165Y0163203D01*
X0236428Y0162466D02*
X0240841Y0166879D01*
X0240841Y0173121D01*
X0236428Y0177534D01*
X0230186Y0177534D01*
X0225773Y0173121D01*
X0225773Y0166879D01*
X0230186Y0162466D01*
X0236428Y0162466D01*
X0238364Y0164402D02*
X0278321Y0164402D01*
X0278321Y0165601D02*
X0239562Y0165601D01*
X0240761Y0166799D02*
X0278321Y0166799D01*
X0278321Y0167998D02*
X0240841Y0167998D01*
X0240841Y0169196D02*
X0278321Y0169196D01*
X0278321Y0170395D02*
X0240841Y0170395D01*
X0240841Y0171593D02*
X0278321Y0171593D01*
X0278321Y0172792D02*
X0240841Y0172792D01*
X0239971Y0173990D02*
X0278321Y0173990D01*
X0278321Y0175189D02*
X0238773Y0175189D01*
X0237574Y0176387D02*
X0278321Y0176387D01*
X0278321Y0177586D02*
X0148242Y0177586D01*
X0149400Y0176387D02*
X0150200Y0176387D01*
X0150200Y0176600D02*
X0150200Y0170400D01*
X0156400Y0170400D01*
X0156400Y0172734D01*
X0152534Y0176600D01*
X0150200Y0176600D01*
X0150200Y0175189D02*
X0149400Y0175189D01*
X0149400Y0173990D02*
X0150200Y0173990D01*
X0150200Y0172792D02*
X0149400Y0172792D01*
X0149400Y0171593D02*
X0150200Y0171593D01*
X0150200Y0170395D02*
X0189159Y0170395D01*
X0189159Y0171593D02*
X0156400Y0171593D01*
X0156342Y0172792D02*
X0189159Y0172792D01*
X0190029Y0173990D02*
X0155144Y0173990D01*
X0153945Y0175189D02*
X0191227Y0175189D01*
X0192426Y0176387D02*
X0152747Y0176387D01*
X0149441Y0178784D02*
X0278321Y0178784D01*
X0278321Y0179983D02*
X0150640Y0179983D01*
X0151838Y0181181D02*
X0278321Y0181181D01*
X0278321Y0182380D02*
X0153037Y0182380D01*
X0154235Y0183578D02*
X0278321Y0183578D01*
X0278321Y0184777D02*
X0155434Y0184777D01*
X0156632Y0185975D02*
X0278321Y0185975D01*
X0278321Y0187174D02*
X0157831Y0187174D01*
X0159029Y0188372D02*
X0278321Y0188372D01*
X0278321Y0189571D02*
X0160228Y0189571D01*
X0161000Y0190769D02*
X0278321Y0190769D01*
X0278321Y0191968D02*
X0161000Y0191968D01*
X0161000Y0193166D02*
X0278321Y0193166D01*
X0278321Y0194365D02*
X0161000Y0194365D01*
X0161000Y0195563D02*
X0278321Y0195563D01*
X0278321Y0196762D02*
X0161000Y0196762D01*
X0161000Y0197960D02*
X0278321Y0197960D01*
X0276633Y0211144D02*
X0008288Y0211144D01*
X0009804Y0212342D02*
X0275117Y0212342D01*
X0252100Y0208747D02*
X0247900Y0208747D01*
X0246947Y0209700D02*
X0243053Y0209700D01*
X0240300Y0206947D01*
X0240300Y0203053D01*
X0243053Y0200300D01*
X0246947Y0200300D01*
X0249700Y0203053D01*
X0249700Y0206947D01*
X0246947Y0209700D01*
X0249098Y0207548D02*
X0250902Y0207548D01*
X0250300Y0206350D02*
X0249700Y0206350D01*
X0249700Y0205151D02*
X0250300Y0205151D01*
X0250300Y0203953D02*
X0249700Y0203953D01*
X0249401Y0202754D02*
X0250599Y0202754D01*
X0251797Y0201556D02*
X0248203Y0201556D01*
X0247004Y0200357D02*
X0252996Y0200357D01*
X0242996Y0200357D02*
X0237004Y0200357D01*
X0236947Y0200300D02*
X0239700Y0203053D01*
X0239700Y0206947D01*
X0236947Y0209700D01*
X0233053Y0209700D01*
X0230300Y0206947D01*
X0230300Y0203053D01*
X0233053Y0200300D01*
X0236947Y0200300D01*
X0238203Y0201556D02*
X0241797Y0201556D01*
X0240599Y0202754D02*
X0239401Y0202754D01*
X0239700Y0203953D02*
X0240300Y0203953D01*
X0240300Y0205151D02*
X0239700Y0205151D01*
X0239700Y0206350D02*
X0240300Y0206350D01*
X0240902Y0207548D02*
X0239098Y0207548D01*
X0237900Y0208747D02*
X0242100Y0208747D01*
X0232100Y0208747D02*
X0227900Y0208747D01*
X0226947Y0209700D02*
X0223053Y0209700D01*
X0220300Y0206947D01*
X0220300Y0203053D01*
X0223053Y0200300D01*
X0226947Y0200300D01*
X0229700Y0203053D01*
X0229700Y0206947D01*
X0226947Y0209700D01*
X0229098Y0207548D02*
X0230902Y0207548D01*
X0230300Y0206350D02*
X0229700Y0206350D01*
X0229700Y0205151D02*
X0230300Y0205151D01*
X0230300Y0203953D02*
X0229700Y0203953D01*
X0229401Y0202754D02*
X0230599Y0202754D01*
X0231797Y0201556D02*
X0228203Y0201556D01*
X0227004Y0200357D02*
X0232996Y0200357D01*
X0222996Y0200357D02*
X0217004Y0200357D01*
X0216947Y0200300D02*
X0219700Y0203053D01*
X0219700Y0206947D01*
X0216947Y0209700D01*
X0213053Y0209700D01*
X0210300Y0206947D01*
X0210300Y0203053D01*
X0213053Y0200300D01*
X0216947Y0200300D01*
X0218203Y0201556D02*
X0221797Y0201556D01*
X0220599Y0202754D02*
X0219401Y0202754D01*
X0219700Y0203953D02*
X0220300Y0203953D01*
X0220300Y0205151D02*
X0219700Y0205151D01*
X0219700Y0206350D02*
X0220300Y0206350D01*
X0220902Y0207548D02*
X0219098Y0207548D01*
X0217900Y0208747D02*
X0222100Y0208747D01*
X0212100Y0208747D02*
X0207900Y0208747D01*
X0206947Y0209700D02*
X0203053Y0209700D01*
X0200300Y0206947D01*
X0200300Y0203053D01*
X0203053Y0200300D01*
X0206947Y0200300D01*
X0209700Y0203053D01*
X0209700Y0206947D01*
X0206947Y0209700D01*
X0209098Y0207548D02*
X0210902Y0207548D01*
X0210300Y0206350D02*
X0209700Y0206350D01*
X0209700Y0205151D02*
X0210300Y0205151D01*
X0210300Y0203953D02*
X0209700Y0203953D01*
X0209401Y0202754D02*
X0210599Y0202754D01*
X0211797Y0201556D02*
X0208203Y0201556D01*
X0207004Y0200357D02*
X0212996Y0200357D01*
X0202996Y0200357D02*
X0197004Y0200357D01*
X0196947Y0200300D02*
X0199700Y0203053D01*
X0199700Y0206947D01*
X0196947Y0209700D01*
X0193053Y0209700D01*
X0190300Y0206947D01*
X0190300Y0203053D01*
X0193053Y0200300D01*
X0196947Y0200300D01*
X0198203Y0201556D02*
X0201797Y0201556D01*
X0200599Y0202754D02*
X0199401Y0202754D01*
X0199700Y0203953D02*
X0200300Y0203953D01*
X0200300Y0205151D02*
X0199700Y0205151D01*
X0199700Y0206350D02*
X0200300Y0206350D01*
X0200902Y0207548D02*
X0199098Y0207548D01*
X0197900Y0208747D02*
X0202100Y0208747D01*
X0192100Y0208747D02*
X0187900Y0208747D01*
X0186947Y0209700D02*
X0183053Y0209700D01*
X0180300Y0206947D01*
X0180300Y0203053D01*
X0183053Y0200300D01*
X0186947Y0200300D01*
X0189700Y0203053D01*
X0189700Y0206947D01*
X0186947Y0209700D01*
X0189098Y0207548D02*
X0190902Y0207548D01*
X0190300Y0206350D02*
X0189700Y0206350D01*
X0189700Y0205151D02*
X0190300Y0205151D01*
X0190300Y0203953D02*
X0189700Y0203953D01*
X0189401Y0202754D02*
X0190599Y0202754D01*
X0191797Y0201556D02*
X0188203Y0201556D01*
X0187004Y0200357D02*
X0192996Y0200357D01*
X0182996Y0200357D02*
X0171004Y0200357D01*
X0172203Y0201556D02*
X0181797Y0201556D01*
X0180599Y0202754D02*
X0173401Y0202754D01*
X0173700Y0203953D02*
X0180300Y0203953D01*
X0180300Y0205151D02*
X0173700Y0205151D01*
X0173700Y0206350D02*
X0180300Y0206350D01*
X0180902Y0207548D02*
X0173098Y0207548D01*
X0171900Y0208747D02*
X0182100Y0208747D01*
X0156100Y0208747D02*
X0151900Y0208747D01*
X0153098Y0207548D02*
X0154902Y0207548D01*
X0154300Y0206350D02*
X0153700Y0206350D01*
X0153700Y0205151D02*
X0154300Y0205151D01*
X0154300Y0203953D02*
X0153700Y0203953D01*
X0153401Y0202754D02*
X0154599Y0202754D01*
X0155797Y0201556D02*
X0152203Y0201556D01*
X0151004Y0200357D02*
X0156996Y0200357D01*
X0157000Y0199159D02*
X0151000Y0199159D01*
X0151000Y0197960D02*
X0157000Y0197960D01*
X0157000Y0196762D02*
X0151000Y0196762D01*
X0151000Y0195563D02*
X0157000Y0195563D01*
X0157000Y0194365D02*
X0151000Y0194365D01*
X0151000Y0193166D02*
X0157000Y0193166D01*
X0156968Y0191968D02*
X0151000Y0191968D01*
X0151000Y0190769D02*
X0155769Y0190769D01*
X0154571Y0189571D02*
X0151000Y0189571D01*
X0151000Y0188372D02*
X0153372Y0188372D01*
X0152174Y0187174D02*
X0151000Y0187174D01*
X0139000Y0176828D02*
X0139000Y0205000D01*
X0135797Y0201556D02*
X0132203Y0201556D01*
X0133401Y0202754D02*
X0134599Y0202754D01*
X0133700Y0203053D02*
X0130947Y0200300D01*
X0127053Y0200300D01*
X0124300Y0203053D01*
X0124300Y0206947D01*
X0127053Y0209700D01*
X0130947Y0209700D01*
X0133700Y0206947D01*
X0133700Y0203053D01*
X0133700Y0203953D02*
X0134300Y0203953D01*
X0134300Y0205151D02*
X0133700Y0205151D01*
X0133700Y0206350D02*
X0134300Y0206350D01*
X0134902Y0207548D02*
X0133098Y0207548D01*
X0131900Y0208747D02*
X0136100Y0208747D01*
X0141900Y0208747D02*
X0146100Y0208747D01*
X0144902Y0207548D02*
X0143098Y0207548D01*
X0143700Y0206350D02*
X0144300Y0206350D01*
X0136996Y0200357D02*
X0131004Y0200357D01*
X0126996Y0200357D02*
X0121004Y0200357D01*
X0120947Y0200300D02*
X0123700Y0203053D01*
X0123700Y0206947D01*
X0120947Y0209700D01*
X0117053Y0209700D01*
X0114300Y0206947D01*
X0114300Y0203053D01*
X0117053Y0200300D01*
X0120947Y0200300D01*
X0122203Y0201556D02*
X0125797Y0201556D01*
X0124599Y0202754D02*
X0123401Y0202754D01*
X0123700Y0203953D02*
X0124300Y0203953D01*
X0124300Y0205151D02*
X0123700Y0205151D01*
X0123700Y0206350D02*
X0124300Y0206350D01*
X0124902Y0207548D02*
X0123098Y0207548D01*
X0121900Y0208747D02*
X0126100Y0208747D01*
X0116100Y0208747D02*
X0112183Y0208747D01*
X0111030Y0209900D02*
X0109384Y0209900D01*
X0109384Y0205384D01*
X0113900Y0205384D01*
X0113900Y0207030D01*
X0111030Y0209900D01*
X0109384Y0208747D02*
X0108616Y0208747D01*
X0108616Y0209900D02*
X0106970Y0209900D01*
X0104100Y0207030D01*
X0104100Y0205384D01*
X0108616Y0205384D01*
X0108616Y0204616D01*
X0109384Y0204616D01*
X0109384Y0200100D01*
X0111030Y0200100D01*
X0113900Y0202970D01*
X0113900Y0204616D01*
X0109384Y0204616D01*
X0109384Y0205384D01*
X0108616Y0205384D01*
X0108616Y0209900D01*
X0108616Y0207548D02*
X0109384Y0207548D01*
X0109384Y0206350D02*
X0108616Y0206350D01*
X0108616Y0205151D02*
X0103700Y0205151D01*
X0104100Y0204616D02*
X0104100Y0202970D01*
X0106970Y0200100D01*
X0108616Y0200100D01*
X0108616Y0204616D01*
X0104100Y0204616D01*
X0104100Y0203953D02*
X0103700Y0203953D01*
X0103700Y0203053D02*
X0100947Y0200300D01*
X0097053Y0200300D01*
X0094300Y0203053D01*
X0094300Y0206947D01*
X0097053Y0209700D01*
X0100947Y0209700D01*
X0103700Y0206947D01*
X0103700Y0203053D01*
X0103401Y0202754D02*
X0104316Y0202754D01*
X0105514Y0201556D02*
X0102203Y0201556D01*
X0101004Y0200357D02*
X0106713Y0200357D01*
X0108616Y0200357D02*
X0109384Y0200357D01*
X0109384Y0201556D02*
X0108616Y0201556D01*
X0108616Y0202754D02*
X0109384Y0202754D01*
X0109384Y0203953D02*
X0108616Y0203953D01*
X0109384Y0205151D02*
X0114300Y0205151D01*
X0114300Y0203953D02*
X0113900Y0203953D01*
X0113684Y0202754D02*
X0114599Y0202754D01*
X0115797Y0201556D02*
X0112485Y0201556D01*
X0111287Y0200357D02*
X0116996Y0200357D01*
X0114300Y0206350D02*
X0113900Y0206350D01*
X0113381Y0207548D02*
X0114902Y0207548D01*
X0105817Y0208747D02*
X0101900Y0208747D01*
X0103098Y0207548D02*
X0104619Y0207548D01*
X0104100Y0206350D02*
X0103700Y0206350D01*
X0096100Y0208747D02*
X0091900Y0208747D01*
X0090947Y0209700D02*
X0087053Y0209700D01*
X0084300Y0206947D01*
X0084300Y0203053D01*
X0087053Y0200300D01*
X0090947Y0200300D01*
X0093700Y0203053D01*
X0093700Y0206947D01*
X0090947Y0209700D01*
X0093098Y0207548D02*
X0094902Y0207548D01*
X0094300Y0206350D02*
X0093700Y0206350D01*
X0093700Y0205151D02*
X0094300Y0205151D01*
X0094300Y0203953D02*
X0093700Y0203953D01*
X0093401Y0202754D02*
X0094599Y0202754D01*
X0095797Y0201556D02*
X0092203Y0201556D01*
X0091004Y0200357D02*
X0096996Y0200357D01*
X0086996Y0200357D02*
X0081004Y0200357D01*
X0082203Y0201556D02*
X0085797Y0201556D01*
X0084599Y0202754D02*
X0083401Y0202754D01*
X0083700Y0203953D02*
X0084300Y0203953D01*
X0084300Y0205151D02*
X0083700Y0205151D01*
X0083700Y0206350D02*
X0084300Y0206350D01*
X0084902Y0207548D02*
X0083098Y0207548D01*
X0081900Y0208747D02*
X0086100Y0208747D01*
X0117536Y0176387D02*
X0006600Y0176387D01*
X0006600Y0175189D02*
X0116338Y0175189D01*
X0115139Y0173990D02*
X0006600Y0173990D01*
X0006600Y0172792D02*
X0113941Y0172792D01*
X0113800Y0171593D02*
X0006600Y0171593D01*
X0006600Y0170395D02*
X0113800Y0170395D01*
X0113800Y0169196D02*
X0006600Y0169196D01*
X0006600Y0167998D02*
X0113800Y0167998D01*
X0114350Y0166799D02*
X0006600Y0166799D01*
X0006600Y0165601D02*
X0115549Y0165601D01*
X0116747Y0164402D02*
X0006600Y0164402D01*
X0154734Y0165601D02*
X0190438Y0165601D01*
X0189239Y0166799D02*
X0155933Y0166799D01*
X0156400Y0167998D02*
X0189159Y0167998D01*
X0189159Y0169196D02*
X0156400Y0169196D01*
X0156404Y0146424D02*
X0202680Y0146424D01*
X0201482Y0145226D02*
X0157000Y0145226D01*
X0157000Y0144027D02*
X0200589Y0144027D01*
X0200589Y0142829D02*
X0157000Y0142829D01*
X0157000Y0141630D02*
X0200589Y0141630D01*
X0200706Y0140432D02*
X0157000Y0140432D01*
X0157000Y0139233D02*
X0201904Y0139233D01*
X0203103Y0138035D02*
X0157000Y0138035D01*
X0157000Y0122454D02*
X0193493Y0122454D01*
X0192294Y0121256D02*
X0157000Y0121256D01*
X0157000Y0120057D02*
X0191096Y0120057D01*
X0189897Y0118859D02*
X0157000Y0118859D01*
X0157000Y0117660D02*
X0189159Y0117660D01*
X0189159Y0116462D02*
X0157000Y0116462D01*
X0168096Y0106873D02*
X0222843Y0106873D01*
X0222843Y0105675D02*
X0166897Y0105675D01*
X0226843Y0108072D02*
X0229581Y0108072D01*
X0228382Y0109270D02*
X0226843Y0109270D01*
X0226843Y0110469D02*
X0227184Y0110469D01*
X0229449Y0163203D02*
X0200551Y0163203D01*
X0201749Y0164402D02*
X0228251Y0164402D01*
X0227052Y0165601D02*
X0202948Y0165601D01*
X0204146Y0166799D02*
X0225854Y0166799D01*
X0225773Y0167998D02*
X0204227Y0167998D01*
X0204227Y0169196D02*
X0225773Y0169196D01*
X0225773Y0170395D02*
X0204227Y0170395D01*
X0204227Y0171593D02*
X0225773Y0171593D01*
X0225773Y0172792D02*
X0204227Y0172792D01*
X0203357Y0173990D02*
X0226643Y0173990D01*
X0227841Y0175189D02*
X0202159Y0175189D01*
X0200960Y0176387D02*
X0229040Y0176387D01*
D17*
X0140000Y0160000D03*
X0080000Y0145000D03*
X0065000Y0120000D03*
X0050000Y0115000D03*
X0050000Y0100000D03*
X0060000Y0100000D03*
X0050000Y0085000D03*
X0060000Y0040000D03*
X0105000Y0080000D03*
X0029000Y0132000D03*
D18*
X0015000Y0105000D02*
X0050000Y0105000D01*
X0065000Y0120000D01*
X0160000Y0040000D02*
X0177100Y0022900D01*
X0170400Y0019600D02*
X0226905Y0019600D01*
X0170400Y0019600D02*
X0160000Y0030000D01*
M02*
