G75*
%MOIN*%
%OFA0B0*%
%FSLAX25Y25*%
%IPPOS*%
%LPD*%
%AMOC8*
5,1,8,0,0,1.08239X$1,22.5*
%
%ADD10C,0.00600*%
%ADD11C,0.00500*%
%ADD12C,0.00400*%
%ADD13C,0.00300*%
D10*
X0100000Y0037500D02*
X0102500Y0035000D01*
X0107500Y0035000D01*
X0110000Y0037500D01*
X0112500Y0035000D01*
X0117500Y0035000D01*
X0120000Y0037500D01*
X0122500Y0035000D01*
X0127500Y0035000D01*
X0130000Y0037500D01*
X0130000Y0042500D01*
X0127500Y0045000D01*
X0122500Y0045000D01*
X0120000Y0047500D01*
X0117500Y0045000D01*
X0112500Y0045000D01*
X0110000Y0047500D01*
X0107500Y0045000D01*
X0102500Y0045000D01*
X0100000Y0047500D01*
X0100000Y0052500D01*
X0102500Y0055000D01*
X0107500Y0055000D01*
X0110000Y0057500D01*
X0112500Y0055000D01*
X0117500Y0055000D01*
X0120000Y0057500D01*
X0122500Y0055000D01*
X0127500Y0055000D01*
X0130000Y0057500D01*
X0130000Y0062500D01*
X0127500Y0065000D01*
X0122500Y0065000D01*
X0120000Y0062500D01*
X0120000Y0057500D01*
X0117500Y0055000D02*
X0120000Y0052500D01*
X0122500Y0055000D01*
X0127500Y0055000D01*
X0130000Y0052500D01*
X0130000Y0047500D01*
X0127500Y0045000D01*
X0122500Y0045000D01*
X0120000Y0042500D01*
X0120000Y0037500D01*
X0120000Y0042500D02*
X0117500Y0045000D01*
X0112500Y0045000D01*
X0110000Y0042500D01*
X0110000Y0037500D01*
X0110000Y0042500D02*
X0107500Y0045000D01*
X0102500Y0045000D01*
X0100000Y0042500D01*
X0100000Y0037500D01*
X0110000Y0047500D02*
X0110000Y0052500D01*
X0112500Y0055000D01*
X0117500Y0055000D01*
X0120000Y0052500D02*
X0120000Y0047500D01*
X0110000Y0052500D02*
X0107500Y0055000D01*
X0102500Y0055000D01*
X0100000Y0057500D01*
X0100000Y0062500D01*
X0102500Y0065000D01*
X0107500Y0065000D01*
X0110000Y0062500D01*
X0112500Y0065000D01*
X0117500Y0065000D01*
X0120000Y0062500D01*
X0110000Y0062500D02*
X0110000Y0057500D01*
X0145000Y0052500D02*
X0145000Y0047500D01*
X0147500Y0045000D01*
X0162500Y0045000D01*
X0165000Y0042500D01*
X0165000Y0037500D01*
X0162500Y0035000D01*
X0165000Y0032500D01*
X0165000Y0027500D01*
X0162500Y0025000D01*
X0147500Y0025000D01*
X0145000Y0027500D01*
X0145000Y0032500D01*
X0147500Y0035000D01*
X0162500Y0035000D01*
X0162500Y0045000D02*
X0165000Y0047500D01*
X0165000Y0052500D01*
X0162500Y0055000D01*
X0147500Y0055000D01*
X0145000Y0052500D01*
X0147500Y0045000D02*
X0145000Y0042500D01*
X0145000Y0037500D01*
X0147500Y0035000D01*
X0147500Y0105000D02*
X0142500Y0105000D01*
X0140000Y0107500D01*
X0137500Y0105000D01*
X0132500Y0105000D01*
X0130000Y0107500D01*
X0130000Y0112500D01*
X0132500Y0115000D01*
X0137500Y0115000D01*
X0140000Y0112500D01*
X0142500Y0115000D01*
X0147500Y0115000D01*
X0150000Y0112500D01*
X0152500Y0115000D01*
X0157500Y0115000D01*
X0160000Y0112500D01*
X0162500Y0115000D01*
X0167500Y0115000D01*
X0170000Y0112500D01*
X0170000Y0107500D01*
X0167500Y0105000D01*
X0162500Y0105000D01*
X0160000Y0107500D01*
X0157500Y0105000D01*
X0152500Y0105000D01*
X0150000Y0107500D01*
X0150000Y0112500D01*
X0130315Y0110000D02*
X0130321Y0110483D01*
X0130339Y0110966D01*
X0130368Y0111448D01*
X0130410Y0111929D01*
X0130463Y0112410D01*
X0130528Y0112888D01*
X0130605Y0113365D01*
X0130693Y0113840D01*
X0130793Y0114313D01*
X0130905Y0114783D01*
X0131028Y0115250D01*
X0131163Y0115714D01*
X0131309Y0116175D01*
X0131466Y0116632D01*
X0131634Y0117085D01*
X0131813Y0117533D01*
X0132004Y0117977D01*
X0132205Y0118416D01*
X0132417Y0118851D01*
X0132639Y0119279D01*
X0132872Y0119703D01*
X0133116Y0120120D01*
X0133369Y0120531D01*
X0133633Y0120936D01*
X0133906Y0121335D01*
X0134189Y0121726D01*
X0134481Y0122111D01*
X0134783Y0122488D01*
X0135094Y0122858D01*
X0135414Y0123220D01*
X0135743Y0123574D01*
X0136081Y0123919D01*
X0136426Y0124257D01*
X0136780Y0124586D01*
X0137142Y0124906D01*
X0137512Y0125217D01*
X0137889Y0125519D01*
X0138274Y0125811D01*
X0138665Y0126094D01*
X0139064Y0126367D01*
X0139469Y0126631D01*
X0139880Y0126884D01*
X0140297Y0127128D01*
X0140721Y0127361D01*
X0141149Y0127583D01*
X0141584Y0127795D01*
X0142023Y0127996D01*
X0142467Y0128187D01*
X0142915Y0128366D01*
X0143368Y0128534D01*
X0143825Y0128691D01*
X0144286Y0128837D01*
X0144750Y0128972D01*
X0145217Y0129095D01*
X0145687Y0129207D01*
X0146160Y0129307D01*
X0146635Y0129395D01*
X0147112Y0129472D01*
X0147590Y0129537D01*
X0148071Y0129590D01*
X0148552Y0129632D01*
X0149034Y0129661D01*
X0149517Y0129679D01*
X0150000Y0129685D01*
X0150483Y0129679D01*
X0150966Y0129661D01*
X0151448Y0129632D01*
X0151929Y0129590D01*
X0152410Y0129537D01*
X0152888Y0129472D01*
X0153365Y0129395D01*
X0153840Y0129307D01*
X0154313Y0129207D01*
X0154783Y0129095D01*
X0155250Y0128972D01*
X0155714Y0128837D01*
X0156175Y0128691D01*
X0156632Y0128534D01*
X0157085Y0128366D01*
X0157533Y0128187D01*
X0157977Y0127996D01*
X0158416Y0127795D01*
X0158851Y0127583D01*
X0159279Y0127361D01*
X0159703Y0127128D01*
X0160120Y0126884D01*
X0160531Y0126631D01*
X0160936Y0126367D01*
X0161335Y0126094D01*
X0161726Y0125811D01*
X0162111Y0125519D01*
X0162488Y0125217D01*
X0162858Y0124906D01*
X0163220Y0124586D01*
X0163574Y0124257D01*
X0163919Y0123919D01*
X0164257Y0123574D01*
X0164586Y0123220D01*
X0164906Y0122858D01*
X0165217Y0122488D01*
X0165519Y0122111D01*
X0165811Y0121726D01*
X0166094Y0121335D01*
X0166367Y0120936D01*
X0166631Y0120531D01*
X0166884Y0120120D01*
X0167128Y0119703D01*
X0167361Y0119279D01*
X0167583Y0118851D01*
X0167795Y0118416D01*
X0167996Y0117977D01*
X0168187Y0117533D01*
X0168366Y0117085D01*
X0168534Y0116632D01*
X0168691Y0116175D01*
X0168837Y0115714D01*
X0168972Y0115250D01*
X0169095Y0114783D01*
X0169207Y0114313D01*
X0169307Y0113840D01*
X0169395Y0113365D01*
X0169472Y0112888D01*
X0169537Y0112410D01*
X0169590Y0111929D01*
X0169632Y0111448D01*
X0169661Y0110966D01*
X0169679Y0110483D01*
X0169685Y0110000D01*
X0169679Y0109517D01*
X0169661Y0109034D01*
X0169632Y0108552D01*
X0169590Y0108071D01*
X0169537Y0107590D01*
X0169472Y0107112D01*
X0169395Y0106635D01*
X0169307Y0106160D01*
X0169207Y0105687D01*
X0169095Y0105217D01*
X0168972Y0104750D01*
X0168837Y0104286D01*
X0168691Y0103825D01*
X0168534Y0103368D01*
X0168366Y0102915D01*
X0168187Y0102467D01*
X0167996Y0102023D01*
X0167795Y0101584D01*
X0167583Y0101149D01*
X0167361Y0100721D01*
X0167128Y0100297D01*
X0166884Y0099880D01*
X0166631Y0099469D01*
X0166367Y0099064D01*
X0166094Y0098665D01*
X0165811Y0098274D01*
X0165519Y0097889D01*
X0165217Y0097512D01*
X0164906Y0097142D01*
X0164586Y0096780D01*
X0164257Y0096426D01*
X0163919Y0096081D01*
X0163574Y0095743D01*
X0163220Y0095414D01*
X0162858Y0095094D01*
X0162488Y0094783D01*
X0162111Y0094481D01*
X0161726Y0094189D01*
X0161335Y0093906D01*
X0160936Y0093633D01*
X0160531Y0093369D01*
X0160120Y0093116D01*
X0159703Y0092872D01*
X0159279Y0092639D01*
X0158851Y0092417D01*
X0158416Y0092205D01*
X0157977Y0092004D01*
X0157533Y0091813D01*
X0157085Y0091634D01*
X0156632Y0091466D01*
X0156175Y0091309D01*
X0155714Y0091163D01*
X0155250Y0091028D01*
X0154783Y0090905D01*
X0154313Y0090793D01*
X0153840Y0090693D01*
X0153365Y0090605D01*
X0152888Y0090528D01*
X0152410Y0090463D01*
X0151929Y0090410D01*
X0151448Y0090368D01*
X0150966Y0090339D01*
X0150483Y0090321D01*
X0150000Y0090315D01*
X0149517Y0090321D01*
X0149034Y0090339D01*
X0148552Y0090368D01*
X0148071Y0090410D01*
X0147590Y0090463D01*
X0147112Y0090528D01*
X0146635Y0090605D01*
X0146160Y0090693D01*
X0145687Y0090793D01*
X0145217Y0090905D01*
X0144750Y0091028D01*
X0144286Y0091163D01*
X0143825Y0091309D01*
X0143368Y0091466D01*
X0142915Y0091634D01*
X0142467Y0091813D01*
X0142023Y0092004D01*
X0141584Y0092205D01*
X0141149Y0092417D01*
X0140721Y0092639D01*
X0140297Y0092872D01*
X0139880Y0093116D01*
X0139469Y0093369D01*
X0139064Y0093633D01*
X0138665Y0093906D01*
X0138274Y0094189D01*
X0137889Y0094481D01*
X0137512Y0094783D01*
X0137142Y0095094D01*
X0136780Y0095414D01*
X0136426Y0095743D01*
X0136081Y0096081D01*
X0135743Y0096426D01*
X0135414Y0096780D01*
X0135094Y0097142D01*
X0134783Y0097512D01*
X0134481Y0097889D01*
X0134189Y0098274D01*
X0133906Y0098665D01*
X0133633Y0099064D01*
X0133369Y0099469D01*
X0133116Y0099880D01*
X0132872Y0100297D01*
X0132639Y0100721D01*
X0132417Y0101149D01*
X0132205Y0101584D01*
X0132004Y0102023D01*
X0131813Y0102467D01*
X0131634Y0102915D01*
X0131466Y0103368D01*
X0131309Y0103825D01*
X0131163Y0104286D01*
X0131028Y0104750D01*
X0130905Y0105217D01*
X0130793Y0105687D01*
X0130693Y0106160D01*
X0130605Y0106635D01*
X0130528Y0107112D01*
X0130463Y0107590D01*
X0130410Y0108071D01*
X0130368Y0108552D01*
X0130339Y0109034D01*
X0130321Y0109517D01*
X0130315Y0110000D01*
X0140000Y0107500D02*
X0140000Y0112500D01*
X0147500Y0105000D02*
X0150000Y0107500D01*
X0160000Y0107500D02*
X0160000Y0112500D01*
X0130000Y0170000D02*
X0130002Y0170141D01*
X0130008Y0170282D01*
X0130018Y0170422D01*
X0130032Y0170562D01*
X0130050Y0170702D01*
X0130071Y0170841D01*
X0130097Y0170980D01*
X0130126Y0171118D01*
X0130160Y0171254D01*
X0130197Y0171390D01*
X0130238Y0171525D01*
X0130283Y0171659D01*
X0130332Y0171791D01*
X0130384Y0171922D01*
X0130440Y0172051D01*
X0130500Y0172178D01*
X0130563Y0172304D01*
X0130629Y0172428D01*
X0130700Y0172551D01*
X0130773Y0172671D01*
X0130850Y0172789D01*
X0130930Y0172905D01*
X0131014Y0173018D01*
X0131100Y0173129D01*
X0131190Y0173238D01*
X0131283Y0173344D01*
X0131378Y0173447D01*
X0131477Y0173548D01*
X0131578Y0173646D01*
X0131682Y0173741D01*
X0131789Y0173833D01*
X0131898Y0173922D01*
X0132010Y0174007D01*
X0132124Y0174090D01*
X0132240Y0174170D01*
X0132359Y0174246D01*
X0132480Y0174318D01*
X0132602Y0174388D01*
X0132727Y0174453D01*
X0132853Y0174516D01*
X0132981Y0174574D01*
X0133111Y0174629D01*
X0133242Y0174681D01*
X0133375Y0174728D01*
X0133509Y0174772D01*
X0133644Y0174813D01*
X0133780Y0174849D01*
X0133917Y0174881D01*
X0134055Y0174910D01*
X0134193Y0174935D01*
X0134333Y0174955D01*
X0134473Y0174972D01*
X0134613Y0174985D01*
X0134754Y0174994D01*
X0134894Y0174999D01*
X0135035Y0175000D01*
X0135176Y0174997D01*
X0135317Y0174990D01*
X0135457Y0174979D01*
X0135597Y0174964D01*
X0135737Y0174945D01*
X0135876Y0174923D01*
X0136014Y0174896D01*
X0136152Y0174866D01*
X0136288Y0174831D01*
X0136424Y0174793D01*
X0136558Y0174751D01*
X0136692Y0174705D01*
X0136824Y0174656D01*
X0136954Y0174602D01*
X0137083Y0174545D01*
X0137210Y0174485D01*
X0137336Y0174421D01*
X0137459Y0174353D01*
X0137581Y0174282D01*
X0137701Y0174208D01*
X0137818Y0174130D01*
X0137933Y0174049D01*
X0138046Y0173965D01*
X0138157Y0173878D01*
X0138265Y0173787D01*
X0138370Y0173694D01*
X0138473Y0173597D01*
X0138573Y0173498D01*
X0138670Y0173396D01*
X0138764Y0173291D01*
X0138855Y0173184D01*
X0138943Y0173074D01*
X0139028Y0172962D01*
X0139110Y0172847D01*
X0139189Y0172730D01*
X0139264Y0172611D01*
X0139336Y0172490D01*
X0139404Y0172367D01*
X0139469Y0172242D01*
X0139531Y0172115D01*
X0139588Y0171986D01*
X0139643Y0171856D01*
X0139693Y0171725D01*
X0139740Y0171592D01*
X0139783Y0171458D01*
X0139822Y0171322D01*
X0139857Y0171186D01*
X0139889Y0171049D01*
X0139916Y0170911D01*
X0139940Y0170772D01*
X0139960Y0170632D01*
X0139976Y0170492D01*
X0139988Y0170352D01*
X0139996Y0170211D01*
X0140000Y0170070D01*
X0140000Y0169930D01*
X0139996Y0169789D01*
X0139988Y0169648D01*
X0139976Y0169508D01*
X0139960Y0169368D01*
X0139940Y0169228D01*
X0139916Y0169089D01*
X0139889Y0168951D01*
X0139857Y0168814D01*
X0139822Y0168678D01*
X0139783Y0168542D01*
X0139740Y0168408D01*
X0139693Y0168275D01*
X0139643Y0168144D01*
X0139588Y0168014D01*
X0139531Y0167885D01*
X0139469Y0167758D01*
X0139404Y0167633D01*
X0139336Y0167510D01*
X0139264Y0167389D01*
X0139189Y0167270D01*
X0139110Y0167153D01*
X0139028Y0167038D01*
X0138943Y0166926D01*
X0138855Y0166816D01*
X0138764Y0166709D01*
X0138670Y0166604D01*
X0138573Y0166502D01*
X0138473Y0166403D01*
X0138370Y0166306D01*
X0138265Y0166213D01*
X0138157Y0166122D01*
X0138046Y0166035D01*
X0137933Y0165951D01*
X0137818Y0165870D01*
X0137701Y0165792D01*
X0137581Y0165718D01*
X0137459Y0165647D01*
X0137336Y0165579D01*
X0137210Y0165515D01*
X0137083Y0165455D01*
X0136954Y0165398D01*
X0136824Y0165344D01*
X0136692Y0165295D01*
X0136558Y0165249D01*
X0136424Y0165207D01*
X0136288Y0165169D01*
X0136152Y0165134D01*
X0136014Y0165104D01*
X0135876Y0165077D01*
X0135737Y0165055D01*
X0135597Y0165036D01*
X0135457Y0165021D01*
X0135317Y0165010D01*
X0135176Y0165003D01*
X0135035Y0165000D01*
X0134894Y0165001D01*
X0134754Y0165006D01*
X0134613Y0165015D01*
X0134473Y0165028D01*
X0134333Y0165045D01*
X0134193Y0165065D01*
X0134055Y0165090D01*
X0133917Y0165119D01*
X0133780Y0165151D01*
X0133644Y0165187D01*
X0133509Y0165228D01*
X0133375Y0165272D01*
X0133242Y0165319D01*
X0133111Y0165371D01*
X0132981Y0165426D01*
X0132853Y0165484D01*
X0132727Y0165547D01*
X0132602Y0165612D01*
X0132480Y0165682D01*
X0132359Y0165754D01*
X0132240Y0165830D01*
X0132124Y0165910D01*
X0132010Y0165993D01*
X0131898Y0166078D01*
X0131789Y0166167D01*
X0131682Y0166259D01*
X0131578Y0166354D01*
X0131477Y0166452D01*
X0131378Y0166553D01*
X0131283Y0166656D01*
X0131190Y0166762D01*
X0131100Y0166871D01*
X0131014Y0166982D01*
X0130930Y0167095D01*
X0130850Y0167211D01*
X0130773Y0167329D01*
X0130700Y0167449D01*
X0130629Y0167572D01*
X0130563Y0167696D01*
X0130500Y0167822D01*
X0130440Y0167949D01*
X0130384Y0168078D01*
X0130332Y0168209D01*
X0130283Y0168341D01*
X0130238Y0168475D01*
X0130197Y0168610D01*
X0130160Y0168746D01*
X0130126Y0168882D01*
X0130097Y0169020D01*
X0130071Y0169159D01*
X0130050Y0169298D01*
X0130032Y0169438D01*
X0130018Y0169578D01*
X0130008Y0169718D01*
X0130002Y0169859D01*
X0130000Y0170000D01*
X0111000Y0170000D02*
X0111007Y0170589D01*
X0111029Y0171178D01*
X0111065Y0171766D01*
X0111116Y0172352D01*
X0111180Y0172938D01*
X0111260Y0173522D01*
X0111353Y0174103D01*
X0111461Y0174682D01*
X0111583Y0175258D01*
X0111719Y0175832D01*
X0111869Y0176401D01*
X0112033Y0176967D01*
X0112211Y0177528D01*
X0112403Y0178085D01*
X0112608Y0178637D01*
X0112827Y0179184D01*
X0113059Y0179726D01*
X0113304Y0180261D01*
X0113563Y0180791D01*
X0113834Y0181314D01*
X0114118Y0181830D01*
X0114415Y0182338D01*
X0114724Y0182840D01*
X0115045Y0183334D01*
X0115378Y0183819D01*
X0115723Y0184297D01*
X0116080Y0184766D01*
X0116448Y0185225D01*
X0116827Y0185676D01*
X0117217Y0186117D01*
X0117618Y0186549D01*
X0118029Y0186971D01*
X0118451Y0187382D01*
X0118883Y0187783D01*
X0119324Y0188173D01*
X0119775Y0188552D01*
X0120234Y0188920D01*
X0120703Y0189277D01*
X0121181Y0189622D01*
X0121666Y0189955D01*
X0122160Y0190276D01*
X0122662Y0190585D01*
X0123170Y0190882D01*
X0123686Y0191166D01*
X0124209Y0191437D01*
X0124739Y0191696D01*
X0125274Y0191941D01*
X0125816Y0192173D01*
X0126363Y0192392D01*
X0126915Y0192597D01*
X0127472Y0192789D01*
X0128033Y0192967D01*
X0128599Y0193131D01*
X0129168Y0193281D01*
X0129742Y0193417D01*
X0130318Y0193539D01*
X0130897Y0193647D01*
X0131478Y0193740D01*
X0132062Y0193820D01*
X0132648Y0193884D01*
X0133234Y0193935D01*
X0133822Y0193971D01*
X0134411Y0193993D01*
X0135000Y0194000D01*
X0135589Y0193993D01*
X0136178Y0193971D01*
X0136766Y0193935D01*
X0137352Y0193884D01*
X0137938Y0193820D01*
X0138522Y0193740D01*
X0139103Y0193647D01*
X0139682Y0193539D01*
X0140258Y0193417D01*
X0140832Y0193281D01*
X0141401Y0193131D01*
X0141967Y0192967D01*
X0142528Y0192789D01*
X0143085Y0192597D01*
X0143637Y0192392D01*
X0144184Y0192173D01*
X0144726Y0191941D01*
X0145261Y0191696D01*
X0145791Y0191437D01*
X0146314Y0191166D01*
X0146830Y0190882D01*
X0147338Y0190585D01*
X0147840Y0190276D01*
X0148334Y0189955D01*
X0148819Y0189622D01*
X0149297Y0189277D01*
X0149766Y0188920D01*
X0150225Y0188552D01*
X0150676Y0188173D01*
X0151117Y0187783D01*
X0151549Y0187382D01*
X0151971Y0186971D01*
X0152382Y0186549D01*
X0152783Y0186117D01*
X0153173Y0185676D01*
X0153552Y0185225D01*
X0153920Y0184766D01*
X0154277Y0184297D01*
X0154622Y0183819D01*
X0154955Y0183334D01*
X0155276Y0182840D01*
X0155585Y0182338D01*
X0155882Y0181830D01*
X0156166Y0181314D01*
X0156437Y0180791D01*
X0156696Y0180261D01*
X0156941Y0179726D01*
X0157173Y0179184D01*
X0157392Y0178637D01*
X0157597Y0178085D01*
X0157789Y0177528D01*
X0157967Y0176967D01*
X0158131Y0176401D01*
X0158281Y0175832D01*
X0158417Y0175258D01*
X0158539Y0174682D01*
X0158647Y0174103D01*
X0158740Y0173522D01*
X0158820Y0172938D01*
X0158884Y0172352D01*
X0158935Y0171766D01*
X0158971Y0171178D01*
X0158993Y0170589D01*
X0159000Y0170000D01*
X0158993Y0169411D01*
X0158971Y0168822D01*
X0158935Y0168234D01*
X0158884Y0167648D01*
X0158820Y0167062D01*
X0158740Y0166478D01*
X0158647Y0165897D01*
X0158539Y0165318D01*
X0158417Y0164742D01*
X0158281Y0164168D01*
X0158131Y0163599D01*
X0157967Y0163033D01*
X0157789Y0162472D01*
X0157597Y0161915D01*
X0157392Y0161363D01*
X0157173Y0160816D01*
X0156941Y0160274D01*
X0156696Y0159739D01*
X0156437Y0159209D01*
X0156166Y0158686D01*
X0155882Y0158170D01*
X0155585Y0157662D01*
X0155276Y0157160D01*
X0154955Y0156666D01*
X0154622Y0156181D01*
X0154277Y0155703D01*
X0153920Y0155234D01*
X0153552Y0154775D01*
X0153173Y0154324D01*
X0152783Y0153883D01*
X0152382Y0153451D01*
X0151971Y0153029D01*
X0151549Y0152618D01*
X0151117Y0152217D01*
X0150676Y0151827D01*
X0150225Y0151448D01*
X0149766Y0151080D01*
X0149297Y0150723D01*
X0148819Y0150378D01*
X0148334Y0150045D01*
X0147840Y0149724D01*
X0147338Y0149415D01*
X0146830Y0149118D01*
X0146314Y0148834D01*
X0145791Y0148563D01*
X0145261Y0148304D01*
X0144726Y0148059D01*
X0144184Y0147827D01*
X0143637Y0147608D01*
X0143085Y0147403D01*
X0142528Y0147211D01*
X0141967Y0147033D01*
X0141401Y0146869D01*
X0140832Y0146719D01*
X0140258Y0146583D01*
X0139682Y0146461D01*
X0139103Y0146353D01*
X0138522Y0146260D01*
X0137938Y0146180D01*
X0137352Y0146116D01*
X0136766Y0146065D01*
X0136178Y0146029D01*
X0135589Y0146007D01*
X0135000Y0146000D01*
X0134411Y0146007D01*
X0133822Y0146029D01*
X0133234Y0146065D01*
X0132648Y0146116D01*
X0132062Y0146180D01*
X0131478Y0146260D01*
X0130897Y0146353D01*
X0130318Y0146461D01*
X0129742Y0146583D01*
X0129168Y0146719D01*
X0128599Y0146869D01*
X0128033Y0147033D01*
X0127472Y0147211D01*
X0126915Y0147403D01*
X0126363Y0147608D01*
X0125816Y0147827D01*
X0125274Y0148059D01*
X0124739Y0148304D01*
X0124209Y0148563D01*
X0123686Y0148834D01*
X0123170Y0149118D01*
X0122662Y0149415D01*
X0122160Y0149724D01*
X0121666Y0150045D01*
X0121181Y0150378D01*
X0120703Y0150723D01*
X0120234Y0151080D01*
X0119775Y0151448D01*
X0119324Y0151827D01*
X0118883Y0152217D01*
X0118451Y0152618D01*
X0118029Y0153029D01*
X0117618Y0153451D01*
X0117217Y0153883D01*
X0116827Y0154324D01*
X0116448Y0154775D01*
X0116080Y0155234D01*
X0115723Y0155703D01*
X0115378Y0156181D01*
X0115045Y0156666D01*
X0114724Y0157160D01*
X0114415Y0157662D01*
X0114118Y0158170D01*
X0113834Y0158686D01*
X0113563Y0159209D01*
X0113304Y0159739D01*
X0113059Y0160274D01*
X0112827Y0160816D01*
X0112608Y0161363D01*
X0112403Y0161915D01*
X0112211Y0162472D01*
X0112033Y0163033D01*
X0111869Y0163599D01*
X0111719Y0164168D01*
X0111583Y0164742D01*
X0111461Y0165318D01*
X0111353Y0165897D01*
X0111260Y0166478D01*
X0111180Y0167062D01*
X0111116Y0167648D01*
X0111065Y0168234D01*
X0111029Y0168822D01*
X0111007Y0169411D01*
X0111000Y0170000D01*
D11*
X0195315Y0179843D02*
X0195315Y0189685D01*
X0199252Y0191654D02*
X0230748Y0191654D01*
X0234685Y0189685D02*
X0234685Y0177874D01*
X0203189Y0170000D02*
X0203193Y0170290D01*
X0203203Y0170580D01*
X0203221Y0170869D01*
X0203246Y0171158D01*
X0203278Y0171446D01*
X0203317Y0171733D01*
X0203363Y0172019D01*
X0203416Y0172304D01*
X0203476Y0172588D01*
X0203543Y0172870D01*
X0203617Y0173150D01*
X0203698Y0173429D01*
X0203785Y0173705D01*
X0203879Y0173979D01*
X0203980Y0174251D01*
X0204088Y0174520D01*
X0204202Y0174786D01*
X0204323Y0175050D01*
X0204450Y0175310D01*
X0204584Y0175568D01*
X0204723Y0175822D01*
X0204869Y0176072D01*
X0205021Y0176319D01*
X0205180Y0176562D01*
X0205344Y0176801D01*
X0205513Y0177036D01*
X0205689Y0177267D01*
X0205870Y0177493D01*
X0206057Y0177715D01*
X0206249Y0177932D01*
X0206446Y0178144D01*
X0206648Y0178352D01*
X0206856Y0178554D01*
X0207068Y0178751D01*
X0207285Y0178943D01*
X0207507Y0179130D01*
X0207733Y0179311D01*
X0207964Y0179487D01*
X0208199Y0179656D01*
X0208438Y0179820D01*
X0208681Y0179979D01*
X0208928Y0180131D01*
X0209178Y0180277D01*
X0209432Y0180416D01*
X0209690Y0180550D01*
X0209950Y0180677D01*
X0210214Y0180798D01*
X0210480Y0180912D01*
X0210749Y0181020D01*
X0211021Y0181121D01*
X0211295Y0181215D01*
X0211571Y0181302D01*
X0211850Y0181383D01*
X0212130Y0181457D01*
X0212412Y0181524D01*
X0212696Y0181584D01*
X0212981Y0181637D01*
X0213267Y0181683D01*
X0213554Y0181722D01*
X0213842Y0181754D01*
X0214131Y0181779D01*
X0214420Y0181797D01*
X0214710Y0181807D01*
X0215000Y0181811D01*
X0215290Y0181807D01*
X0215580Y0181797D01*
X0215869Y0181779D01*
X0216158Y0181754D01*
X0216446Y0181722D01*
X0216733Y0181683D01*
X0217019Y0181637D01*
X0217304Y0181584D01*
X0217588Y0181524D01*
X0217870Y0181457D01*
X0218150Y0181383D01*
X0218429Y0181302D01*
X0218705Y0181215D01*
X0218979Y0181121D01*
X0219251Y0181020D01*
X0219520Y0180912D01*
X0219786Y0180798D01*
X0220050Y0180677D01*
X0220310Y0180550D01*
X0220568Y0180416D01*
X0220822Y0180277D01*
X0221072Y0180131D01*
X0221319Y0179979D01*
X0221562Y0179820D01*
X0221801Y0179656D01*
X0222036Y0179487D01*
X0222267Y0179311D01*
X0222493Y0179130D01*
X0222715Y0178943D01*
X0222932Y0178751D01*
X0223144Y0178554D01*
X0223352Y0178352D01*
X0223554Y0178144D01*
X0223751Y0177932D01*
X0223943Y0177715D01*
X0224130Y0177493D01*
X0224311Y0177267D01*
X0224487Y0177036D01*
X0224656Y0176801D01*
X0224820Y0176562D01*
X0224979Y0176319D01*
X0225131Y0176072D01*
X0225277Y0175822D01*
X0225416Y0175568D01*
X0225550Y0175310D01*
X0225677Y0175050D01*
X0225798Y0174786D01*
X0225912Y0174520D01*
X0226020Y0174251D01*
X0226121Y0173979D01*
X0226215Y0173705D01*
X0226302Y0173429D01*
X0226383Y0173150D01*
X0226457Y0172870D01*
X0226524Y0172588D01*
X0226584Y0172304D01*
X0226637Y0172019D01*
X0226683Y0171733D01*
X0226722Y0171446D01*
X0226754Y0171158D01*
X0226779Y0170869D01*
X0226797Y0170580D01*
X0226807Y0170290D01*
X0226811Y0170000D01*
X0226807Y0169710D01*
X0226797Y0169420D01*
X0226779Y0169131D01*
X0226754Y0168842D01*
X0226722Y0168554D01*
X0226683Y0168267D01*
X0226637Y0167981D01*
X0226584Y0167696D01*
X0226524Y0167412D01*
X0226457Y0167130D01*
X0226383Y0166850D01*
X0226302Y0166571D01*
X0226215Y0166295D01*
X0226121Y0166021D01*
X0226020Y0165749D01*
X0225912Y0165480D01*
X0225798Y0165214D01*
X0225677Y0164950D01*
X0225550Y0164690D01*
X0225416Y0164432D01*
X0225277Y0164178D01*
X0225131Y0163928D01*
X0224979Y0163681D01*
X0224820Y0163438D01*
X0224656Y0163199D01*
X0224487Y0162964D01*
X0224311Y0162733D01*
X0224130Y0162507D01*
X0223943Y0162285D01*
X0223751Y0162068D01*
X0223554Y0161856D01*
X0223352Y0161648D01*
X0223144Y0161446D01*
X0222932Y0161249D01*
X0222715Y0161057D01*
X0222493Y0160870D01*
X0222267Y0160689D01*
X0222036Y0160513D01*
X0221801Y0160344D01*
X0221562Y0160180D01*
X0221319Y0160021D01*
X0221072Y0159869D01*
X0220822Y0159723D01*
X0220568Y0159584D01*
X0220310Y0159450D01*
X0220050Y0159323D01*
X0219786Y0159202D01*
X0219520Y0159088D01*
X0219251Y0158980D01*
X0218979Y0158879D01*
X0218705Y0158785D01*
X0218429Y0158698D01*
X0218150Y0158617D01*
X0217870Y0158543D01*
X0217588Y0158476D01*
X0217304Y0158416D01*
X0217019Y0158363D01*
X0216733Y0158317D01*
X0216446Y0158278D01*
X0216158Y0158246D01*
X0215869Y0158221D01*
X0215580Y0158203D01*
X0215290Y0158193D01*
X0215000Y0158189D01*
X0214710Y0158193D01*
X0214420Y0158203D01*
X0214131Y0158221D01*
X0213842Y0158246D01*
X0213554Y0158278D01*
X0213267Y0158317D01*
X0212981Y0158363D01*
X0212696Y0158416D01*
X0212412Y0158476D01*
X0212130Y0158543D01*
X0211850Y0158617D01*
X0211571Y0158698D01*
X0211295Y0158785D01*
X0211021Y0158879D01*
X0210749Y0158980D01*
X0210480Y0159088D01*
X0210214Y0159202D01*
X0209950Y0159323D01*
X0209690Y0159450D01*
X0209432Y0159584D01*
X0209178Y0159723D01*
X0208928Y0159869D01*
X0208681Y0160021D01*
X0208438Y0160180D01*
X0208199Y0160344D01*
X0207964Y0160513D01*
X0207733Y0160689D01*
X0207507Y0160870D01*
X0207285Y0161057D01*
X0207068Y0161249D01*
X0206856Y0161446D01*
X0206648Y0161648D01*
X0206446Y0161856D01*
X0206249Y0162068D01*
X0206057Y0162285D01*
X0205870Y0162507D01*
X0205689Y0162733D01*
X0205513Y0162964D01*
X0205344Y0163199D01*
X0205180Y0163438D01*
X0205021Y0163681D01*
X0204869Y0163928D01*
X0204723Y0164178D01*
X0204584Y0164432D01*
X0204450Y0164690D01*
X0204323Y0164950D01*
X0204202Y0165214D01*
X0204088Y0165480D01*
X0203980Y0165749D01*
X0203879Y0166021D01*
X0203785Y0166295D01*
X0203698Y0166571D01*
X0203617Y0166850D01*
X0203543Y0167130D01*
X0203476Y0167412D01*
X0203416Y0167696D01*
X0203363Y0167981D01*
X0203317Y0168267D01*
X0203278Y0168554D01*
X0203246Y0168842D01*
X0203221Y0169131D01*
X0203203Y0169420D01*
X0203193Y0169710D01*
X0203189Y0170000D01*
X0195315Y0156220D02*
X0195315Y0150315D01*
X0195314Y0150315D02*
X0195316Y0150229D01*
X0195321Y0150143D01*
X0195331Y0150058D01*
X0195344Y0149973D01*
X0195361Y0149889D01*
X0195381Y0149805D01*
X0195405Y0149723D01*
X0195433Y0149642D01*
X0195464Y0149561D01*
X0195498Y0149483D01*
X0195536Y0149406D01*
X0195578Y0149331D01*
X0195622Y0149257D01*
X0195670Y0149186D01*
X0195721Y0149116D01*
X0195775Y0149049D01*
X0195831Y0148985D01*
X0195891Y0148923D01*
X0195953Y0148863D01*
X0196017Y0148807D01*
X0196084Y0148753D01*
X0196154Y0148702D01*
X0196225Y0148654D01*
X0196299Y0148610D01*
X0196374Y0148568D01*
X0196451Y0148530D01*
X0196529Y0148496D01*
X0196610Y0148465D01*
X0196691Y0148437D01*
X0196773Y0148413D01*
X0196857Y0148393D01*
X0196941Y0148376D01*
X0197026Y0148363D01*
X0197111Y0148353D01*
X0197197Y0148348D01*
X0197283Y0148346D01*
X0232717Y0148346D01*
X0232803Y0148348D01*
X0232889Y0148353D01*
X0232974Y0148363D01*
X0233059Y0148376D01*
X0233143Y0148393D01*
X0233227Y0148413D01*
X0233309Y0148437D01*
X0233390Y0148465D01*
X0233471Y0148496D01*
X0233549Y0148530D01*
X0233626Y0148568D01*
X0233702Y0148610D01*
X0233775Y0148654D01*
X0233846Y0148702D01*
X0233916Y0148753D01*
X0233983Y0148807D01*
X0234047Y0148863D01*
X0234109Y0148923D01*
X0234169Y0148985D01*
X0234225Y0149049D01*
X0234279Y0149116D01*
X0234330Y0149186D01*
X0234378Y0149257D01*
X0234422Y0149331D01*
X0234464Y0149406D01*
X0234502Y0149483D01*
X0234536Y0149561D01*
X0234567Y0149642D01*
X0234595Y0149723D01*
X0234619Y0149805D01*
X0234639Y0149889D01*
X0234656Y0149973D01*
X0234669Y0150058D01*
X0234679Y0150143D01*
X0234684Y0150229D01*
X0234686Y0150315D01*
X0234685Y0150315D02*
X0234685Y0156220D01*
X0244300Y0156150D02*
X0244300Y0160000D01*
X0244300Y0156150D02*
X0250000Y0156150D01*
X0267950Y0173650D02*
X0267950Y0179750D01*
X0260000Y0179750D01*
X0267950Y0179750D02*
X0267950Y0179751D01*
X0230748Y0136654D02*
X0199252Y0136654D01*
X0195315Y0134685D02*
X0195315Y0124843D01*
X0203189Y0115000D02*
X0203193Y0115290D01*
X0203203Y0115580D01*
X0203221Y0115869D01*
X0203246Y0116158D01*
X0203278Y0116446D01*
X0203317Y0116733D01*
X0203363Y0117019D01*
X0203416Y0117304D01*
X0203476Y0117588D01*
X0203543Y0117870D01*
X0203617Y0118150D01*
X0203698Y0118429D01*
X0203785Y0118705D01*
X0203879Y0118979D01*
X0203980Y0119251D01*
X0204088Y0119520D01*
X0204202Y0119786D01*
X0204323Y0120050D01*
X0204450Y0120310D01*
X0204584Y0120568D01*
X0204723Y0120822D01*
X0204869Y0121072D01*
X0205021Y0121319D01*
X0205180Y0121562D01*
X0205344Y0121801D01*
X0205513Y0122036D01*
X0205689Y0122267D01*
X0205870Y0122493D01*
X0206057Y0122715D01*
X0206249Y0122932D01*
X0206446Y0123144D01*
X0206648Y0123352D01*
X0206856Y0123554D01*
X0207068Y0123751D01*
X0207285Y0123943D01*
X0207507Y0124130D01*
X0207733Y0124311D01*
X0207964Y0124487D01*
X0208199Y0124656D01*
X0208438Y0124820D01*
X0208681Y0124979D01*
X0208928Y0125131D01*
X0209178Y0125277D01*
X0209432Y0125416D01*
X0209690Y0125550D01*
X0209950Y0125677D01*
X0210214Y0125798D01*
X0210480Y0125912D01*
X0210749Y0126020D01*
X0211021Y0126121D01*
X0211295Y0126215D01*
X0211571Y0126302D01*
X0211850Y0126383D01*
X0212130Y0126457D01*
X0212412Y0126524D01*
X0212696Y0126584D01*
X0212981Y0126637D01*
X0213267Y0126683D01*
X0213554Y0126722D01*
X0213842Y0126754D01*
X0214131Y0126779D01*
X0214420Y0126797D01*
X0214710Y0126807D01*
X0215000Y0126811D01*
X0215290Y0126807D01*
X0215580Y0126797D01*
X0215869Y0126779D01*
X0216158Y0126754D01*
X0216446Y0126722D01*
X0216733Y0126683D01*
X0217019Y0126637D01*
X0217304Y0126584D01*
X0217588Y0126524D01*
X0217870Y0126457D01*
X0218150Y0126383D01*
X0218429Y0126302D01*
X0218705Y0126215D01*
X0218979Y0126121D01*
X0219251Y0126020D01*
X0219520Y0125912D01*
X0219786Y0125798D01*
X0220050Y0125677D01*
X0220310Y0125550D01*
X0220568Y0125416D01*
X0220822Y0125277D01*
X0221072Y0125131D01*
X0221319Y0124979D01*
X0221562Y0124820D01*
X0221801Y0124656D01*
X0222036Y0124487D01*
X0222267Y0124311D01*
X0222493Y0124130D01*
X0222715Y0123943D01*
X0222932Y0123751D01*
X0223144Y0123554D01*
X0223352Y0123352D01*
X0223554Y0123144D01*
X0223751Y0122932D01*
X0223943Y0122715D01*
X0224130Y0122493D01*
X0224311Y0122267D01*
X0224487Y0122036D01*
X0224656Y0121801D01*
X0224820Y0121562D01*
X0224979Y0121319D01*
X0225131Y0121072D01*
X0225277Y0120822D01*
X0225416Y0120568D01*
X0225550Y0120310D01*
X0225677Y0120050D01*
X0225798Y0119786D01*
X0225912Y0119520D01*
X0226020Y0119251D01*
X0226121Y0118979D01*
X0226215Y0118705D01*
X0226302Y0118429D01*
X0226383Y0118150D01*
X0226457Y0117870D01*
X0226524Y0117588D01*
X0226584Y0117304D01*
X0226637Y0117019D01*
X0226683Y0116733D01*
X0226722Y0116446D01*
X0226754Y0116158D01*
X0226779Y0115869D01*
X0226797Y0115580D01*
X0226807Y0115290D01*
X0226811Y0115000D01*
X0226807Y0114710D01*
X0226797Y0114420D01*
X0226779Y0114131D01*
X0226754Y0113842D01*
X0226722Y0113554D01*
X0226683Y0113267D01*
X0226637Y0112981D01*
X0226584Y0112696D01*
X0226524Y0112412D01*
X0226457Y0112130D01*
X0226383Y0111850D01*
X0226302Y0111571D01*
X0226215Y0111295D01*
X0226121Y0111021D01*
X0226020Y0110749D01*
X0225912Y0110480D01*
X0225798Y0110214D01*
X0225677Y0109950D01*
X0225550Y0109690D01*
X0225416Y0109432D01*
X0225277Y0109178D01*
X0225131Y0108928D01*
X0224979Y0108681D01*
X0224820Y0108438D01*
X0224656Y0108199D01*
X0224487Y0107964D01*
X0224311Y0107733D01*
X0224130Y0107507D01*
X0223943Y0107285D01*
X0223751Y0107068D01*
X0223554Y0106856D01*
X0223352Y0106648D01*
X0223144Y0106446D01*
X0222932Y0106249D01*
X0222715Y0106057D01*
X0222493Y0105870D01*
X0222267Y0105689D01*
X0222036Y0105513D01*
X0221801Y0105344D01*
X0221562Y0105180D01*
X0221319Y0105021D01*
X0221072Y0104869D01*
X0220822Y0104723D01*
X0220568Y0104584D01*
X0220310Y0104450D01*
X0220050Y0104323D01*
X0219786Y0104202D01*
X0219520Y0104088D01*
X0219251Y0103980D01*
X0218979Y0103879D01*
X0218705Y0103785D01*
X0218429Y0103698D01*
X0218150Y0103617D01*
X0217870Y0103543D01*
X0217588Y0103476D01*
X0217304Y0103416D01*
X0217019Y0103363D01*
X0216733Y0103317D01*
X0216446Y0103278D01*
X0216158Y0103246D01*
X0215869Y0103221D01*
X0215580Y0103203D01*
X0215290Y0103193D01*
X0215000Y0103189D01*
X0214710Y0103193D01*
X0214420Y0103203D01*
X0214131Y0103221D01*
X0213842Y0103246D01*
X0213554Y0103278D01*
X0213267Y0103317D01*
X0212981Y0103363D01*
X0212696Y0103416D01*
X0212412Y0103476D01*
X0212130Y0103543D01*
X0211850Y0103617D01*
X0211571Y0103698D01*
X0211295Y0103785D01*
X0211021Y0103879D01*
X0210749Y0103980D01*
X0210480Y0104088D01*
X0210214Y0104202D01*
X0209950Y0104323D01*
X0209690Y0104450D01*
X0209432Y0104584D01*
X0209178Y0104723D01*
X0208928Y0104869D01*
X0208681Y0105021D01*
X0208438Y0105180D01*
X0208199Y0105344D01*
X0207964Y0105513D01*
X0207733Y0105689D01*
X0207507Y0105870D01*
X0207285Y0106057D01*
X0207068Y0106249D01*
X0206856Y0106446D01*
X0206648Y0106648D01*
X0206446Y0106856D01*
X0206249Y0107068D01*
X0206057Y0107285D01*
X0205870Y0107507D01*
X0205689Y0107733D01*
X0205513Y0107964D01*
X0205344Y0108199D01*
X0205180Y0108438D01*
X0205021Y0108681D01*
X0204869Y0108928D01*
X0204723Y0109178D01*
X0204584Y0109432D01*
X0204450Y0109690D01*
X0204323Y0109950D01*
X0204202Y0110214D01*
X0204088Y0110480D01*
X0203980Y0110749D01*
X0203879Y0111021D01*
X0203785Y0111295D01*
X0203698Y0111571D01*
X0203617Y0111850D01*
X0203543Y0112130D01*
X0203476Y0112412D01*
X0203416Y0112696D01*
X0203363Y0112981D01*
X0203317Y0113267D01*
X0203278Y0113554D01*
X0203246Y0113842D01*
X0203221Y0114131D01*
X0203203Y0114420D01*
X0203193Y0114710D01*
X0203189Y0115000D01*
X0195315Y0101220D02*
X0195315Y0095315D01*
X0195314Y0095315D02*
X0195316Y0095229D01*
X0195321Y0095143D01*
X0195331Y0095058D01*
X0195344Y0094973D01*
X0195361Y0094889D01*
X0195381Y0094805D01*
X0195405Y0094723D01*
X0195433Y0094642D01*
X0195464Y0094561D01*
X0195498Y0094483D01*
X0195536Y0094406D01*
X0195578Y0094331D01*
X0195622Y0094257D01*
X0195670Y0094186D01*
X0195721Y0094116D01*
X0195775Y0094049D01*
X0195831Y0093985D01*
X0195891Y0093923D01*
X0195953Y0093863D01*
X0196017Y0093807D01*
X0196084Y0093753D01*
X0196154Y0093702D01*
X0196225Y0093654D01*
X0196299Y0093610D01*
X0196374Y0093568D01*
X0196451Y0093530D01*
X0196529Y0093496D01*
X0196610Y0093465D01*
X0196691Y0093437D01*
X0196773Y0093413D01*
X0196857Y0093393D01*
X0196941Y0093376D01*
X0197026Y0093363D01*
X0197111Y0093353D01*
X0197197Y0093348D01*
X0197283Y0093346D01*
X0232717Y0093346D01*
X0232803Y0093348D01*
X0232889Y0093353D01*
X0232974Y0093363D01*
X0233059Y0093376D01*
X0233143Y0093393D01*
X0233227Y0093413D01*
X0233309Y0093437D01*
X0233390Y0093465D01*
X0233471Y0093496D01*
X0233549Y0093530D01*
X0233626Y0093568D01*
X0233702Y0093610D01*
X0233775Y0093654D01*
X0233846Y0093702D01*
X0233916Y0093753D01*
X0233983Y0093807D01*
X0234047Y0093863D01*
X0234109Y0093923D01*
X0234169Y0093985D01*
X0234225Y0094049D01*
X0234279Y0094116D01*
X0234330Y0094186D01*
X0234378Y0094257D01*
X0234422Y0094331D01*
X0234464Y0094406D01*
X0234502Y0094483D01*
X0234536Y0094561D01*
X0234567Y0094642D01*
X0234595Y0094723D01*
X0234619Y0094805D01*
X0234639Y0094889D01*
X0234656Y0094973D01*
X0234669Y0095058D01*
X0234679Y0095143D01*
X0234684Y0095229D01*
X0234686Y0095315D01*
X0234685Y0095315D02*
X0234685Y0101220D01*
X0244300Y0101150D02*
X0244300Y0105000D01*
X0244300Y0101150D02*
X0250000Y0101150D01*
X0267950Y0118650D02*
X0267950Y0124750D01*
X0260000Y0124750D01*
X0267950Y0124750D02*
X0267950Y0124751D01*
X0234685Y0122874D02*
X0234685Y0134685D01*
X0230748Y0081654D02*
X0199252Y0081654D01*
X0195315Y0079685D02*
X0195315Y0069843D01*
X0203189Y0060000D02*
X0203193Y0060290D01*
X0203203Y0060580D01*
X0203221Y0060869D01*
X0203246Y0061158D01*
X0203278Y0061446D01*
X0203317Y0061733D01*
X0203363Y0062019D01*
X0203416Y0062304D01*
X0203476Y0062588D01*
X0203543Y0062870D01*
X0203617Y0063150D01*
X0203698Y0063429D01*
X0203785Y0063705D01*
X0203879Y0063979D01*
X0203980Y0064251D01*
X0204088Y0064520D01*
X0204202Y0064786D01*
X0204323Y0065050D01*
X0204450Y0065310D01*
X0204584Y0065568D01*
X0204723Y0065822D01*
X0204869Y0066072D01*
X0205021Y0066319D01*
X0205180Y0066562D01*
X0205344Y0066801D01*
X0205513Y0067036D01*
X0205689Y0067267D01*
X0205870Y0067493D01*
X0206057Y0067715D01*
X0206249Y0067932D01*
X0206446Y0068144D01*
X0206648Y0068352D01*
X0206856Y0068554D01*
X0207068Y0068751D01*
X0207285Y0068943D01*
X0207507Y0069130D01*
X0207733Y0069311D01*
X0207964Y0069487D01*
X0208199Y0069656D01*
X0208438Y0069820D01*
X0208681Y0069979D01*
X0208928Y0070131D01*
X0209178Y0070277D01*
X0209432Y0070416D01*
X0209690Y0070550D01*
X0209950Y0070677D01*
X0210214Y0070798D01*
X0210480Y0070912D01*
X0210749Y0071020D01*
X0211021Y0071121D01*
X0211295Y0071215D01*
X0211571Y0071302D01*
X0211850Y0071383D01*
X0212130Y0071457D01*
X0212412Y0071524D01*
X0212696Y0071584D01*
X0212981Y0071637D01*
X0213267Y0071683D01*
X0213554Y0071722D01*
X0213842Y0071754D01*
X0214131Y0071779D01*
X0214420Y0071797D01*
X0214710Y0071807D01*
X0215000Y0071811D01*
X0215290Y0071807D01*
X0215580Y0071797D01*
X0215869Y0071779D01*
X0216158Y0071754D01*
X0216446Y0071722D01*
X0216733Y0071683D01*
X0217019Y0071637D01*
X0217304Y0071584D01*
X0217588Y0071524D01*
X0217870Y0071457D01*
X0218150Y0071383D01*
X0218429Y0071302D01*
X0218705Y0071215D01*
X0218979Y0071121D01*
X0219251Y0071020D01*
X0219520Y0070912D01*
X0219786Y0070798D01*
X0220050Y0070677D01*
X0220310Y0070550D01*
X0220568Y0070416D01*
X0220822Y0070277D01*
X0221072Y0070131D01*
X0221319Y0069979D01*
X0221562Y0069820D01*
X0221801Y0069656D01*
X0222036Y0069487D01*
X0222267Y0069311D01*
X0222493Y0069130D01*
X0222715Y0068943D01*
X0222932Y0068751D01*
X0223144Y0068554D01*
X0223352Y0068352D01*
X0223554Y0068144D01*
X0223751Y0067932D01*
X0223943Y0067715D01*
X0224130Y0067493D01*
X0224311Y0067267D01*
X0224487Y0067036D01*
X0224656Y0066801D01*
X0224820Y0066562D01*
X0224979Y0066319D01*
X0225131Y0066072D01*
X0225277Y0065822D01*
X0225416Y0065568D01*
X0225550Y0065310D01*
X0225677Y0065050D01*
X0225798Y0064786D01*
X0225912Y0064520D01*
X0226020Y0064251D01*
X0226121Y0063979D01*
X0226215Y0063705D01*
X0226302Y0063429D01*
X0226383Y0063150D01*
X0226457Y0062870D01*
X0226524Y0062588D01*
X0226584Y0062304D01*
X0226637Y0062019D01*
X0226683Y0061733D01*
X0226722Y0061446D01*
X0226754Y0061158D01*
X0226779Y0060869D01*
X0226797Y0060580D01*
X0226807Y0060290D01*
X0226811Y0060000D01*
X0226807Y0059710D01*
X0226797Y0059420D01*
X0226779Y0059131D01*
X0226754Y0058842D01*
X0226722Y0058554D01*
X0226683Y0058267D01*
X0226637Y0057981D01*
X0226584Y0057696D01*
X0226524Y0057412D01*
X0226457Y0057130D01*
X0226383Y0056850D01*
X0226302Y0056571D01*
X0226215Y0056295D01*
X0226121Y0056021D01*
X0226020Y0055749D01*
X0225912Y0055480D01*
X0225798Y0055214D01*
X0225677Y0054950D01*
X0225550Y0054690D01*
X0225416Y0054432D01*
X0225277Y0054178D01*
X0225131Y0053928D01*
X0224979Y0053681D01*
X0224820Y0053438D01*
X0224656Y0053199D01*
X0224487Y0052964D01*
X0224311Y0052733D01*
X0224130Y0052507D01*
X0223943Y0052285D01*
X0223751Y0052068D01*
X0223554Y0051856D01*
X0223352Y0051648D01*
X0223144Y0051446D01*
X0222932Y0051249D01*
X0222715Y0051057D01*
X0222493Y0050870D01*
X0222267Y0050689D01*
X0222036Y0050513D01*
X0221801Y0050344D01*
X0221562Y0050180D01*
X0221319Y0050021D01*
X0221072Y0049869D01*
X0220822Y0049723D01*
X0220568Y0049584D01*
X0220310Y0049450D01*
X0220050Y0049323D01*
X0219786Y0049202D01*
X0219520Y0049088D01*
X0219251Y0048980D01*
X0218979Y0048879D01*
X0218705Y0048785D01*
X0218429Y0048698D01*
X0218150Y0048617D01*
X0217870Y0048543D01*
X0217588Y0048476D01*
X0217304Y0048416D01*
X0217019Y0048363D01*
X0216733Y0048317D01*
X0216446Y0048278D01*
X0216158Y0048246D01*
X0215869Y0048221D01*
X0215580Y0048203D01*
X0215290Y0048193D01*
X0215000Y0048189D01*
X0214710Y0048193D01*
X0214420Y0048203D01*
X0214131Y0048221D01*
X0213842Y0048246D01*
X0213554Y0048278D01*
X0213267Y0048317D01*
X0212981Y0048363D01*
X0212696Y0048416D01*
X0212412Y0048476D01*
X0212130Y0048543D01*
X0211850Y0048617D01*
X0211571Y0048698D01*
X0211295Y0048785D01*
X0211021Y0048879D01*
X0210749Y0048980D01*
X0210480Y0049088D01*
X0210214Y0049202D01*
X0209950Y0049323D01*
X0209690Y0049450D01*
X0209432Y0049584D01*
X0209178Y0049723D01*
X0208928Y0049869D01*
X0208681Y0050021D01*
X0208438Y0050180D01*
X0208199Y0050344D01*
X0207964Y0050513D01*
X0207733Y0050689D01*
X0207507Y0050870D01*
X0207285Y0051057D01*
X0207068Y0051249D01*
X0206856Y0051446D01*
X0206648Y0051648D01*
X0206446Y0051856D01*
X0206249Y0052068D01*
X0206057Y0052285D01*
X0205870Y0052507D01*
X0205689Y0052733D01*
X0205513Y0052964D01*
X0205344Y0053199D01*
X0205180Y0053438D01*
X0205021Y0053681D01*
X0204869Y0053928D01*
X0204723Y0054178D01*
X0204584Y0054432D01*
X0204450Y0054690D01*
X0204323Y0054950D01*
X0204202Y0055214D01*
X0204088Y0055480D01*
X0203980Y0055749D01*
X0203879Y0056021D01*
X0203785Y0056295D01*
X0203698Y0056571D01*
X0203617Y0056850D01*
X0203543Y0057130D01*
X0203476Y0057412D01*
X0203416Y0057696D01*
X0203363Y0057981D01*
X0203317Y0058267D01*
X0203278Y0058554D01*
X0203246Y0058842D01*
X0203221Y0059131D01*
X0203203Y0059420D01*
X0203193Y0059710D01*
X0203189Y0060000D01*
X0195315Y0046220D02*
X0195315Y0040315D01*
X0195314Y0040315D02*
X0195316Y0040229D01*
X0195321Y0040143D01*
X0195331Y0040058D01*
X0195344Y0039973D01*
X0195361Y0039889D01*
X0195381Y0039805D01*
X0195405Y0039723D01*
X0195433Y0039642D01*
X0195464Y0039561D01*
X0195498Y0039483D01*
X0195536Y0039406D01*
X0195578Y0039331D01*
X0195622Y0039257D01*
X0195670Y0039186D01*
X0195721Y0039116D01*
X0195775Y0039049D01*
X0195831Y0038985D01*
X0195891Y0038923D01*
X0195953Y0038863D01*
X0196017Y0038807D01*
X0196084Y0038753D01*
X0196154Y0038702D01*
X0196225Y0038654D01*
X0196299Y0038610D01*
X0196374Y0038568D01*
X0196451Y0038530D01*
X0196529Y0038496D01*
X0196610Y0038465D01*
X0196691Y0038437D01*
X0196773Y0038413D01*
X0196857Y0038393D01*
X0196941Y0038376D01*
X0197026Y0038363D01*
X0197111Y0038353D01*
X0197197Y0038348D01*
X0197283Y0038346D01*
X0232717Y0038346D01*
X0232803Y0038348D01*
X0232889Y0038353D01*
X0232974Y0038363D01*
X0233059Y0038376D01*
X0233143Y0038393D01*
X0233227Y0038413D01*
X0233309Y0038437D01*
X0233390Y0038465D01*
X0233471Y0038496D01*
X0233549Y0038530D01*
X0233626Y0038568D01*
X0233702Y0038610D01*
X0233775Y0038654D01*
X0233846Y0038702D01*
X0233916Y0038753D01*
X0233983Y0038807D01*
X0234047Y0038863D01*
X0234109Y0038923D01*
X0234169Y0038985D01*
X0234225Y0039049D01*
X0234279Y0039116D01*
X0234330Y0039186D01*
X0234378Y0039257D01*
X0234422Y0039331D01*
X0234464Y0039406D01*
X0234502Y0039483D01*
X0234536Y0039561D01*
X0234567Y0039642D01*
X0234595Y0039723D01*
X0234619Y0039805D01*
X0234639Y0039889D01*
X0234656Y0039973D01*
X0234669Y0040058D01*
X0234679Y0040143D01*
X0234684Y0040229D01*
X0234686Y0040315D01*
X0234685Y0040315D02*
X0234685Y0046220D01*
X0244300Y0046150D02*
X0244300Y0050000D01*
X0244300Y0046150D02*
X0250000Y0046150D01*
X0267950Y0063650D02*
X0267950Y0069750D01*
X0260000Y0069750D01*
X0267950Y0069750D02*
X0267950Y0069751D01*
X0234685Y0067874D02*
X0234685Y0079685D01*
D12*
X0255200Y0059283D02*
X0255200Y0057750D01*
X0255200Y0055972D02*
X0259800Y0054950D01*
X0256733Y0053928D01*
X0259800Y0052906D01*
X0255200Y0051883D01*
X0257116Y0048339D02*
X0257082Y0048285D01*
X0257045Y0048234D01*
X0257005Y0048185D01*
X0256962Y0048138D01*
X0256916Y0048095D01*
X0256868Y0048054D01*
X0256817Y0048016D01*
X0256764Y0047981D01*
X0256709Y0047949D01*
X0256652Y0047921D01*
X0256594Y0047897D01*
X0256534Y0047876D01*
X0256473Y0047859D01*
X0256411Y0047845D01*
X0256348Y0047836D01*
X0256285Y0047830D01*
X0256222Y0047828D01*
X0256160Y0047830D01*
X0256099Y0047835D01*
X0256038Y0047845D01*
X0255977Y0047858D01*
X0255918Y0047874D01*
X0255860Y0047894D01*
X0255803Y0047918D01*
X0255747Y0047945D01*
X0255693Y0047975D01*
X0255641Y0048009D01*
X0255592Y0048045D01*
X0255544Y0048085D01*
X0255499Y0048127D01*
X0255457Y0048172D01*
X0255417Y0048220D01*
X0255381Y0048269D01*
X0255347Y0048321D01*
X0255317Y0048375D01*
X0255290Y0048431D01*
X0255266Y0048488D01*
X0255246Y0048546D01*
X0255230Y0048605D01*
X0255217Y0048666D01*
X0255207Y0048727D01*
X0255202Y0048788D01*
X0255200Y0048850D01*
X0255202Y0048932D01*
X0255207Y0049014D01*
X0255216Y0049096D01*
X0255228Y0049177D01*
X0255244Y0049258D01*
X0255263Y0049338D01*
X0255286Y0049417D01*
X0255312Y0049495D01*
X0255341Y0049572D01*
X0255374Y0049647D01*
X0255410Y0049721D01*
X0255448Y0049794D01*
X0255490Y0049865D01*
X0255535Y0049933D01*
X0255583Y0050000D01*
X0259161Y0047700D02*
X0259224Y0047764D01*
X0259283Y0047832D01*
X0259340Y0047901D01*
X0259394Y0047973D01*
X0259445Y0048047D01*
X0259493Y0048123D01*
X0259537Y0048200D01*
X0259578Y0048280D01*
X0259616Y0048361D01*
X0259651Y0048444D01*
X0259682Y0048528D01*
X0259709Y0048614D01*
X0259733Y0048700D01*
X0259754Y0048788D01*
X0259770Y0048876D01*
X0259783Y0048965D01*
X0259793Y0049054D01*
X0259798Y0049143D01*
X0259800Y0049233D01*
X0259798Y0049295D01*
X0259793Y0049356D01*
X0259783Y0049417D01*
X0259770Y0049478D01*
X0259754Y0049537D01*
X0259734Y0049595D01*
X0259710Y0049652D01*
X0259683Y0049708D01*
X0259653Y0049762D01*
X0259619Y0049814D01*
X0259583Y0049863D01*
X0259543Y0049911D01*
X0259501Y0049956D01*
X0259456Y0049998D01*
X0259408Y0050038D01*
X0259359Y0050074D01*
X0259307Y0050108D01*
X0259253Y0050138D01*
X0259197Y0050165D01*
X0259140Y0050189D01*
X0259082Y0050209D01*
X0259023Y0050225D01*
X0258962Y0050238D01*
X0258901Y0050248D01*
X0258840Y0050253D01*
X0258778Y0050255D01*
X0257883Y0049744D02*
X0257117Y0048339D01*
X0257884Y0049744D02*
X0257918Y0049798D01*
X0257955Y0049849D01*
X0257995Y0049898D01*
X0258038Y0049945D01*
X0258084Y0049988D01*
X0258132Y0050029D01*
X0258183Y0050067D01*
X0258236Y0050102D01*
X0258291Y0050134D01*
X0258348Y0050162D01*
X0258406Y0050186D01*
X0258466Y0050207D01*
X0258527Y0050224D01*
X0258589Y0050238D01*
X0258652Y0050247D01*
X0258715Y0050253D01*
X0258778Y0050255D01*
X0259800Y0057750D02*
X0259800Y0059028D01*
X0259798Y0059098D01*
X0259792Y0059169D01*
X0259783Y0059238D01*
X0259769Y0059307D01*
X0259752Y0059376D01*
X0259731Y0059443D01*
X0259706Y0059509D01*
X0259678Y0059573D01*
X0259646Y0059636D01*
X0259611Y0059697D01*
X0259572Y0059756D01*
X0259531Y0059813D01*
X0259486Y0059867D01*
X0259438Y0059919D01*
X0259388Y0059968D01*
X0259334Y0060015D01*
X0259279Y0060058D01*
X0259221Y0060098D01*
X0259161Y0060135D01*
X0259099Y0060168D01*
X0259035Y0060198D01*
X0258970Y0060225D01*
X0258904Y0060248D01*
X0258836Y0060267D01*
X0258767Y0060282D01*
X0258698Y0060294D01*
X0258628Y0060302D01*
X0258557Y0060306D01*
X0258487Y0060306D01*
X0258416Y0060302D01*
X0258346Y0060294D01*
X0258277Y0060282D01*
X0258208Y0060267D01*
X0258140Y0060248D01*
X0258074Y0060225D01*
X0258009Y0060198D01*
X0257945Y0060168D01*
X0257883Y0060135D01*
X0257823Y0060098D01*
X0257765Y0060058D01*
X0257710Y0060015D01*
X0257656Y0059968D01*
X0257606Y0059919D01*
X0257558Y0059867D01*
X0257513Y0059813D01*
X0257472Y0059756D01*
X0257433Y0059697D01*
X0257398Y0059636D01*
X0257366Y0059573D01*
X0257338Y0059509D01*
X0257313Y0059443D01*
X0257292Y0059376D01*
X0257275Y0059307D01*
X0257261Y0059238D01*
X0257252Y0059169D01*
X0257246Y0059098D01*
X0257244Y0059028D01*
X0257244Y0059283D02*
X0257244Y0058261D01*
X0257244Y0059283D02*
X0257242Y0059346D01*
X0257236Y0059409D01*
X0257227Y0059471D01*
X0257213Y0059532D01*
X0257196Y0059593D01*
X0257175Y0059652D01*
X0257150Y0059710D01*
X0257122Y0059767D01*
X0257091Y0059821D01*
X0257056Y0059873D01*
X0257018Y0059924D01*
X0256977Y0059972D01*
X0256933Y0060017D01*
X0256887Y0060059D01*
X0256838Y0060099D01*
X0256787Y0060135D01*
X0256733Y0060168D01*
X0256678Y0060198D01*
X0256620Y0060224D01*
X0256562Y0060247D01*
X0256502Y0060266D01*
X0256441Y0060281D01*
X0256379Y0060293D01*
X0256316Y0060301D01*
X0256253Y0060305D01*
X0256191Y0060305D01*
X0256128Y0060301D01*
X0256065Y0060293D01*
X0256003Y0060281D01*
X0255942Y0060266D01*
X0255882Y0060247D01*
X0255824Y0060224D01*
X0255766Y0060198D01*
X0255711Y0060168D01*
X0255657Y0060135D01*
X0255606Y0060099D01*
X0255557Y0060059D01*
X0255511Y0060017D01*
X0255467Y0059972D01*
X0255426Y0059924D01*
X0255388Y0059873D01*
X0255353Y0059821D01*
X0255322Y0059767D01*
X0255294Y0059710D01*
X0255269Y0059652D01*
X0255248Y0059593D01*
X0255231Y0059532D01*
X0255217Y0059471D01*
X0255208Y0059409D01*
X0255202Y0059346D01*
X0255200Y0059283D01*
X0257117Y0103339D02*
X0257883Y0104744D01*
X0259800Y0104233D02*
X0259798Y0104143D01*
X0259793Y0104054D01*
X0259783Y0103965D01*
X0259770Y0103876D01*
X0259754Y0103788D01*
X0259733Y0103700D01*
X0259709Y0103614D01*
X0259682Y0103528D01*
X0259651Y0103444D01*
X0259616Y0103361D01*
X0259578Y0103280D01*
X0259537Y0103200D01*
X0259493Y0103123D01*
X0259445Y0103047D01*
X0259394Y0102973D01*
X0259340Y0102901D01*
X0259283Y0102832D01*
X0259224Y0102764D01*
X0259161Y0102700D01*
X0257884Y0104744D02*
X0257918Y0104798D01*
X0257955Y0104849D01*
X0257995Y0104898D01*
X0258038Y0104945D01*
X0258084Y0104988D01*
X0258132Y0105029D01*
X0258183Y0105067D01*
X0258236Y0105102D01*
X0258291Y0105134D01*
X0258348Y0105162D01*
X0258406Y0105186D01*
X0258466Y0105207D01*
X0258527Y0105224D01*
X0258589Y0105238D01*
X0258652Y0105247D01*
X0258715Y0105253D01*
X0258778Y0105255D01*
X0258840Y0105253D01*
X0258901Y0105248D01*
X0258962Y0105238D01*
X0259023Y0105225D01*
X0259082Y0105209D01*
X0259140Y0105189D01*
X0259197Y0105165D01*
X0259253Y0105138D01*
X0259307Y0105108D01*
X0259359Y0105074D01*
X0259408Y0105038D01*
X0259456Y0104998D01*
X0259501Y0104956D01*
X0259543Y0104911D01*
X0259583Y0104863D01*
X0259619Y0104814D01*
X0259653Y0104762D01*
X0259683Y0104708D01*
X0259710Y0104652D01*
X0259734Y0104595D01*
X0259754Y0104537D01*
X0259770Y0104478D01*
X0259783Y0104417D01*
X0259793Y0104356D01*
X0259798Y0104295D01*
X0259800Y0104233D01*
X0255583Y0105000D02*
X0255535Y0104933D01*
X0255490Y0104865D01*
X0255448Y0104794D01*
X0255410Y0104721D01*
X0255374Y0104647D01*
X0255341Y0104572D01*
X0255312Y0104495D01*
X0255286Y0104417D01*
X0255263Y0104338D01*
X0255244Y0104258D01*
X0255228Y0104177D01*
X0255216Y0104096D01*
X0255207Y0104014D01*
X0255202Y0103932D01*
X0255200Y0103850D01*
X0255202Y0103788D01*
X0255207Y0103727D01*
X0255217Y0103666D01*
X0255230Y0103605D01*
X0255246Y0103546D01*
X0255266Y0103488D01*
X0255290Y0103431D01*
X0255317Y0103375D01*
X0255347Y0103321D01*
X0255381Y0103269D01*
X0255417Y0103220D01*
X0255457Y0103172D01*
X0255499Y0103127D01*
X0255544Y0103085D01*
X0255592Y0103045D01*
X0255641Y0103009D01*
X0255693Y0102975D01*
X0255747Y0102945D01*
X0255803Y0102918D01*
X0255860Y0102894D01*
X0255918Y0102874D01*
X0255977Y0102858D01*
X0256038Y0102845D01*
X0256099Y0102835D01*
X0256160Y0102830D01*
X0256222Y0102828D01*
X0256285Y0102830D01*
X0256348Y0102836D01*
X0256411Y0102845D01*
X0256473Y0102859D01*
X0256534Y0102876D01*
X0256594Y0102897D01*
X0256652Y0102921D01*
X0256709Y0102949D01*
X0256764Y0102981D01*
X0256817Y0103016D01*
X0256868Y0103054D01*
X0256916Y0103095D01*
X0256962Y0103138D01*
X0257005Y0103185D01*
X0257045Y0103234D01*
X0257082Y0103285D01*
X0257116Y0103339D01*
X0255200Y0106883D02*
X0259800Y0107906D01*
X0256733Y0108928D01*
X0259800Y0109950D01*
X0255200Y0110972D01*
X0257244Y0114922D02*
X0257197Y0114969D01*
X0257147Y0115013D01*
X0257095Y0115055D01*
X0257041Y0115094D01*
X0256985Y0115129D01*
X0256927Y0115162D01*
X0256867Y0115192D01*
X0256806Y0115218D01*
X0256743Y0115241D01*
X0256679Y0115260D01*
X0256615Y0115276D01*
X0256549Y0115289D01*
X0256483Y0115298D01*
X0256417Y0115303D01*
X0256350Y0115305D01*
X0257244Y0114922D02*
X0259800Y0112750D01*
X0259800Y0115306D01*
X0256222Y0112751D02*
X0256152Y0112776D01*
X0256083Y0112804D01*
X0256016Y0112835D01*
X0255950Y0112870D01*
X0255887Y0112908D01*
X0255825Y0112950D01*
X0255765Y0112994D01*
X0255708Y0113041D01*
X0255653Y0113091D01*
X0255601Y0113144D01*
X0255551Y0113200D01*
X0255505Y0113257D01*
X0255461Y0113318D01*
X0255420Y0113380D01*
X0255383Y0113444D01*
X0255349Y0113510D01*
X0255318Y0113578D01*
X0255291Y0113647D01*
X0255267Y0113717D01*
X0255246Y0113788D01*
X0255230Y0113861D01*
X0255217Y0113934D01*
X0255207Y0114008D01*
X0255202Y0114082D01*
X0255200Y0114156D01*
X0255202Y0114223D01*
X0255208Y0114290D01*
X0255217Y0114356D01*
X0255231Y0114421D01*
X0255248Y0114486D01*
X0255269Y0114549D01*
X0255294Y0114611D01*
X0255322Y0114672D01*
X0255354Y0114731D01*
X0255389Y0114788D01*
X0255428Y0114843D01*
X0255469Y0114895D01*
X0255514Y0114945D01*
X0255561Y0114992D01*
X0255611Y0115037D01*
X0255663Y0115078D01*
X0255718Y0115117D01*
X0255775Y0115152D01*
X0255834Y0115184D01*
X0255895Y0115212D01*
X0255957Y0115237D01*
X0256020Y0115258D01*
X0256085Y0115275D01*
X0256150Y0115289D01*
X0256216Y0115298D01*
X0256283Y0115304D01*
X0256350Y0115306D01*
X0257117Y0158339D02*
X0257883Y0159744D01*
X0259800Y0159233D02*
X0259798Y0159143D01*
X0259793Y0159054D01*
X0259783Y0158965D01*
X0259770Y0158876D01*
X0259754Y0158788D01*
X0259733Y0158700D01*
X0259709Y0158614D01*
X0259682Y0158528D01*
X0259651Y0158444D01*
X0259616Y0158361D01*
X0259578Y0158280D01*
X0259537Y0158200D01*
X0259493Y0158123D01*
X0259445Y0158047D01*
X0259394Y0157973D01*
X0259340Y0157901D01*
X0259283Y0157832D01*
X0259224Y0157764D01*
X0259161Y0157700D01*
X0257884Y0159744D02*
X0257918Y0159798D01*
X0257955Y0159849D01*
X0257995Y0159898D01*
X0258038Y0159945D01*
X0258084Y0159988D01*
X0258132Y0160029D01*
X0258183Y0160067D01*
X0258236Y0160102D01*
X0258291Y0160134D01*
X0258348Y0160162D01*
X0258406Y0160186D01*
X0258466Y0160207D01*
X0258527Y0160224D01*
X0258589Y0160238D01*
X0258652Y0160247D01*
X0258715Y0160253D01*
X0258778Y0160255D01*
X0258840Y0160253D01*
X0258901Y0160248D01*
X0258962Y0160238D01*
X0259023Y0160225D01*
X0259082Y0160209D01*
X0259140Y0160189D01*
X0259197Y0160165D01*
X0259253Y0160138D01*
X0259307Y0160108D01*
X0259359Y0160074D01*
X0259408Y0160038D01*
X0259456Y0159998D01*
X0259501Y0159956D01*
X0259543Y0159911D01*
X0259583Y0159863D01*
X0259619Y0159814D01*
X0259653Y0159762D01*
X0259683Y0159708D01*
X0259710Y0159652D01*
X0259734Y0159595D01*
X0259754Y0159537D01*
X0259770Y0159478D01*
X0259783Y0159417D01*
X0259793Y0159356D01*
X0259798Y0159295D01*
X0259800Y0159233D01*
X0255583Y0160000D02*
X0255535Y0159933D01*
X0255490Y0159865D01*
X0255448Y0159794D01*
X0255410Y0159721D01*
X0255374Y0159647D01*
X0255341Y0159572D01*
X0255312Y0159495D01*
X0255286Y0159417D01*
X0255263Y0159338D01*
X0255244Y0159258D01*
X0255228Y0159177D01*
X0255216Y0159096D01*
X0255207Y0159014D01*
X0255202Y0158932D01*
X0255200Y0158850D01*
X0255202Y0158788D01*
X0255207Y0158727D01*
X0255217Y0158666D01*
X0255230Y0158605D01*
X0255246Y0158546D01*
X0255266Y0158488D01*
X0255290Y0158431D01*
X0255317Y0158375D01*
X0255347Y0158321D01*
X0255381Y0158269D01*
X0255417Y0158220D01*
X0255457Y0158172D01*
X0255499Y0158127D01*
X0255544Y0158085D01*
X0255592Y0158045D01*
X0255641Y0158009D01*
X0255693Y0157975D01*
X0255747Y0157945D01*
X0255803Y0157918D01*
X0255860Y0157894D01*
X0255918Y0157874D01*
X0255977Y0157858D01*
X0256038Y0157845D01*
X0256099Y0157835D01*
X0256160Y0157830D01*
X0256222Y0157828D01*
X0256285Y0157830D01*
X0256348Y0157836D01*
X0256411Y0157845D01*
X0256473Y0157859D01*
X0256534Y0157876D01*
X0256594Y0157897D01*
X0256652Y0157921D01*
X0256709Y0157949D01*
X0256764Y0157981D01*
X0256817Y0158016D01*
X0256868Y0158054D01*
X0256916Y0158095D01*
X0256962Y0158138D01*
X0257005Y0158185D01*
X0257045Y0158234D01*
X0257082Y0158285D01*
X0257116Y0158339D01*
X0255200Y0161883D02*
X0259800Y0162906D01*
X0256733Y0163928D01*
X0259800Y0164950D01*
X0255200Y0165972D01*
X0256222Y0167750D02*
X0255200Y0169028D01*
X0259800Y0169028D01*
X0259800Y0167750D02*
X0259800Y0170306D01*
D13*
X0247350Y0196150D02*
X0245294Y0196150D01*
X0246322Y0196150D02*
X0246322Y0199850D01*
X0245294Y0199028D01*
X0237350Y0196150D02*
X0235294Y0196150D01*
X0237042Y0198206D01*
X0236425Y0199850D02*
X0236357Y0199848D01*
X0236289Y0199842D01*
X0236222Y0199833D01*
X0236156Y0199819D01*
X0236090Y0199802D01*
X0236025Y0199781D01*
X0235962Y0199756D01*
X0235900Y0199728D01*
X0235840Y0199696D01*
X0235782Y0199661D01*
X0235726Y0199623D01*
X0235673Y0199581D01*
X0235621Y0199537D01*
X0235573Y0199489D01*
X0235527Y0199439D01*
X0235484Y0199387D01*
X0235444Y0199332D01*
X0235407Y0199275D01*
X0235374Y0199216D01*
X0235344Y0199155D01*
X0235318Y0199092D01*
X0235295Y0199028D01*
X0237042Y0198205D02*
X0237085Y0198249D01*
X0237126Y0198296D01*
X0237163Y0198345D01*
X0237198Y0198396D01*
X0237229Y0198450D01*
X0237257Y0198505D01*
X0237281Y0198562D01*
X0237302Y0198620D01*
X0237319Y0198680D01*
X0237333Y0198740D01*
X0237342Y0198801D01*
X0237348Y0198863D01*
X0237350Y0198925D01*
X0237348Y0198983D01*
X0237343Y0199041D01*
X0237334Y0199098D01*
X0237321Y0199155D01*
X0237305Y0199211D01*
X0237285Y0199266D01*
X0237262Y0199319D01*
X0237236Y0199371D01*
X0237206Y0199421D01*
X0237173Y0199469D01*
X0237138Y0199515D01*
X0237099Y0199558D01*
X0237058Y0199599D01*
X0237015Y0199638D01*
X0236969Y0199673D01*
X0236921Y0199706D01*
X0236871Y0199736D01*
X0236819Y0199762D01*
X0236766Y0199785D01*
X0236711Y0199805D01*
X0236655Y0199821D01*
X0236598Y0199834D01*
X0236541Y0199843D01*
X0236483Y0199848D01*
X0236425Y0199850D01*
X0226528Y0199850D02*
X0225294Y0199850D01*
X0226528Y0199850D02*
X0226584Y0199848D01*
X0226640Y0199842D01*
X0226695Y0199833D01*
X0226750Y0199820D01*
X0226803Y0199803D01*
X0226855Y0199782D01*
X0226906Y0199758D01*
X0226955Y0199730D01*
X0227002Y0199700D01*
X0227047Y0199666D01*
X0227089Y0199629D01*
X0227129Y0199589D01*
X0227166Y0199547D01*
X0227200Y0199502D01*
X0227230Y0199455D01*
X0227258Y0199406D01*
X0227282Y0199355D01*
X0227303Y0199303D01*
X0227320Y0199250D01*
X0227333Y0199195D01*
X0227342Y0199140D01*
X0227348Y0199084D01*
X0227350Y0199028D01*
X0227348Y0198972D01*
X0227342Y0198916D01*
X0227333Y0198861D01*
X0227320Y0198806D01*
X0227303Y0198753D01*
X0227282Y0198701D01*
X0227258Y0198650D01*
X0227230Y0198601D01*
X0227200Y0198554D01*
X0227166Y0198509D01*
X0227129Y0198467D01*
X0227089Y0198427D01*
X0227047Y0198390D01*
X0227002Y0198356D01*
X0226955Y0198326D01*
X0226906Y0198298D01*
X0226855Y0198274D01*
X0226803Y0198253D01*
X0226750Y0198236D01*
X0226695Y0198223D01*
X0226640Y0198214D01*
X0226584Y0198208D01*
X0226528Y0198206D01*
X0225706Y0198206D01*
X0226322Y0198206D02*
X0226385Y0198204D01*
X0226448Y0198198D01*
X0226511Y0198188D01*
X0226573Y0198175D01*
X0226634Y0198158D01*
X0226693Y0198137D01*
X0226752Y0198112D01*
X0226808Y0198084D01*
X0226863Y0198052D01*
X0226916Y0198017D01*
X0226966Y0197979D01*
X0227015Y0197938D01*
X0227060Y0197894D01*
X0227103Y0197847D01*
X0227142Y0197798D01*
X0227179Y0197746D01*
X0227212Y0197692D01*
X0227242Y0197636D01*
X0227269Y0197579D01*
X0227292Y0197520D01*
X0227311Y0197459D01*
X0227326Y0197398D01*
X0227338Y0197336D01*
X0227346Y0197273D01*
X0227350Y0197210D01*
X0227350Y0197146D01*
X0227346Y0197083D01*
X0227338Y0197020D01*
X0227326Y0196958D01*
X0227311Y0196897D01*
X0227292Y0196836D01*
X0227269Y0196777D01*
X0227242Y0196720D01*
X0227212Y0196664D01*
X0227179Y0196610D01*
X0227142Y0196558D01*
X0227103Y0196509D01*
X0227060Y0196462D01*
X0227015Y0196418D01*
X0226966Y0196377D01*
X0226916Y0196339D01*
X0226863Y0196304D01*
X0226808Y0196272D01*
X0226752Y0196244D01*
X0226693Y0196219D01*
X0226634Y0196198D01*
X0226573Y0196181D01*
X0226511Y0196168D01*
X0226448Y0196158D01*
X0226385Y0196152D01*
X0226322Y0196150D01*
X0225294Y0196150D01*
X0217350Y0196972D02*
X0215294Y0196972D01*
X0216117Y0199850D01*
X0216733Y0197794D02*
X0216733Y0196150D01*
X0207350Y0196972D02*
X0207350Y0197383D01*
X0207348Y0197439D01*
X0207342Y0197495D01*
X0207333Y0197550D01*
X0207320Y0197605D01*
X0207303Y0197658D01*
X0207282Y0197710D01*
X0207258Y0197761D01*
X0207230Y0197810D01*
X0207200Y0197857D01*
X0207166Y0197902D01*
X0207129Y0197944D01*
X0207089Y0197984D01*
X0207047Y0198021D01*
X0207002Y0198055D01*
X0206955Y0198085D01*
X0206906Y0198113D01*
X0206855Y0198137D01*
X0206803Y0198158D01*
X0206750Y0198175D01*
X0206695Y0198188D01*
X0206640Y0198197D01*
X0206584Y0198203D01*
X0206528Y0198205D01*
X0206528Y0198206D02*
X0205294Y0198206D01*
X0205294Y0199850D01*
X0207350Y0199850D01*
X0207350Y0196972D02*
X0207348Y0196916D01*
X0207342Y0196860D01*
X0207333Y0196805D01*
X0207320Y0196750D01*
X0207303Y0196697D01*
X0207282Y0196645D01*
X0207258Y0196594D01*
X0207230Y0196545D01*
X0207200Y0196498D01*
X0207166Y0196453D01*
X0207129Y0196411D01*
X0207089Y0196371D01*
X0207047Y0196334D01*
X0207002Y0196300D01*
X0206955Y0196270D01*
X0206906Y0196242D01*
X0206855Y0196218D01*
X0206803Y0196197D01*
X0206750Y0196180D01*
X0206695Y0196167D01*
X0206640Y0196158D01*
X0206584Y0196152D01*
X0206528Y0196150D01*
X0205294Y0196150D01*
X0197350Y0197178D02*
X0197350Y0197383D01*
X0197348Y0197439D01*
X0197342Y0197495D01*
X0197333Y0197550D01*
X0197320Y0197605D01*
X0197303Y0197658D01*
X0197282Y0197710D01*
X0197258Y0197761D01*
X0197230Y0197810D01*
X0197200Y0197857D01*
X0197166Y0197902D01*
X0197129Y0197944D01*
X0197089Y0197984D01*
X0197047Y0198021D01*
X0197002Y0198055D01*
X0196955Y0198085D01*
X0196906Y0198113D01*
X0196855Y0198137D01*
X0196803Y0198158D01*
X0196750Y0198175D01*
X0196695Y0198188D01*
X0196640Y0198197D01*
X0196584Y0198203D01*
X0196528Y0198205D01*
X0196528Y0198206D02*
X0195294Y0198206D01*
X0195294Y0197178D01*
X0195296Y0197115D01*
X0195302Y0197052D01*
X0195312Y0196989D01*
X0195325Y0196927D01*
X0195342Y0196866D01*
X0195363Y0196807D01*
X0195388Y0196748D01*
X0195416Y0196692D01*
X0195448Y0196637D01*
X0195483Y0196584D01*
X0195521Y0196534D01*
X0195562Y0196485D01*
X0195606Y0196440D01*
X0195653Y0196397D01*
X0195702Y0196358D01*
X0195754Y0196321D01*
X0195808Y0196288D01*
X0195864Y0196258D01*
X0195921Y0196231D01*
X0195980Y0196208D01*
X0196041Y0196189D01*
X0196102Y0196174D01*
X0196164Y0196162D01*
X0196227Y0196154D01*
X0196290Y0196150D01*
X0196354Y0196150D01*
X0196417Y0196154D01*
X0196480Y0196162D01*
X0196542Y0196174D01*
X0196603Y0196189D01*
X0196664Y0196208D01*
X0196723Y0196231D01*
X0196780Y0196258D01*
X0196836Y0196288D01*
X0196890Y0196321D01*
X0196942Y0196358D01*
X0196991Y0196397D01*
X0197038Y0196440D01*
X0197082Y0196485D01*
X0197123Y0196534D01*
X0197161Y0196584D01*
X0197196Y0196637D01*
X0197228Y0196692D01*
X0197256Y0196748D01*
X0197281Y0196807D01*
X0197302Y0196866D01*
X0197319Y0196927D01*
X0197332Y0196989D01*
X0197342Y0197052D01*
X0197348Y0197115D01*
X0197350Y0197178D01*
X0195295Y0198206D02*
X0195297Y0198287D01*
X0195303Y0198367D01*
X0195313Y0198447D01*
X0195327Y0198527D01*
X0195344Y0198605D01*
X0195366Y0198683D01*
X0195391Y0198760D01*
X0195420Y0198835D01*
X0195453Y0198909D01*
X0195489Y0198981D01*
X0195529Y0199051D01*
X0195572Y0199119D01*
X0195619Y0199185D01*
X0195668Y0199249D01*
X0195721Y0199310D01*
X0195777Y0199368D01*
X0195835Y0199424D01*
X0195896Y0199477D01*
X0195960Y0199526D01*
X0196026Y0199573D01*
X0196094Y0199616D01*
X0196164Y0199656D01*
X0196236Y0199692D01*
X0196310Y0199725D01*
X0196385Y0199754D01*
X0196462Y0199779D01*
X0196540Y0199801D01*
X0196618Y0199818D01*
X0196698Y0199832D01*
X0196778Y0199842D01*
X0196858Y0199848D01*
X0196939Y0199850D01*
X0187350Y0199850D02*
X0186322Y0196150D01*
X0185294Y0199439D02*
X0185294Y0199850D01*
X0187350Y0199850D01*
X0171144Y0199028D02*
X0171142Y0198972D01*
X0171136Y0198916D01*
X0171127Y0198861D01*
X0171114Y0198806D01*
X0171097Y0198753D01*
X0171076Y0198701D01*
X0171052Y0198650D01*
X0171024Y0198601D01*
X0170994Y0198554D01*
X0170960Y0198509D01*
X0170923Y0198467D01*
X0170883Y0198427D01*
X0170841Y0198390D01*
X0170796Y0198356D01*
X0170749Y0198326D01*
X0170700Y0198298D01*
X0170649Y0198274D01*
X0170597Y0198253D01*
X0170544Y0198236D01*
X0170489Y0198223D01*
X0170434Y0198214D01*
X0170378Y0198208D01*
X0170322Y0198206D01*
X0170266Y0198208D01*
X0170210Y0198214D01*
X0170155Y0198223D01*
X0170100Y0198236D01*
X0170047Y0198253D01*
X0169995Y0198274D01*
X0169944Y0198298D01*
X0169895Y0198326D01*
X0169848Y0198356D01*
X0169803Y0198390D01*
X0169761Y0198427D01*
X0169721Y0198467D01*
X0169684Y0198509D01*
X0169650Y0198554D01*
X0169620Y0198601D01*
X0169592Y0198650D01*
X0169568Y0198701D01*
X0169547Y0198753D01*
X0169530Y0198806D01*
X0169517Y0198861D01*
X0169508Y0198916D01*
X0169502Y0198972D01*
X0169500Y0199028D01*
X0169502Y0199084D01*
X0169508Y0199140D01*
X0169517Y0199195D01*
X0169530Y0199250D01*
X0169547Y0199303D01*
X0169568Y0199355D01*
X0169592Y0199406D01*
X0169620Y0199455D01*
X0169650Y0199502D01*
X0169684Y0199547D01*
X0169721Y0199589D01*
X0169761Y0199629D01*
X0169803Y0199666D01*
X0169848Y0199700D01*
X0169895Y0199730D01*
X0169944Y0199758D01*
X0169995Y0199782D01*
X0170047Y0199803D01*
X0170100Y0199820D01*
X0170155Y0199833D01*
X0170210Y0199842D01*
X0170266Y0199848D01*
X0170322Y0199850D01*
X0170378Y0199848D01*
X0170434Y0199842D01*
X0170489Y0199833D01*
X0170544Y0199820D01*
X0170597Y0199803D01*
X0170649Y0199782D01*
X0170700Y0199758D01*
X0170749Y0199730D01*
X0170796Y0199700D01*
X0170841Y0199666D01*
X0170883Y0199629D01*
X0170923Y0199589D01*
X0170960Y0199547D01*
X0170994Y0199502D01*
X0171024Y0199455D01*
X0171052Y0199406D01*
X0171076Y0199355D01*
X0171097Y0199303D01*
X0171114Y0199250D01*
X0171127Y0199195D01*
X0171136Y0199140D01*
X0171142Y0199084D01*
X0171144Y0199028D01*
X0171350Y0197178D02*
X0171348Y0197115D01*
X0171342Y0197052D01*
X0171332Y0196989D01*
X0171319Y0196927D01*
X0171302Y0196866D01*
X0171281Y0196807D01*
X0171256Y0196748D01*
X0171228Y0196692D01*
X0171196Y0196637D01*
X0171161Y0196584D01*
X0171123Y0196534D01*
X0171082Y0196485D01*
X0171038Y0196440D01*
X0170991Y0196397D01*
X0170942Y0196358D01*
X0170890Y0196321D01*
X0170836Y0196288D01*
X0170780Y0196258D01*
X0170723Y0196231D01*
X0170664Y0196208D01*
X0170603Y0196189D01*
X0170542Y0196174D01*
X0170480Y0196162D01*
X0170417Y0196154D01*
X0170354Y0196150D01*
X0170290Y0196150D01*
X0170227Y0196154D01*
X0170164Y0196162D01*
X0170102Y0196174D01*
X0170041Y0196189D01*
X0169980Y0196208D01*
X0169921Y0196231D01*
X0169864Y0196258D01*
X0169808Y0196288D01*
X0169754Y0196321D01*
X0169702Y0196358D01*
X0169653Y0196397D01*
X0169606Y0196440D01*
X0169562Y0196485D01*
X0169521Y0196534D01*
X0169483Y0196584D01*
X0169448Y0196637D01*
X0169416Y0196692D01*
X0169388Y0196748D01*
X0169363Y0196807D01*
X0169342Y0196866D01*
X0169325Y0196927D01*
X0169312Y0196989D01*
X0169302Y0197052D01*
X0169296Y0197115D01*
X0169294Y0197178D01*
X0169296Y0197241D01*
X0169302Y0197304D01*
X0169312Y0197367D01*
X0169325Y0197429D01*
X0169342Y0197490D01*
X0169363Y0197549D01*
X0169388Y0197608D01*
X0169416Y0197664D01*
X0169448Y0197719D01*
X0169483Y0197772D01*
X0169521Y0197822D01*
X0169562Y0197871D01*
X0169606Y0197916D01*
X0169653Y0197959D01*
X0169702Y0197998D01*
X0169754Y0198035D01*
X0169808Y0198068D01*
X0169864Y0198098D01*
X0169921Y0198125D01*
X0169980Y0198148D01*
X0170041Y0198167D01*
X0170102Y0198182D01*
X0170164Y0198194D01*
X0170227Y0198202D01*
X0170290Y0198206D01*
X0170354Y0198206D01*
X0170417Y0198202D01*
X0170480Y0198194D01*
X0170542Y0198182D01*
X0170603Y0198167D01*
X0170664Y0198148D01*
X0170723Y0198125D01*
X0170780Y0198098D01*
X0170836Y0198068D01*
X0170890Y0198035D01*
X0170942Y0197998D01*
X0170991Y0197959D01*
X0171038Y0197916D01*
X0171082Y0197871D01*
X0171123Y0197822D01*
X0171161Y0197772D01*
X0171196Y0197719D01*
X0171228Y0197664D01*
X0171256Y0197608D01*
X0171281Y0197549D01*
X0171302Y0197490D01*
X0171319Y0197429D01*
X0171332Y0197367D01*
X0171342Y0197304D01*
X0171348Y0197241D01*
X0171350Y0197178D01*
X0161350Y0197794D02*
X0161350Y0198822D01*
X0161350Y0197794D02*
X0160117Y0197794D01*
X0161350Y0197794D02*
X0161348Y0197716D01*
X0161343Y0197638D01*
X0161333Y0197560D01*
X0161320Y0197483D01*
X0161304Y0197406D01*
X0161283Y0197331D01*
X0161260Y0197256D01*
X0161232Y0197183D01*
X0161201Y0197111D01*
X0161167Y0197041D01*
X0161130Y0196972D01*
X0161089Y0196905D01*
X0161045Y0196840D01*
X0160998Y0196778D01*
X0160948Y0196717D01*
X0160896Y0196660D01*
X0160840Y0196604D01*
X0160783Y0196552D01*
X0160722Y0196502D01*
X0160660Y0196455D01*
X0160595Y0196411D01*
X0160528Y0196370D01*
X0160459Y0196333D01*
X0160389Y0196299D01*
X0160317Y0196268D01*
X0160244Y0196240D01*
X0160169Y0196217D01*
X0160094Y0196196D01*
X0160017Y0196180D01*
X0159940Y0196167D01*
X0159862Y0196157D01*
X0159784Y0196152D01*
X0159706Y0196150D01*
X0160117Y0197795D02*
X0160061Y0197797D01*
X0160005Y0197803D01*
X0159950Y0197812D01*
X0159895Y0197825D01*
X0159842Y0197842D01*
X0159790Y0197863D01*
X0159739Y0197887D01*
X0159690Y0197915D01*
X0159643Y0197945D01*
X0159598Y0197979D01*
X0159556Y0198016D01*
X0159516Y0198056D01*
X0159479Y0198098D01*
X0159445Y0198143D01*
X0159415Y0198190D01*
X0159387Y0198239D01*
X0159363Y0198290D01*
X0159342Y0198342D01*
X0159325Y0198395D01*
X0159312Y0198450D01*
X0159303Y0198505D01*
X0159297Y0198561D01*
X0159295Y0198617D01*
X0159294Y0198617D02*
X0159294Y0198822D01*
X0159296Y0198885D01*
X0159302Y0198948D01*
X0159312Y0199011D01*
X0159325Y0199073D01*
X0159342Y0199134D01*
X0159363Y0199193D01*
X0159388Y0199252D01*
X0159416Y0199308D01*
X0159448Y0199363D01*
X0159483Y0199416D01*
X0159521Y0199466D01*
X0159562Y0199515D01*
X0159606Y0199560D01*
X0159653Y0199603D01*
X0159702Y0199642D01*
X0159754Y0199679D01*
X0159808Y0199712D01*
X0159864Y0199742D01*
X0159921Y0199769D01*
X0159980Y0199792D01*
X0160041Y0199811D01*
X0160102Y0199826D01*
X0160164Y0199838D01*
X0160227Y0199846D01*
X0160290Y0199850D01*
X0160354Y0199850D01*
X0160417Y0199846D01*
X0160480Y0199838D01*
X0160542Y0199826D01*
X0160603Y0199811D01*
X0160664Y0199792D01*
X0160723Y0199769D01*
X0160780Y0199742D01*
X0160836Y0199712D01*
X0160890Y0199679D01*
X0160942Y0199642D01*
X0160991Y0199603D01*
X0161038Y0199560D01*
X0161082Y0199515D01*
X0161123Y0199466D01*
X0161161Y0199416D01*
X0161196Y0199363D01*
X0161228Y0199308D01*
X0161256Y0199252D01*
X0161281Y0199193D01*
X0161302Y0199134D01*
X0161319Y0199073D01*
X0161332Y0199011D01*
X0161342Y0198948D01*
X0161348Y0198885D01*
X0161350Y0198822D01*
X0151603Y0196664D02*
X0151558Y0196760D01*
X0151517Y0196858D01*
X0151479Y0196958D01*
X0151444Y0197058D01*
X0151413Y0197160D01*
X0151385Y0197263D01*
X0151362Y0197366D01*
X0151341Y0197471D01*
X0151325Y0197576D01*
X0151312Y0197681D01*
X0151302Y0197787D01*
X0151297Y0197894D01*
X0151295Y0198000D01*
X0153350Y0198000D02*
X0153348Y0198106D01*
X0153343Y0198213D01*
X0153333Y0198319D01*
X0153320Y0198424D01*
X0153304Y0198529D01*
X0153283Y0198634D01*
X0153260Y0198737D01*
X0153232Y0198840D01*
X0153201Y0198942D01*
X0153166Y0199042D01*
X0153128Y0199142D01*
X0153087Y0199240D01*
X0153042Y0199336D01*
X0153144Y0199028D02*
X0151500Y0196972D01*
X0152322Y0196150D02*
X0152374Y0196152D01*
X0152427Y0196157D01*
X0152478Y0196166D01*
X0152529Y0196179D01*
X0152579Y0196195D01*
X0152628Y0196214D01*
X0152675Y0196237D01*
X0152721Y0196263D01*
X0152764Y0196292D01*
X0152806Y0196324D01*
X0152845Y0196358D01*
X0152882Y0196396D01*
X0152916Y0196436D01*
X0152948Y0196478D01*
X0152976Y0196522D01*
X0153001Y0196568D01*
X0153023Y0196615D01*
X0153042Y0196664D01*
X0152322Y0196150D02*
X0152270Y0196152D01*
X0152217Y0196157D01*
X0152166Y0196166D01*
X0152115Y0196179D01*
X0152065Y0196195D01*
X0152016Y0196214D01*
X0151969Y0196237D01*
X0151923Y0196263D01*
X0151880Y0196292D01*
X0151838Y0196324D01*
X0151799Y0196358D01*
X0151762Y0196396D01*
X0151728Y0196436D01*
X0151696Y0196478D01*
X0151668Y0196522D01*
X0151643Y0196568D01*
X0151621Y0196615D01*
X0151602Y0196664D01*
X0153042Y0196664D02*
X0153087Y0196760D01*
X0153128Y0196858D01*
X0153166Y0196958D01*
X0153201Y0197058D01*
X0153232Y0197160D01*
X0153260Y0197263D01*
X0153283Y0197366D01*
X0153304Y0197471D01*
X0153320Y0197576D01*
X0153333Y0197681D01*
X0153343Y0197787D01*
X0153348Y0197894D01*
X0153350Y0198000D01*
X0151295Y0198000D02*
X0151297Y0198106D01*
X0151302Y0198213D01*
X0151312Y0198319D01*
X0151325Y0198424D01*
X0151341Y0198529D01*
X0151362Y0198634D01*
X0151385Y0198737D01*
X0151413Y0198840D01*
X0151444Y0198942D01*
X0151479Y0199042D01*
X0151517Y0199142D01*
X0151558Y0199240D01*
X0151603Y0199336D01*
X0152322Y0199850D02*
X0152374Y0199848D01*
X0152427Y0199843D01*
X0152478Y0199834D01*
X0152529Y0199821D01*
X0152579Y0199805D01*
X0152628Y0199786D01*
X0152675Y0199763D01*
X0152721Y0199737D01*
X0152764Y0199708D01*
X0152806Y0199676D01*
X0152845Y0199642D01*
X0152882Y0199604D01*
X0152916Y0199564D01*
X0152948Y0199522D01*
X0152976Y0199478D01*
X0153001Y0199432D01*
X0153023Y0199385D01*
X0153042Y0199336D01*
X0152322Y0199850D02*
X0152270Y0199848D01*
X0152217Y0199843D01*
X0152166Y0199834D01*
X0152115Y0199821D01*
X0152065Y0199805D01*
X0152016Y0199786D01*
X0151969Y0199763D01*
X0151923Y0199737D01*
X0151880Y0199708D01*
X0151838Y0199676D01*
X0151799Y0199642D01*
X0151762Y0199604D01*
X0151728Y0199564D01*
X0151696Y0199522D01*
X0151668Y0199478D01*
X0151643Y0199432D01*
X0151621Y0199385D01*
X0151602Y0199336D01*
X0148722Y0199850D02*
X0148722Y0196150D01*
X0147694Y0196150D02*
X0149750Y0196150D01*
X0147694Y0199028D02*
X0148722Y0199850D01*
X0142322Y0199850D02*
X0142322Y0196150D01*
X0141294Y0196150D02*
X0143350Y0196150D01*
X0139750Y0196150D02*
X0137694Y0196150D01*
X0138722Y0196150D02*
X0138722Y0199850D01*
X0137694Y0199028D01*
X0133042Y0198206D02*
X0131294Y0196150D01*
X0133350Y0196150D01*
X0131295Y0199028D02*
X0131318Y0199092D01*
X0131344Y0199155D01*
X0131374Y0199216D01*
X0131407Y0199275D01*
X0131444Y0199332D01*
X0131484Y0199387D01*
X0131527Y0199439D01*
X0131573Y0199489D01*
X0131621Y0199537D01*
X0131673Y0199581D01*
X0131726Y0199623D01*
X0131782Y0199661D01*
X0131840Y0199696D01*
X0131900Y0199728D01*
X0131962Y0199756D01*
X0132025Y0199781D01*
X0132090Y0199802D01*
X0132156Y0199819D01*
X0132222Y0199833D01*
X0132289Y0199842D01*
X0132357Y0199848D01*
X0132425Y0199850D01*
X0132483Y0199848D01*
X0132541Y0199843D01*
X0132598Y0199834D01*
X0132655Y0199821D01*
X0132711Y0199805D01*
X0132766Y0199785D01*
X0132819Y0199762D01*
X0132871Y0199736D01*
X0132921Y0199706D01*
X0132969Y0199673D01*
X0133015Y0199638D01*
X0133058Y0199599D01*
X0133099Y0199558D01*
X0133138Y0199515D01*
X0133173Y0199469D01*
X0133206Y0199421D01*
X0133236Y0199371D01*
X0133262Y0199319D01*
X0133285Y0199266D01*
X0133305Y0199211D01*
X0133321Y0199155D01*
X0133334Y0199098D01*
X0133343Y0199041D01*
X0133348Y0198983D01*
X0133350Y0198925D01*
X0133348Y0198863D01*
X0133342Y0198801D01*
X0133333Y0198740D01*
X0133319Y0198680D01*
X0133302Y0198620D01*
X0133281Y0198562D01*
X0133257Y0198505D01*
X0133229Y0198450D01*
X0133198Y0198396D01*
X0133163Y0198345D01*
X0133126Y0198296D01*
X0133085Y0198249D01*
X0133042Y0198205D01*
X0129750Y0196150D02*
X0127694Y0196150D01*
X0128722Y0196150D02*
X0128722Y0199850D01*
X0127694Y0199028D01*
X0122528Y0198206D02*
X0122584Y0198208D01*
X0122640Y0198214D01*
X0122695Y0198223D01*
X0122750Y0198236D01*
X0122803Y0198253D01*
X0122855Y0198274D01*
X0122906Y0198298D01*
X0122955Y0198326D01*
X0123002Y0198356D01*
X0123047Y0198390D01*
X0123089Y0198427D01*
X0123129Y0198467D01*
X0123166Y0198509D01*
X0123200Y0198554D01*
X0123230Y0198601D01*
X0123258Y0198650D01*
X0123282Y0198701D01*
X0123303Y0198753D01*
X0123320Y0198806D01*
X0123333Y0198861D01*
X0123342Y0198916D01*
X0123348Y0198972D01*
X0123350Y0199028D01*
X0123348Y0199084D01*
X0123342Y0199140D01*
X0123333Y0199195D01*
X0123320Y0199250D01*
X0123303Y0199303D01*
X0123282Y0199355D01*
X0123258Y0199406D01*
X0123230Y0199455D01*
X0123200Y0199502D01*
X0123166Y0199547D01*
X0123129Y0199589D01*
X0123089Y0199629D01*
X0123047Y0199666D01*
X0123002Y0199700D01*
X0122955Y0199730D01*
X0122906Y0199758D01*
X0122855Y0199782D01*
X0122803Y0199803D01*
X0122750Y0199820D01*
X0122695Y0199833D01*
X0122640Y0199842D01*
X0122584Y0199848D01*
X0122528Y0199850D01*
X0121294Y0199850D01*
X0121706Y0198206D02*
X0122528Y0198206D01*
X0122322Y0198206D02*
X0122385Y0198204D01*
X0122448Y0198198D01*
X0122511Y0198188D01*
X0122573Y0198175D01*
X0122634Y0198158D01*
X0122693Y0198137D01*
X0122752Y0198112D01*
X0122808Y0198084D01*
X0122863Y0198052D01*
X0122916Y0198017D01*
X0122966Y0197979D01*
X0123015Y0197938D01*
X0123060Y0197894D01*
X0123103Y0197847D01*
X0123142Y0197798D01*
X0123179Y0197746D01*
X0123212Y0197692D01*
X0123242Y0197636D01*
X0123269Y0197579D01*
X0123292Y0197520D01*
X0123311Y0197459D01*
X0123326Y0197398D01*
X0123338Y0197336D01*
X0123346Y0197273D01*
X0123350Y0197210D01*
X0123350Y0197146D01*
X0123346Y0197083D01*
X0123338Y0197020D01*
X0123326Y0196958D01*
X0123311Y0196897D01*
X0123292Y0196836D01*
X0123269Y0196777D01*
X0123242Y0196720D01*
X0123212Y0196664D01*
X0123179Y0196610D01*
X0123142Y0196558D01*
X0123103Y0196509D01*
X0123060Y0196462D01*
X0123015Y0196418D01*
X0122966Y0196377D01*
X0122916Y0196339D01*
X0122863Y0196304D01*
X0122808Y0196272D01*
X0122752Y0196244D01*
X0122693Y0196219D01*
X0122634Y0196198D01*
X0122573Y0196181D01*
X0122511Y0196168D01*
X0122448Y0196158D01*
X0122385Y0196152D01*
X0122322Y0196150D01*
X0121294Y0196150D01*
X0119750Y0196150D02*
X0117694Y0196150D01*
X0118722Y0196150D02*
X0118722Y0199850D01*
X0117694Y0199028D01*
X0110850Y0199822D02*
X0110850Y0200850D01*
X0107150Y0200850D01*
X0108383Y0200850D02*
X0108383Y0199822D01*
X0108385Y0199774D01*
X0108391Y0199725D01*
X0108400Y0199678D01*
X0108413Y0199631D01*
X0108430Y0199586D01*
X0108450Y0199542D01*
X0108474Y0199500D01*
X0108501Y0199459D01*
X0108531Y0199421D01*
X0108564Y0199386D01*
X0108599Y0199353D01*
X0108637Y0199323D01*
X0108678Y0199296D01*
X0108720Y0199272D01*
X0108764Y0199252D01*
X0108809Y0199235D01*
X0108856Y0199222D01*
X0108903Y0199213D01*
X0108952Y0199207D01*
X0109000Y0199205D01*
X0109000Y0199206D02*
X0110233Y0199206D01*
X0110233Y0199205D02*
X0110281Y0199207D01*
X0110330Y0199213D01*
X0110377Y0199222D01*
X0110424Y0199235D01*
X0110469Y0199252D01*
X0110513Y0199272D01*
X0110555Y0199296D01*
X0110596Y0199323D01*
X0110634Y0199353D01*
X0110669Y0199386D01*
X0110702Y0199421D01*
X0110732Y0199459D01*
X0110759Y0199500D01*
X0110783Y0199542D01*
X0110803Y0199586D01*
X0110820Y0199631D01*
X0110833Y0199678D01*
X0110842Y0199725D01*
X0110848Y0199774D01*
X0110850Y0199822D01*
X0110850Y0197628D02*
X0109000Y0197628D01*
X0108952Y0197626D01*
X0108903Y0197620D01*
X0108856Y0197611D01*
X0108809Y0197598D01*
X0108764Y0197581D01*
X0108720Y0197561D01*
X0108678Y0197537D01*
X0108637Y0197510D01*
X0108599Y0197480D01*
X0108564Y0197447D01*
X0108531Y0197412D01*
X0108501Y0197374D01*
X0108474Y0197333D01*
X0108450Y0197291D01*
X0108430Y0197247D01*
X0108413Y0197202D01*
X0108400Y0197155D01*
X0108391Y0197108D01*
X0108385Y0197059D01*
X0108383Y0197011D01*
X0108383Y0195984D01*
X0110850Y0195984D01*
X0110850Y0194250D02*
X0110850Y0193222D01*
X0110848Y0193174D01*
X0110842Y0193125D01*
X0110833Y0193078D01*
X0110820Y0193031D01*
X0110803Y0192986D01*
X0110783Y0192942D01*
X0110759Y0192900D01*
X0110732Y0192859D01*
X0110702Y0192821D01*
X0110669Y0192786D01*
X0110634Y0192753D01*
X0110596Y0192723D01*
X0110555Y0192696D01*
X0110513Y0192672D01*
X0110469Y0192652D01*
X0110424Y0192635D01*
X0110377Y0192622D01*
X0110330Y0192613D01*
X0110281Y0192607D01*
X0110233Y0192605D01*
X0110233Y0192606D02*
X0109000Y0192606D01*
X0109000Y0192605D02*
X0108952Y0192607D01*
X0108903Y0192613D01*
X0108856Y0192622D01*
X0108809Y0192635D01*
X0108764Y0192652D01*
X0108720Y0192672D01*
X0108678Y0192696D01*
X0108637Y0192723D01*
X0108599Y0192753D01*
X0108564Y0192786D01*
X0108531Y0192821D01*
X0108501Y0192859D01*
X0108474Y0192900D01*
X0108450Y0192942D01*
X0108430Y0192986D01*
X0108413Y0193031D01*
X0108400Y0193078D01*
X0108391Y0193125D01*
X0108385Y0193174D01*
X0108383Y0193222D01*
X0108383Y0194250D01*
X0111467Y0194250D01*
X0111515Y0194248D01*
X0111564Y0194242D01*
X0111611Y0194233D01*
X0111658Y0194220D01*
X0111703Y0194203D01*
X0111747Y0194183D01*
X0111789Y0194159D01*
X0111830Y0194132D01*
X0111868Y0194102D01*
X0111903Y0194069D01*
X0111936Y0194034D01*
X0111966Y0193996D01*
X0111993Y0193955D01*
X0112017Y0193913D01*
X0112037Y0193869D01*
X0112054Y0193824D01*
X0112067Y0193777D01*
X0112076Y0193730D01*
X0112082Y0193681D01*
X0112084Y0193633D01*
X0112083Y0193633D02*
X0112083Y0192811D01*
X0100850Y0192185D02*
X0097150Y0190951D01*
X0100850Y0189718D01*
X0099925Y0190026D02*
X0099925Y0191876D01*
X0099206Y0193666D02*
X0099206Y0194694D01*
X0099206Y0194899D02*
X0100850Y0195722D01*
X0100233Y0197209D02*
X0099206Y0197209D01*
X0099617Y0197209D02*
X0099617Y0198854D01*
X0099206Y0198854D01*
X0099206Y0198853D02*
X0099150Y0198851D01*
X0099094Y0198845D01*
X0099039Y0198836D01*
X0098984Y0198823D01*
X0098931Y0198806D01*
X0098879Y0198785D01*
X0098828Y0198761D01*
X0098779Y0198733D01*
X0098732Y0198703D01*
X0098687Y0198669D01*
X0098645Y0198632D01*
X0098605Y0198592D01*
X0098568Y0198550D01*
X0098534Y0198505D01*
X0098504Y0198458D01*
X0098476Y0198409D01*
X0098452Y0198358D01*
X0098431Y0198306D01*
X0098414Y0198253D01*
X0098401Y0198198D01*
X0098392Y0198143D01*
X0098386Y0198087D01*
X0098384Y0198031D01*
X0098386Y0197975D01*
X0098392Y0197919D01*
X0098401Y0197864D01*
X0098414Y0197809D01*
X0098431Y0197756D01*
X0098452Y0197704D01*
X0098476Y0197653D01*
X0098504Y0197604D01*
X0098534Y0197557D01*
X0098568Y0197512D01*
X0098605Y0197470D01*
X0098645Y0197430D01*
X0098687Y0197393D01*
X0098732Y0197359D01*
X0098779Y0197329D01*
X0098828Y0197301D01*
X0098879Y0197277D01*
X0098931Y0197256D01*
X0098984Y0197239D01*
X0099039Y0197226D01*
X0099094Y0197217D01*
X0099150Y0197211D01*
X0099206Y0197209D01*
X0100233Y0197209D02*
X0100281Y0197211D01*
X0100330Y0197217D01*
X0100377Y0197226D01*
X0100424Y0197239D01*
X0100469Y0197256D01*
X0100513Y0197276D01*
X0100555Y0197300D01*
X0100596Y0197327D01*
X0100634Y0197357D01*
X0100669Y0197390D01*
X0100702Y0197425D01*
X0100732Y0197463D01*
X0100759Y0197504D01*
X0100783Y0197546D01*
X0100803Y0197590D01*
X0100820Y0197635D01*
X0100833Y0197682D01*
X0100842Y0197729D01*
X0100848Y0197778D01*
X0100850Y0197826D01*
X0100850Y0198854D01*
X0100850Y0200528D02*
X0097767Y0200528D01*
X0097767Y0200527D02*
X0097719Y0200529D01*
X0097670Y0200535D01*
X0097623Y0200544D01*
X0097576Y0200557D01*
X0097531Y0200574D01*
X0097487Y0200594D01*
X0097445Y0200618D01*
X0097404Y0200645D01*
X0097366Y0200675D01*
X0097331Y0200708D01*
X0097298Y0200743D01*
X0097268Y0200781D01*
X0097241Y0200822D01*
X0097217Y0200864D01*
X0097197Y0200908D01*
X0097180Y0200953D01*
X0097167Y0201000D01*
X0097158Y0201047D01*
X0097152Y0201096D01*
X0097150Y0201144D01*
X0097150Y0201350D01*
X0098383Y0201350D02*
X0098383Y0200117D01*
X0099206Y0194694D02*
X0099204Y0194757D01*
X0099198Y0194820D01*
X0099188Y0194883D01*
X0099175Y0194945D01*
X0099158Y0195006D01*
X0099137Y0195065D01*
X0099112Y0195124D01*
X0099084Y0195180D01*
X0099052Y0195235D01*
X0099017Y0195288D01*
X0098979Y0195338D01*
X0098938Y0195387D01*
X0098894Y0195432D01*
X0098847Y0195475D01*
X0098798Y0195514D01*
X0098746Y0195551D01*
X0098692Y0195584D01*
X0098636Y0195614D01*
X0098579Y0195641D01*
X0098520Y0195664D01*
X0098459Y0195683D01*
X0098398Y0195698D01*
X0098336Y0195710D01*
X0098273Y0195718D01*
X0098210Y0195722D01*
X0098146Y0195722D01*
X0098083Y0195718D01*
X0098020Y0195710D01*
X0097958Y0195698D01*
X0097897Y0195683D01*
X0097836Y0195664D01*
X0097777Y0195641D01*
X0097720Y0195614D01*
X0097664Y0195584D01*
X0097610Y0195551D01*
X0097558Y0195514D01*
X0097509Y0195475D01*
X0097462Y0195432D01*
X0097418Y0195387D01*
X0097377Y0195338D01*
X0097339Y0195288D01*
X0097304Y0195235D01*
X0097272Y0195180D01*
X0097244Y0195124D01*
X0097219Y0195065D01*
X0097198Y0195006D01*
X0097181Y0194945D01*
X0097168Y0194883D01*
X0097158Y0194820D01*
X0097152Y0194757D01*
X0097150Y0194694D01*
X0097150Y0193666D01*
X0100850Y0193666D01*
X0090850Y0195369D02*
X0090850Y0196397D01*
X0090848Y0196459D01*
X0090843Y0196521D01*
X0090833Y0196582D01*
X0090820Y0196643D01*
X0090803Y0196703D01*
X0090783Y0196762D01*
X0090759Y0196819D01*
X0090732Y0196875D01*
X0090702Y0196929D01*
X0090668Y0196981D01*
X0090631Y0197031D01*
X0090591Y0197079D01*
X0090549Y0197124D01*
X0090504Y0197166D01*
X0090456Y0197206D01*
X0090406Y0197243D01*
X0090354Y0197277D01*
X0090300Y0197307D01*
X0090244Y0197334D01*
X0090187Y0197358D01*
X0090128Y0197378D01*
X0090068Y0197395D01*
X0090007Y0197408D01*
X0089946Y0197418D01*
X0089884Y0197423D01*
X0089822Y0197425D01*
X0089822Y0197424D02*
X0088178Y0197424D01*
X0088178Y0197425D02*
X0088116Y0197423D01*
X0088054Y0197418D01*
X0087993Y0197408D01*
X0087932Y0197395D01*
X0087872Y0197378D01*
X0087813Y0197358D01*
X0087756Y0197334D01*
X0087700Y0197307D01*
X0087646Y0197277D01*
X0087594Y0197243D01*
X0087544Y0197206D01*
X0087496Y0197166D01*
X0087451Y0197124D01*
X0087409Y0197079D01*
X0087369Y0197031D01*
X0087332Y0196981D01*
X0087298Y0196929D01*
X0087268Y0196875D01*
X0087241Y0196819D01*
X0087217Y0196762D01*
X0087197Y0196703D01*
X0087180Y0196643D01*
X0087167Y0196582D01*
X0087157Y0196521D01*
X0087152Y0196459D01*
X0087150Y0196397D01*
X0087150Y0195369D01*
X0090850Y0195369D01*
X0089308Y0193413D02*
X0088692Y0192283D01*
X0087150Y0192694D02*
X0087152Y0192770D01*
X0087158Y0192846D01*
X0087167Y0192922D01*
X0087180Y0192997D01*
X0087197Y0193072D01*
X0087218Y0193145D01*
X0087242Y0193218D01*
X0087269Y0193289D01*
X0087301Y0193358D01*
X0087335Y0193427D01*
X0087373Y0193493D01*
X0087414Y0193557D01*
X0087458Y0193619D01*
X0088691Y0192283D02*
X0088662Y0192237D01*
X0088630Y0192194D01*
X0088596Y0192152D01*
X0088558Y0192113D01*
X0088519Y0192076D01*
X0088477Y0192042D01*
X0088432Y0192010D01*
X0088386Y0191982D01*
X0088338Y0191957D01*
X0088289Y0191934D01*
X0088238Y0191916D01*
X0088186Y0191900D01*
X0088134Y0191888D01*
X0088080Y0191879D01*
X0088026Y0191874D01*
X0087972Y0191872D01*
X0087916Y0191874D01*
X0087860Y0191880D01*
X0087805Y0191889D01*
X0087750Y0191902D01*
X0087697Y0191919D01*
X0087645Y0191940D01*
X0087594Y0191964D01*
X0087545Y0191992D01*
X0087498Y0192022D01*
X0087453Y0192056D01*
X0087411Y0192093D01*
X0087371Y0192133D01*
X0087334Y0192175D01*
X0087300Y0192220D01*
X0087270Y0192267D01*
X0087242Y0192316D01*
X0087218Y0192367D01*
X0087197Y0192419D01*
X0087180Y0192472D01*
X0087167Y0192527D01*
X0087158Y0192582D01*
X0087152Y0192638D01*
X0087150Y0192694D01*
X0090336Y0191769D02*
X0090392Y0191827D01*
X0090445Y0191887D01*
X0090496Y0191950D01*
X0090543Y0192016D01*
X0090587Y0192083D01*
X0090628Y0192153D01*
X0090666Y0192224D01*
X0090700Y0192297D01*
X0090731Y0192371D01*
X0090759Y0192447D01*
X0090783Y0192524D01*
X0090803Y0192602D01*
X0090820Y0192681D01*
X0090833Y0192761D01*
X0090843Y0192841D01*
X0090848Y0192921D01*
X0090850Y0193002D01*
X0090848Y0193058D01*
X0090842Y0193114D01*
X0090833Y0193169D01*
X0090820Y0193224D01*
X0090803Y0193277D01*
X0090782Y0193329D01*
X0090758Y0193380D01*
X0090730Y0193429D01*
X0090700Y0193476D01*
X0090666Y0193521D01*
X0090629Y0193563D01*
X0090589Y0193603D01*
X0090547Y0193640D01*
X0090502Y0193674D01*
X0090455Y0193704D01*
X0090406Y0193732D01*
X0090355Y0193756D01*
X0090303Y0193777D01*
X0090250Y0193794D01*
X0090195Y0193807D01*
X0090140Y0193816D01*
X0090084Y0193822D01*
X0090028Y0193824D01*
X0089974Y0193822D01*
X0089920Y0193817D01*
X0089866Y0193808D01*
X0089814Y0193796D01*
X0089762Y0193780D01*
X0089711Y0193762D01*
X0089662Y0193739D01*
X0089614Y0193714D01*
X0089568Y0193686D01*
X0089523Y0193654D01*
X0089481Y0193620D01*
X0089442Y0193583D01*
X0089404Y0193544D01*
X0089370Y0193502D01*
X0089338Y0193459D01*
X0089309Y0193413D01*
X0090850Y0198883D02*
X0087150Y0200117D01*
X0090850Y0201350D01*
X0089925Y0201042D02*
X0089925Y0199192D01*
X0080850Y0199706D02*
X0080850Y0201350D01*
X0080850Y0199706D02*
X0077150Y0199706D01*
X0077150Y0198213D02*
X0077150Y0197391D01*
X0077152Y0197335D01*
X0077158Y0197279D01*
X0077167Y0197224D01*
X0077180Y0197169D01*
X0077197Y0197116D01*
X0077218Y0197063D01*
X0077242Y0197013D01*
X0077270Y0196964D01*
X0077300Y0196917D01*
X0077334Y0196872D01*
X0077371Y0196830D01*
X0077411Y0196790D01*
X0077453Y0196753D01*
X0077498Y0196719D01*
X0077545Y0196689D01*
X0077594Y0196661D01*
X0077645Y0196637D01*
X0077697Y0196616D01*
X0077750Y0196599D01*
X0077805Y0196586D01*
X0077860Y0196577D01*
X0077916Y0196571D01*
X0077972Y0196569D01*
X0080028Y0196569D01*
X0080084Y0196571D01*
X0080140Y0196577D01*
X0080195Y0196586D01*
X0080250Y0196599D01*
X0080303Y0196616D01*
X0080355Y0196637D01*
X0080406Y0196661D01*
X0080455Y0196689D01*
X0080502Y0196719D01*
X0080547Y0196753D01*
X0080589Y0196790D01*
X0080629Y0196830D01*
X0080666Y0196872D01*
X0080700Y0196917D01*
X0080730Y0196964D01*
X0080758Y0197013D01*
X0080782Y0197064D01*
X0080803Y0197116D01*
X0080820Y0197169D01*
X0080833Y0197224D01*
X0080842Y0197279D01*
X0080848Y0197335D01*
X0080850Y0197391D01*
X0080850Y0198213D01*
X0079308Y0194743D02*
X0078692Y0193613D01*
X0077150Y0194024D02*
X0077152Y0194100D01*
X0077158Y0194176D01*
X0077167Y0194252D01*
X0077180Y0194327D01*
X0077197Y0194402D01*
X0077218Y0194475D01*
X0077242Y0194548D01*
X0077269Y0194619D01*
X0077301Y0194688D01*
X0077335Y0194757D01*
X0077373Y0194823D01*
X0077414Y0194887D01*
X0077458Y0194949D01*
X0078691Y0193613D02*
X0078662Y0193567D01*
X0078630Y0193524D01*
X0078596Y0193482D01*
X0078558Y0193443D01*
X0078519Y0193406D01*
X0078477Y0193372D01*
X0078432Y0193340D01*
X0078386Y0193312D01*
X0078338Y0193287D01*
X0078289Y0193264D01*
X0078238Y0193246D01*
X0078186Y0193230D01*
X0078134Y0193218D01*
X0078080Y0193209D01*
X0078026Y0193204D01*
X0077972Y0193202D01*
X0077916Y0193204D01*
X0077860Y0193210D01*
X0077805Y0193219D01*
X0077750Y0193232D01*
X0077697Y0193249D01*
X0077645Y0193270D01*
X0077594Y0193294D01*
X0077545Y0193322D01*
X0077498Y0193352D01*
X0077453Y0193386D01*
X0077411Y0193423D01*
X0077371Y0193463D01*
X0077334Y0193505D01*
X0077300Y0193550D01*
X0077270Y0193597D01*
X0077242Y0193646D01*
X0077218Y0193697D01*
X0077197Y0193749D01*
X0077180Y0193802D01*
X0077167Y0193857D01*
X0077158Y0193912D01*
X0077152Y0193968D01*
X0077150Y0194024D01*
X0080336Y0193099D02*
X0080392Y0193157D01*
X0080445Y0193217D01*
X0080496Y0193280D01*
X0080543Y0193346D01*
X0080587Y0193413D01*
X0080628Y0193483D01*
X0080666Y0193554D01*
X0080700Y0193627D01*
X0080731Y0193701D01*
X0080759Y0193777D01*
X0080783Y0193854D01*
X0080803Y0193932D01*
X0080820Y0194011D01*
X0080833Y0194091D01*
X0080843Y0194171D01*
X0080848Y0194251D01*
X0080850Y0194332D01*
X0080848Y0194388D01*
X0080842Y0194444D01*
X0080833Y0194499D01*
X0080820Y0194554D01*
X0080803Y0194607D01*
X0080782Y0194659D01*
X0080758Y0194710D01*
X0080730Y0194759D01*
X0080700Y0194806D01*
X0080666Y0194851D01*
X0080629Y0194893D01*
X0080589Y0194933D01*
X0080547Y0194970D01*
X0080502Y0195004D01*
X0080455Y0195034D01*
X0080406Y0195062D01*
X0080355Y0195086D01*
X0080303Y0195107D01*
X0080250Y0195124D01*
X0080195Y0195137D01*
X0080140Y0195146D01*
X0080084Y0195152D01*
X0080028Y0195154D01*
X0079974Y0195152D01*
X0079920Y0195147D01*
X0079866Y0195138D01*
X0079814Y0195126D01*
X0079762Y0195110D01*
X0079711Y0195092D01*
X0079662Y0195069D01*
X0079614Y0195044D01*
X0079568Y0195016D01*
X0079523Y0194984D01*
X0079481Y0194950D01*
X0079442Y0194913D01*
X0079404Y0194874D01*
X0079370Y0194832D01*
X0079338Y0194789D01*
X0079309Y0194743D01*
X0129650Y0210150D02*
X0130678Y0210150D01*
X0130740Y0210152D01*
X0130802Y0210157D01*
X0130863Y0210167D01*
X0130924Y0210180D01*
X0130984Y0210197D01*
X0131043Y0210217D01*
X0131100Y0210241D01*
X0131156Y0210268D01*
X0131210Y0210298D01*
X0131262Y0210332D01*
X0131312Y0210369D01*
X0131360Y0210409D01*
X0131405Y0210451D01*
X0131447Y0210496D01*
X0131487Y0210544D01*
X0131524Y0210594D01*
X0131558Y0210646D01*
X0131588Y0210700D01*
X0131615Y0210756D01*
X0131639Y0210813D01*
X0131659Y0210872D01*
X0131676Y0210932D01*
X0131689Y0210993D01*
X0131699Y0211054D01*
X0131704Y0211116D01*
X0131706Y0211178D01*
X0131706Y0212822D01*
X0131704Y0212884D01*
X0131699Y0212946D01*
X0131689Y0213007D01*
X0131676Y0213068D01*
X0131659Y0213128D01*
X0131639Y0213187D01*
X0131615Y0213244D01*
X0131588Y0213300D01*
X0131558Y0213354D01*
X0131524Y0213406D01*
X0131487Y0213456D01*
X0131447Y0213504D01*
X0131405Y0213549D01*
X0131360Y0213591D01*
X0131312Y0213631D01*
X0131262Y0213668D01*
X0131210Y0213702D01*
X0131156Y0213732D01*
X0131100Y0213759D01*
X0131043Y0213783D01*
X0130984Y0213803D01*
X0130924Y0213820D01*
X0130863Y0213833D01*
X0130802Y0213843D01*
X0130740Y0213848D01*
X0130678Y0213850D01*
X0129650Y0213850D01*
X0129650Y0210150D01*
X0133318Y0210150D02*
X0133318Y0212617D01*
X0133421Y0213644D02*
X0133215Y0213644D01*
X0133215Y0213850D01*
X0133421Y0213850D01*
X0133421Y0213644D01*
X0134758Y0212000D02*
X0134758Y0210767D01*
X0134757Y0210767D02*
X0134759Y0210719D01*
X0134765Y0210670D01*
X0134774Y0210623D01*
X0134787Y0210576D01*
X0134804Y0210531D01*
X0134824Y0210487D01*
X0134848Y0210445D01*
X0134875Y0210404D01*
X0134905Y0210366D01*
X0134938Y0210331D01*
X0134973Y0210298D01*
X0135011Y0210268D01*
X0135052Y0210241D01*
X0135094Y0210217D01*
X0135138Y0210197D01*
X0135183Y0210180D01*
X0135230Y0210167D01*
X0135277Y0210158D01*
X0135326Y0210152D01*
X0135374Y0210150D01*
X0136402Y0210150D01*
X0136402Y0209533D02*
X0136402Y0212617D01*
X0135374Y0212617D01*
X0135326Y0212615D01*
X0135277Y0212609D01*
X0135230Y0212600D01*
X0135183Y0212587D01*
X0135138Y0212570D01*
X0135094Y0212550D01*
X0135052Y0212526D01*
X0135011Y0212499D01*
X0134973Y0212469D01*
X0134938Y0212436D01*
X0134905Y0212401D01*
X0134875Y0212363D01*
X0134848Y0212322D01*
X0134824Y0212280D01*
X0134804Y0212236D01*
X0134787Y0212191D01*
X0134774Y0212144D01*
X0134765Y0212097D01*
X0134759Y0212048D01*
X0134757Y0212000D01*
X0136402Y0209533D02*
X0136400Y0209485D01*
X0136394Y0209436D01*
X0136385Y0209389D01*
X0136372Y0209342D01*
X0136355Y0209297D01*
X0136335Y0209253D01*
X0136311Y0209211D01*
X0136284Y0209170D01*
X0136254Y0209132D01*
X0136221Y0209097D01*
X0136186Y0209064D01*
X0136148Y0209034D01*
X0136107Y0209007D01*
X0136065Y0208983D01*
X0136021Y0208963D01*
X0135976Y0208946D01*
X0135929Y0208933D01*
X0135882Y0208924D01*
X0135833Y0208918D01*
X0135785Y0208916D01*
X0135785Y0208917D02*
X0134963Y0208917D01*
X0137998Y0210150D02*
X0137998Y0212617D01*
X0138101Y0213644D02*
X0137895Y0213644D01*
X0137895Y0213850D01*
X0138101Y0213850D01*
X0138101Y0213644D01*
X0139153Y0212617D02*
X0140386Y0212617D01*
X0139564Y0213850D02*
X0139564Y0210767D01*
X0139566Y0210719D01*
X0139572Y0210670D01*
X0139581Y0210623D01*
X0139594Y0210576D01*
X0139611Y0210531D01*
X0139631Y0210487D01*
X0139655Y0210445D01*
X0139682Y0210404D01*
X0139712Y0210366D01*
X0139745Y0210331D01*
X0139780Y0210298D01*
X0139818Y0210268D01*
X0139859Y0210241D01*
X0139901Y0210217D01*
X0139945Y0210197D01*
X0139990Y0210180D01*
X0140037Y0210167D01*
X0140084Y0210158D01*
X0140133Y0210152D01*
X0140181Y0210150D01*
X0140386Y0210150D01*
X0142437Y0210150D02*
X0143362Y0210150D01*
X0143362Y0212000D01*
X0143362Y0211589D02*
X0142437Y0211589D01*
X0143362Y0212000D02*
X0143360Y0212048D01*
X0143354Y0212097D01*
X0143345Y0212144D01*
X0143332Y0212191D01*
X0143315Y0212236D01*
X0143295Y0212280D01*
X0143271Y0212322D01*
X0143244Y0212363D01*
X0143214Y0212401D01*
X0143181Y0212436D01*
X0143146Y0212469D01*
X0143108Y0212499D01*
X0143067Y0212526D01*
X0143025Y0212550D01*
X0142981Y0212570D01*
X0142936Y0212587D01*
X0142889Y0212600D01*
X0142842Y0212609D01*
X0142793Y0212615D01*
X0142745Y0212617D01*
X0141923Y0212617D01*
X0142437Y0211588D02*
X0142385Y0211586D01*
X0142332Y0211580D01*
X0142281Y0211571D01*
X0142230Y0211558D01*
X0142180Y0211541D01*
X0142132Y0211520D01*
X0142085Y0211496D01*
X0142040Y0211469D01*
X0141998Y0211438D01*
X0141957Y0211404D01*
X0141919Y0211368D01*
X0141884Y0211329D01*
X0141852Y0211287D01*
X0141823Y0211244D01*
X0141798Y0211198D01*
X0141775Y0211150D01*
X0141757Y0211101D01*
X0141741Y0211051D01*
X0141730Y0211000D01*
X0141722Y0210948D01*
X0141718Y0210895D01*
X0141718Y0210843D01*
X0141722Y0210790D01*
X0141730Y0210738D01*
X0141741Y0210687D01*
X0141757Y0210637D01*
X0141775Y0210588D01*
X0141798Y0210540D01*
X0141823Y0210494D01*
X0141852Y0210451D01*
X0141884Y0210409D01*
X0141919Y0210370D01*
X0141957Y0210334D01*
X0141998Y0210300D01*
X0142040Y0210269D01*
X0142085Y0210242D01*
X0142132Y0210218D01*
X0142180Y0210197D01*
X0142230Y0210180D01*
X0142281Y0210167D01*
X0142332Y0210158D01*
X0142385Y0210152D01*
X0142437Y0210150D01*
X0145025Y0210767D02*
X0145025Y0213850D01*
X0145025Y0210767D02*
X0145027Y0210719D01*
X0145033Y0210670D01*
X0145042Y0210623D01*
X0145055Y0210576D01*
X0145072Y0210531D01*
X0145092Y0210487D01*
X0145116Y0210445D01*
X0145143Y0210404D01*
X0145173Y0210366D01*
X0145206Y0210331D01*
X0145241Y0210298D01*
X0145279Y0210268D01*
X0145320Y0210241D01*
X0145362Y0210217D01*
X0145406Y0210197D01*
X0145451Y0210180D01*
X0145498Y0210167D01*
X0145545Y0210158D01*
X0145594Y0210152D01*
X0145642Y0210150D01*
X0148747Y0210150D02*
X0149569Y0210150D01*
X0149158Y0210150D02*
X0149158Y0213850D01*
X0148747Y0213850D02*
X0149569Y0213850D01*
X0152500Y0214261D02*
X0150855Y0209739D01*
X0153890Y0211178D02*
X0153890Y0212822D01*
X0153892Y0212885D01*
X0153898Y0212948D01*
X0153908Y0213011D01*
X0153921Y0213073D01*
X0153938Y0213134D01*
X0153959Y0213193D01*
X0153984Y0213252D01*
X0154012Y0213308D01*
X0154044Y0213363D01*
X0154079Y0213416D01*
X0154117Y0213466D01*
X0154158Y0213515D01*
X0154202Y0213560D01*
X0154249Y0213603D01*
X0154298Y0213642D01*
X0154350Y0213679D01*
X0154404Y0213712D01*
X0154460Y0213742D01*
X0154517Y0213769D01*
X0154576Y0213792D01*
X0154637Y0213811D01*
X0154698Y0213826D01*
X0154760Y0213838D01*
X0154823Y0213846D01*
X0154886Y0213850D01*
X0154950Y0213850D01*
X0155013Y0213846D01*
X0155076Y0213838D01*
X0155138Y0213826D01*
X0155199Y0213811D01*
X0155260Y0213792D01*
X0155319Y0213769D01*
X0155376Y0213742D01*
X0155432Y0213712D01*
X0155486Y0213679D01*
X0155538Y0213642D01*
X0155587Y0213603D01*
X0155634Y0213560D01*
X0155678Y0213515D01*
X0155719Y0213466D01*
X0155757Y0213416D01*
X0155792Y0213363D01*
X0155824Y0213308D01*
X0155852Y0213252D01*
X0155877Y0213193D01*
X0155898Y0213134D01*
X0155915Y0213073D01*
X0155928Y0213011D01*
X0155938Y0212948D01*
X0155944Y0212885D01*
X0155946Y0212822D01*
X0155945Y0212822D02*
X0155945Y0211178D01*
X0155946Y0211178D02*
X0155944Y0211115D01*
X0155938Y0211052D01*
X0155928Y0210989D01*
X0155915Y0210927D01*
X0155898Y0210866D01*
X0155877Y0210807D01*
X0155852Y0210748D01*
X0155824Y0210692D01*
X0155792Y0210637D01*
X0155757Y0210584D01*
X0155719Y0210534D01*
X0155678Y0210485D01*
X0155634Y0210440D01*
X0155587Y0210397D01*
X0155538Y0210358D01*
X0155486Y0210321D01*
X0155432Y0210288D01*
X0155376Y0210258D01*
X0155319Y0210231D01*
X0155260Y0210208D01*
X0155199Y0210189D01*
X0155138Y0210174D01*
X0155076Y0210162D01*
X0155013Y0210154D01*
X0154950Y0210150D01*
X0154886Y0210150D01*
X0154823Y0210154D01*
X0154760Y0210162D01*
X0154698Y0210174D01*
X0154637Y0210189D01*
X0154576Y0210208D01*
X0154517Y0210231D01*
X0154460Y0210258D01*
X0154404Y0210288D01*
X0154350Y0210321D01*
X0154298Y0210358D01*
X0154249Y0210397D01*
X0154202Y0210440D01*
X0154158Y0210485D01*
X0154117Y0210534D01*
X0154079Y0210584D01*
X0154044Y0210637D01*
X0154012Y0210692D01*
X0153984Y0210748D01*
X0153959Y0210807D01*
X0153938Y0210866D01*
X0153921Y0210927D01*
X0153908Y0210989D01*
X0153898Y0211052D01*
X0153892Y0211115D01*
X0153890Y0211178D01*
X0142322Y0199850D02*
X0141294Y0199028D01*
X0205650Y0210150D02*
X0206678Y0210150D01*
X0206740Y0210152D01*
X0206802Y0210157D01*
X0206863Y0210167D01*
X0206924Y0210180D01*
X0206984Y0210197D01*
X0207043Y0210217D01*
X0207100Y0210241D01*
X0207156Y0210268D01*
X0207210Y0210298D01*
X0207262Y0210332D01*
X0207312Y0210369D01*
X0207360Y0210409D01*
X0207405Y0210451D01*
X0207447Y0210496D01*
X0207487Y0210544D01*
X0207524Y0210594D01*
X0207558Y0210646D01*
X0207588Y0210700D01*
X0207615Y0210756D01*
X0207639Y0210813D01*
X0207659Y0210872D01*
X0207676Y0210932D01*
X0207689Y0210993D01*
X0207699Y0211054D01*
X0207704Y0211116D01*
X0207706Y0211178D01*
X0207706Y0212822D01*
X0207704Y0212884D01*
X0207699Y0212946D01*
X0207689Y0213007D01*
X0207676Y0213068D01*
X0207659Y0213128D01*
X0207639Y0213187D01*
X0207615Y0213244D01*
X0207588Y0213300D01*
X0207558Y0213354D01*
X0207524Y0213406D01*
X0207487Y0213456D01*
X0207447Y0213504D01*
X0207405Y0213549D01*
X0207360Y0213591D01*
X0207312Y0213631D01*
X0207262Y0213668D01*
X0207210Y0213702D01*
X0207156Y0213732D01*
X0207100Y0213759D01*
X0207043Y0213783D01*
X0206984Y0213803D01*
X0206924Y0213820D01*
X0206863Y0213833D01*
X0206802Y0213843D01*
X0206740Y0213848D01*
X0206678Y0213850D01*
X0205650Y0213850D01*
X0205650Y0210150D01*
X0209318Y0210150D02*
X0209318Y0212617D01*
X0209421Y0213644D02*
X0209215Y0213644D01*
X0209215Y0213850D01*
X0209421Y0213850D01*
X0209421Y0213644D01*
X0210758Y0212000D02*
X0210758Y0210767D01*
X0210757Y0210767D02*
X0210759Y0210719D01*
X0210765Y0210670D01*
X0210774Y0210623D01*
X0210787Y0210576D01*
X0210804Y0210531D01*
X0210824Y0210487D01*
X0210848Y0210445D01*
X0210875Y0210404D01*
X0210905Y0210366D01*
X0210938Y0210331D01*
X0210973Y0210298D01*
X0211011Y0210268D01*
X0211052Y0210241D01*
X0211094Y0210217D01*
X0211138Y0210197D01*
X0211183Y0210180D01*
X0211230Y0210167D01*
X0211277Y0210158D01*
X0211326Y0210152D01*
X0211374Y0210150D01*
X0212402Y0210150D01*
X0212402Y0209533D02*
X0212402Y0212617D01*
X0211374Y0212617D01*
X0211326Y0212615D01*
X0211277Y0212609D01*
X0211230Y0212600D01*
X0211183Y0212587D01*
X0211138Y0212570D01*
X0211094Y0212550D01*
X0211052Y0212526D01*
X0211011Y0212499D01*
X0210973Y0212469D01*
X0210938Y0212436D01*
X0210905Y0212401D01*
X0210875Y0212363D01*
X0210848Y0212322D01*
X0210824Y0212280D01*
X0210804Y0212236D01*
X0210787Y0212191D01*
X0210774Y0212144D01*
X0210765Y0212097D01*
X0210759Y0212048D01*
X0210757Y0212000D01*
X0212402Y0209533D02*
X0212400Y0209485D01*
X0212394Y0209436D01*
X0212385Y0209389D01*
X0212372Y0209342D01*
X0212355Y0209297D01*
X0212335Y0209253D01*
X0212311Y0209211D01*
X0212284Y0209170D01*
X0212254Y0209132D01*
X0212221Y0209097D01*
X0212186Y0209064D01*
X0212148Y0209034D01*
X0212107Y0209007D01*
X0212065Y0208983D01*
X0212021Y0208963D01*
X0211976Y0208946D01*
X0211929Y0208933D01*
X0211882Y0208924D01*
X0211833Y0208918D01*
X0211785Y0208916D01*
X0211785Y0208917D02*
X0210963Y0208917D01*
X0213998Y0210150D02*
X0213998Y0212617D01*
X0214101Y0213644D02*
X0213895Y0213644D01*
X0213895Y0213850D01*
X0214101Y0213850D01*
X0214101Y0213644D01*
X0215153Y0212617D02*
X0216386Y0212617D01*
X0215564Y0213850D02*
X0215564Y0210767D01*
X0215566Y0210719D01*
X0215572Y0210670D01*
X0215581Y0210623D01*
X0215594Y0210576D01*
X0215611Y0210531D01*
X0215631Y0210487D01*
X0215655Y0210445D01*
X0215682Y0210404D01*
X0215712Y0210366D01*
X0215745Y0210331D01*
X0215780Y0210298D01*
X0215818Y0210268D01*
X0215859Y0210241D01*
X0215901Y0210217D01*
X0215945Y0210197D01*
X0215990Y0210180D01*
X0216037Y0210167D01*
X0216084Y0210158D01*
X0216133Y0210152D01*
X0216181Y0210150D01*
X0216386Y0210150D01*
X0218437Y0210150D02*
X0219362Y0210150D01*
X0219362Y0212000D01*
X0219362Y0211589D02*
X0218437Y0211589D01*
X0219362Y0212000D02*
X0219360Y0212048D01*
X0219354Y0212097D01*
X0219345Y0212144D01*
X0219332Y0212191D01*
X0219315Y0212236D01*
X0219295Y0212280D01*
X0219271Y0212322D01*
X0219244Y0212363D01*
X0219214Y0212401D01*
X0219181Y0212436D01*
X0219146Y0212469D01*
X0219108Y0212499D01*
X0219067Y0212526D01*
X0219025Y0212550D01*
X0218981Y0212570D01*
X0218936Y0212587D01*
X0218889Y0212600D01*
X0218842Y0212609D01*
X0218793Y0212615D01*
X0218745Y0212617D01*
X0217923Y0212617D01*
X0218437Y0211588D02*
X0218385Y0211586D01*
X0218332Y0211580D01*
X0218281Y0211571D01*
X0218230Y0211558D01*
X0218180Y0211541D01*
X0218132Y0211520D01*
X0218085Y0211496D01*
X0218040Y0211469D01*
X0217998Y0211438D01*
X0217957Y0211404D01*
X0217919Y0211368D01*
X0217884Y0211329D01*
X0217852Y0211287D01*
X0217823Y0211244D01*
X0217798Y0211198D01*
X0217775Y0211150D01*
X0217757Y0211101D01*
X0217741Y0211051D01*
X0217730Y0211000D01*
X0217722Y0210948D01*
X0217718Y0210895D01*
X0217718Y0210843D01*
X0217722Y0210790D01*
X0217730Y0210738D01*
X0217741Y0210687D01*
X0217757Y0210637D01*
X0217775Y0210588D01*
X0217798Y0210540D01*
X0217823Y0210494D01*
X0217852Y0210451D01*
X0217884Y0210409D01*
X0217919Y0210370D01*
X0217957Y0210334D01*
X0217998Y0210300D01*
X0218040Y0210269D01*
X0218085Y0210242D01*
X0218132Y0210218D01*
X0218180Y0210197D01*
X0218230Y0210180D01*
X0218281Y0210167D01*
X0218332Y0210158D01*
X0218385Y0210152D01*
X0218437Y0210150D01*
X0221025Y0210767D02*
X0221025Y0213850D01*
X0221025Y0210767D02*
X0221027Y0210719D01*
X0221033Y0210670D01*
X0221042Y0210623D01*
X0221055Y0210576D01*
X0221072Y0210531D01*
X0221092Y0210487D01*
X0221116Y0210445D01*
X0221143Y0210404D01*
X0221173Y0210366D01*
X0221206Y0210331D01*
X0221241Y0210298D01*
X0221279Y0210268D01*
X0221320Y0210241D01*
X0221362Y0210217D01*
X0221406Y0210197D01*
X0221451Y0210180D01*
X0221498Y0210167D01*
X0221545Y0210158D01*
X0221594Y0210152D01*
X0221642Y0210150D01*
X0224747Y0210150D02*
X0225569Y0210150D01*
X0225158Y0210150D02*
X0225158Y0213850D01*
X0224747Y0213850D02*
X0225569Y0213850D01*
X0228500Y0214261D02*
X0226855Y0209739D01*
X0229890Y0211178D02*
X0229890Y0212822D01*
X0229892Y0212885D01*
X0229898Y0212948D01*
X0229908Y0213011D01*
X0229921Y0213073D01*
X0229938Y0213134D01*
X0229959Y0213193D01*
X0229984Y0213252D01*
X0230012Y0213308D01*
X0230044Y0213363D01*
X0230079Y0213416D01*
X0230117Y0213466D01*
X0230158Y0213515D01*
X0230202Y0213560D01*
X0230249Y0213603D01*
X0230298Y0213642D01*
X0230350Y0213679D01*
X0230404Y0213712D01*
X0230460Y0213742D01*
X0230517Y0213769D01*
X0230576Y0213792D01*
X0230637Y0213811D01*
X0230698Y0213826D01*
X0230760Y0213838D01*
X0230823Y0213846D01*
X0230886Y0213850D01*
X0230950Y0213850D01*
X0231013Y0213846D01*
X0231076Y0213838D01*
X0231138Y0213826D01*
X0231199Y0213811D01*
X0231260Y0213792D01*
X0231319Y0213769D01*
X0231376Y0213742D01*
X0231432Y0213712D01*
X0231486Y0213679D01*
X0231538Y0213642D01*
X0231587Y0213603D01*
X0231634Y0213560D01*
X0231678Y0213515D01*
X0231719Y0213466D01*
X0231757Y0213416D01*
X0231792Y0213363D01*
X0231824Y0213308D01*
X0231852Y0213252D01*
X0231877Y0213193D01*
X0231898Y0213134D01*
X0231915Y0213073D01*
X0231928Y0213011D01*
X0231938Y0212948D01*
X0231944Y0212885D01*
X0231946Y0212822D01*
X0231945Y0212822D02*
X0231945Y0211178D01*
X0231946Y0211178D02*
X0231944Y0211115D01*
X0231938Y0211052D01*
X0231928Y0210989D01*
X0231915Y0210927D01*
X0231898Y0210866D01*
X0231877Y0210807D01*
X0231852Y0210748D01*
X0231824Y0210692D01*
X0231792Y0210637D01*
X0231757Y0210584D01*
X0231719Y0210534D01*
X0231678Y0210485D01*
X0231634Y0210440D01*
X0231587Y0210397D01*
X0231538Y0210358D01*
X0231486Y0210321D01*
X0231432Y0210288D01*
X0231376Y0210258D01*
X0231319Y0210231D01*
X0231260Y0210208D01*
X0231199Y0210189D01*
X0231138Y0210174D01*
X0231076Y0210162D01*
X0231013Y0210154D01*
X0230950Y0210150D01*
X0230886Y0210150D01*
X0230823Y0210154D01*
X0230760Y0210162D01*
X0230698Y0210174D01*
X0230637Y0210189D01*
X0230576Y0210208D01*
X0230517Y0210231D01*
X0230460Y0210258D01*
X0230404Y0210288D01*
X0230350Y0210321D01*
X0230298Y0210358D01*
X0230249Y0210397D01*
X0230202Y0210440D01*
X0230158Y0210485D01*
X0230117Y0210534D01*
X0230079Y0210584D01*
X0230044Y0210637D01*
X0230012Y0210692D01*
X0229984Y0210748D01*
X0229959Y0210807D01*
X0229938Y0210866D01*
X0229921Y0210927D01*
X0229908Y0210989D01*
X0229898Y0211052D01*
X0229892Y0211115D01*
X0229890Y0211178D01*
X0257350Y0198000D02*
X0257348Y0197894D01*
X0257343Y0197787D01*
X0257333Y0197681D01*
X0257320Y0197576D01*
X0257304Y0197471D01*
X0257283Y0197366D01*
X0257260Y0197263D01*
X0257232Y0197160D01*
X0257201Y0197058D01*
X0257166Y0196958D01*
X0257128Y0196858D01*
X0257087Y0196760D01*
X0257042Y0196664D01*
X0257023Y0196615D01*
X0257001Y0196568D01*
X0256976Y0196522D01*
X0256948Y0196478D01*
X0256916Y0196436D01*
X0256882Y0196396D01*
X0256845Y0196358D01*
X0256806Y0196324D01*
X0256764Y0196292D01*
X0256721Y0196263D01*
X0256675Y0196237D01*
X0256628Y0196214D01*
X0256579Y0196195D01*
X0256529Y0196179D01*
X0256478Y0196166D01*
X0256427Y0196157D01*
X0256374Y0196152D01*
X0256322Y0196150D01*
X0256270Y0196152D01*
X0256217Y0196157D01*
X0256166Y0196166D01*
X0256115Y0196179D01*
X0256065Y0196195D01*
X0256016Y0196214D01*
X0255969Y0196237D01*
X0255923Y0196263D01*
X0255880Y0196292D01*
X0255838Y0196324D01*
X0255799Y0196358D01*
X0255762Y0196396D01*
X0255728Y0196436D01*
X0255696Y0196478D01*
X0255668Y0196522D01*
X0255643Y0196568D01*
X0255621Y0196615D01*
X0255602Y0196664D01*
X0255500Y0196972D02*
X0257144Y0199028D01*
X0257042Y0199336D02*
X0257023Y0199385D01*
X0257001Y0199432D01*
X0256976Y0199478D01*
X0256948Y0199522D01*
X0256916Y0199564D01*
X0256882Y0199604D01*
X0256845Y0199642D01*
X0256806Y0199676D01*
X0256764Y0199708D01*
X0256721Y0199737D01*
X0256675Y0199763D01*
X0256628Y0199786D01*
X0256579Y0199805D01*
X0256529Y0199821D01*
X0256478Y0199834D01*
X0256427Y0199843D01*
X0256374Y0199848D01*
X0256322Y0199850D01*
X0256270Y0199848D01*
X0256217Y0199843D01*
X0256166Y0199834D01*
X0256115Y0199821D01*
X0256065Y0199805D01*
X0256016Y0199786D01*
X0255969Y0199763D01*
X0255923Y0199737D01*
X0255880Y0199708D01*
X0255838Y0199676D01*
X0255799Y0199642D01*
X0255762Y0199604D01*
X0255728Y0199564D01*
X0255696Y0199522D01*
X0255668Y0199478D01*
X0255643Y0199432D01*
X0255621Y0199385D01*
X0255602Y0199336D01*
X0257042Y0199336D02*
X0257087Y0199240D01*
X0257128Y0199142D01*
X0257166Y0199042D01*
X0257201Y0198942D01*
X0257232Y0198840D01*
X0257260Y0198737D01*
X0257283Y0198634D01*
X0257304Y0198529D01*
X0257320Y0198424D01*
X0257333Y0198319D01*
X0257343Y0198213D01*
X0257348Y0198106D01*
X0257350Y0198000D01*
X0255295Y0198000D02*
X0255297Y0198106D01*
X0255302Y0198213D01*
X0255312Y0198319D01*
X0255325Y0198424D01*
X0255341Y0198529D01*
X0255362Y0198634D01*
X0255385Y0198737D01*
X0255413Y0198840D01*
X0255444Y0198942D01*
X0255479Y0199042D01*
X0255517Y0199142D01*
X0255558Y0199240D01*
X0255603Y0199336D01*
X0255295Y0198000D02*
X0255297Y0197894D01*
X0255302Y0197787D01*
X0255312Y0197681D01*
X0255325Y0197576D01*
X0255341Y0197471D01*
X0255362Y0197366D01*
X0255385Y0197263D01*
X0255413Y0197160D01*
X0255444Y0197058D01*
X0255479Y0196958D01*
X0255517Y0196858D01*
X0255558Y0196760D01*
X0255603Y0196664D01*
X0133150Y0028863D02*
X0133150Y0026808D01*
X0133150Y0027836D02*
X0136850Y0027836D01*
X0135308Y0025212D02*
X0134692Y0024082D01*
X0133150Y0024493D02*
X0133152Y0024569D01*
X0133158Y0024645D01*
X0133167Y0024721D01*
X0133180Y0024796D01*
X0133197Y0024871D01*
X0133218Y0024944D01*
X0133242Y0025017D01*
X0133269Y0025088D01*
X0133301Y0025157D01*
X0133335Y0025226D01*
X0133373Y0025292D01*
X0133414Y0025356D01*
X0133458Y0025418D01*
X0134691Y0024082D02*
X0134662Y0024036D01*
X0134630Y0023993D01*
X0134596Y0023951D01*
X0134558Y0023912D01*
X0134519Y0023875D01*
X0134477Y0023841D01*
X0134432Y0023809D01*
X0134386Y0023781D01*
X0134338Y0023756D01*
X0134289Y0023733D01*
X0134238Y0023715D01*
X0134186Y0023699D01*
X0134134Y0023687D01*
X0134080Y0023678D01*
X0134026Y0023673D01*
X0133972Y0023671D01*
X0133916Y0023673D01*
X0133860Y0023679D01*
X0133805Y0023688D01*
X0133750Y0023701D01*
X0133697Y0023718D01*
X0133645Y0023739D01*
X0133594Y0023763D01*
X0133545Y0023791D01*
X0133498Y0023821D01*
X0133453Y0023855D01*
X0133411Y0023892D01*
X0133371Y0023932D01*
X0133334Y0023974D01*
X0133300Y0024019D01*
X0133270Y0024066D01*
X0133242Y0024115D01*
X0133218Y0024166D01*
X0133197Y0024218D01*
X0133180Y0024271D01*
X0133167Y0024326D01*
X0133158Y0024381D01*
X0133152Y0024437D01*
X0133150Y0024493D01*
X0136336Y0023568D02*
X0136392Y0023626D01*
X0136445Y0023686D01*
X0136496Y0023749D01*
X0136543Y0023815D01*
X0136587Y0023882D01*
X0136628Y0023952D01*
X0136666Y0024023D01*
X0136700Y0024096D01*
X0136731Y0024170D01*
X0136759Y0024246D01*
X0136783Y0024323D01*
X0136803Y0024401D01*
X0136820Y0024480D01*
X0136833Y0024560D01*
X0136843Y0024640D01*
X0136848Y0024720D01*
X0136850Y0024801D01*
X0136848Y0024857D01*
X0136842Y0024913D01*
X0136833Y0024968D01*
X0136820Y0025023D01*
X0136803Y0025076D01*
X0136782Y0025128D01*
X0136758Y0025179D01*
X0136730Y0025228D01*
X0136700Y0025275D01*
X0136666Y0025320D01*
X0136629Y0025362D01*
X0136589Y0025402D01*
X0136547Y0025439D01*
X0136502Y0025473D01*
X0136455Y0025503D01*
X0136406Y0025531D01*
X0136355Y0025555D01*
X0136303Y0025576D01*
X0136250Y0025593D01*
X0136195Y0025606D01*
X0136140Y0025615D01*
X0136084Y0025621D01*
X0136028Y0025623D01*
X0135974Y0025621D01*
X0135920Y0025616D01*
X0135866Y0025607D01*
X0135814Y0025595D01*
X0135762Y0025579D01*
X0135711Y0025561D01*
X0135662Y0025538D01*
X0135614Y0025513D01*
X0135568Y0025485D01*
X0135523Y0025453D01*
X0135481Y0025419D01*
X0135442Y0025382D01*
X0135404Y0025343D01*
X0135370Y0025301D01*
X0135338Y0025258D01*
X0135309Y0025212D01*
X0136850Y0022166D02*
X0135206Y0021344D01*
X0135206Y0021138D02*
X0135206Y0020110D01*
X0135206Y0021138D02*
X0135204Y0021201D01*
X0135198Y0021264D01*
X0135188Y0021327D01*
X0135175Y0021389D01*
X0135158Y0021450D01*
X0135137Y0021509D01*
X0135112Y0021568D01*
X0135084Y0021624D01*
X0135052Y0021679D01*
X0135017Y0021732D01*
X0134979Y0021782D01*
X0134938Y0021831D01*
X0134894Y0021876D01*
X0134847Y0021919D01*
X0134798Y0021958D01*
X0134746Y0021995D01*
X0134692Y0022028D01*
X0134636Y0022058D01*
X0134579Y0022085D01*
X0134520Y0022108D01*
X0134459Y0022127D01*
X0134398Y0022142D01*
X0134336Y0022154D01*
X0134273Y0022162D01*
X0134210Y0022166D01*
X0134146Y0022166D01*
X0134083Y0022162D01*
X0134020Y0022154D01*
X0133958Y0022142D01*
X0133897Y0022127D01*
X0133836Y0022108D01*
X0133777Y0022085D01*
X0133720Y0022058D01*
X0133664Y0022028D01*
X0133610Y0021995D01*
X0133558Y0021958D01*
X0133509Y0021919D01*
X0133462Y0021876D01*
X0133418Y0021831D01*
X0133377Y0021782D01*
X0133339Y0021732D01*
X0133304Y0021679D01*
X0133272Y0021624D01*
X0133244Y0021568D01*
X0133219Y0021509D01*
X0133198Y0021450D01*
X0133181Y0021389D01*
X0133168Y0021327D01*
X0133158Y0021264D01*
X0133152Y0021201D01*
X0133150Y0021138D01*
X0133150Y0020110D01*
X0136850Y0020110D01*
X0141970Y0020150D02*
X0142998Y0020150D01*
X0143061Y0020152D01*
X0143124Y0020158D01*
X0143187Y0020168D01*
X0143249Y0020181D01*
X0143310Y0020198D01*
X0143369Y0020219D01*
X0143428Y0020244D01*
X0143484Y0020272D01*
X0143539Y0020304D01*
X0143592Y0020339D01*
X0143642Y0020377D01*
X0143691Y0020418D01*
X0143736Y0020462D01*
X0143779Y0020509D01*
X0143818Y0020558D01*
X0143855Y0020610D01*
X0143888Y0020664D01*
X0143918Y0020720D01*
X0143945Y0020777D01*
X0143968Y0020836D01*
X0143987Y0020897D01*
X0144002Y0020958D01*
X0144014Y0021020D01*
X0144022Y0021083D01*
X0144026Y0021146D01*
X0144026Y0021210D01*
X0144022Y0021273D01*
X0144014Y0021336D01*
X0144002Y0021398D01*
X0143987Y0021459D01*
X0143968Y0021520D01*
X0143945Y0021579D01*
X0143918Y0021636D01*
X0143888Y0021692D01*
X0143855Y0021746D01*
X0143818Y0021798D01*
X0143779Y0021847D01*
X0143736Y0021894D01*
X0143691Y0021938D01*
X0143642Y0021979D01*
X0143592Y0022017D01*
X0143539Y0022052D01*
X0143484Y0022084D01*
X0143428Y0022112D01*
X0143369Y0022137D01*
X0143310Y0022158D01*
X0143249Y0022175D01*
X0143187Y0022188D01*
X0143124Y0022198D01*
X0143061Y0022204D01*
X0142998Y0022206D01*
X0143203Y0022206D02*
X0142381Y0022206D01*
X0143203Y0022206D02*
X0143259Y0022208D01*
X0143315Y0022214D01*
X0143370Y0022223D01*
X0143425Y0022236D01*
X0143478Y0022253D01*
X0143530Y0022274D01*
X0143581Y0022298D01*
X0143630Y0022326D01*
X0143677Y0022356D01*
X0143722Y0022390D01*
X0143764Y0022427D01*
X0143804Y0022467D01*
X0143841Y0022509D01*
X0143875Y0022554D01*
X0143905Y0022601D01*
X0143933Y0022650D01*
X0143957Y0022701D01*
X0143978Y0022753D01*
X0143995Y0022806D01*
X0144008Y0022861D01*
X0144017Y0022916D01*
X0144023Y0022972D01*
X0144025Y0023028D01*
X0144023Y0023084D01*
X0144017Y0023140D01*
X0144008Y0023195D01*
X0143995Y0023250D01*
X0143978Y0023303D01*
X0143957Y0023355D01*
X0143933Y0023406D01*
X0143905Y0023455D01*
X0143875Y0023502D01*
X0143841Y0023547D01*
X0143804Y0023589D01*
X0143764Y0023629D01*
X0143722Y0023666D01*
X0143677Y0023700D01*
X0143630Y0023730D01*
X0143581Y0023758D01*
X0143530Y0023782D01*
X0143478Y0023803D01*
X0143425Y0023820D01*
X0143370Y0023833D01*
X0143315Y0023842D01*
X0143259Y0023848D01*
X0143203Y0023850D01*
X0141970Y0023850D01*
X0145416Y0022617D02*
X0146238Y0020150D01*
X0147060Y0022617D01*
X0152970Y0022206D02*
X0152970Y0023850D01*
X0155026Y0023850D01*
X0154203Y0022206D02*
X0152970Y0022206D01*
X0154203Y0022205D02*
X0154259Y0022203D01*
X0154315Y0022197D01*
X0154370Y0022188D01*
X0154425Y0022175D01*
X0154478Y0022158D01*
X0154530Y0022137D01*
X0154581Y0022113D01*
X0154630Y0022085D01*
X0154677Y0022055D01*
X0154722Y0022021D01*
X0154764Y0021984D01*
X0154804Y0021944D01*
X0154841Y0021902D01*
X0154875Y0021857D01*
X0154905Y0021810D01*
X0154933Y0021761D01*
X0154957Y0021710D01*
X0154978Y0021658D01*
X0154995Y0021605D01*
X0155008Y0021550D01*
X0155017Y0021495D01*
X0155023Y0021439D01*
X0155025Y0021383D01*
X0155026Y0021383D02*
X0155026Y0020972D01*
X0155025Y0020972D02*
X0155023Y0020916D01*
X0155017Y0020860D01*
X0155008Y0020805D01*
X0154995Y0020750D01*
X0154978Y0020697D01*
X0154957Y0020645D01*
X0154933Y0020594D01*
X0154905Y0020545D01*
X0154875Y0020498D01*
X0154841Y0020453D01*
X0154804Y0020411D01*
X0154764Y0020371D01*
X0154722Y0020334D01*
X0154677Y0020300D01*
X0154630Y0020270D01*
X0154581Y0020242D01*
X0154530Y0020218D01*
X0154478Y0020197D01*
X0154425Y0020180D01*
X0154370Y0020167D01*
X0154315Y0020158D01*
X0154259Y0020152D01*
X0154203Y0020150D01*
X0152970Y0020150D01*
X0156416Y0022617D02*
X0157238Y0020150D01*
X0158060Y0022617D01*
X0165690Y0023028D02*
X0165690Y0020972D01*
X0165692Y0020916D01*
X0165698Y0020860D01*
X0165707Y0020805D01*
X0165720Y0020750D01*
X0165737Y0020697D01*
X0165758Y0020645D01*
X0165782Y0020594D01*
X0165810Y0020545D01*
X0165840Y0020498D01*
X0165874Y0020453D01*
X0165911Y0020411D01*
X0165951Y0020371D01*
X0165993Y0020334D01*
X0166038Y0020300D01*
X0166085Y0020270D01*
X0166134Y0020242D01*
X0166185Y0020218D01*
X0166237Y0020197D01*
X0166290Y0020180D01*
X0166345Y0020167D01*
X0166400Y0020158D01*
X0166456Y0020152D01*
X0166512Y0020150D01*
X0167745Y0020150D01*
X0167745Y0022206D01*
X0167129Y0022206D01*
X0165690Y0023028D02*
X0165692Y0023084D01*
X0165698Y0023140D01*
X0165707Y0023195D01*
X0165720Y0023250D01*
X0165737Y0023303D01*
X0165758Y0023355D01*
X0165782Y0023406D01*
X0165810Y0023455D01*
X0165840Y0023502D01*
X0165874Y0023547D01*
X0165911Y0023589D01*
X0165951Y0023629D01*
X0165993Y0023666D01*
X0166038Y0023700D01*
X0166085Y0023730D01*
X0166134Y0023758D01*
X0166185Y0023782D01*
X0166237Y0023803D01*
X0166290Y0023820D01*
X0166345Y0023833D01*
X0166400Y0023842D01*
X0166456Y0023848D01*
X0166512Y0023850D01*
X0167745Y0023850D01*
X0169495Y0022617D02*
X0169495Y0020150D01*
X0171140Y0020150D02*
X0171140Y0022000D01*
X0171138Y0022048D01*
X0171132Y0022097D01*
X0171123Y0022144D01*
X0171110Y0022191D01*
X0171093Y0022236D01*
X0171073Y0022280D01*
X0171049Y0022322D01*
X0171022Y0022363D01*
X0170992Y0022401D01*
X0170959Y0022436D01*
X0170924Y0022469D01*
X0170886Y0022499D01*
X0170845Y0022526D01*
X0170803Y0022550D01*
X0170759Y0022570D01*
X0170714Y0022587D01*
X0170667Y0022600D01*
X0170620Y0022609D01*
X0170571Y0022615D01*
X0170523Y0022617D01*
X0169495Y0022617D01*
X0172717Y0022000D02*
X0172717Y0020767D01*
X0172719Y0020719D01*
X0172725Y0020670D01*
X0172734Y0020623D01*
X0172747Y0020576D01*
X0172764Y0020531D01*
X0172784Y0020487D01*
X0172808Y0020445D01*
X0172835Y0020404D01*
X0172865Y0020366D01*
X0172898Y0020331D01*
X0172933Y0020298D01*
X0172971Y0020268D01*
X0173012Y0020241D01*
X0173054Y0020217D01*
X0173098Y0020197D01*
X0173143Y0020180D01*
X0173190Y0020167D01*
X0173237Y0020158D01*
X0173286Y0020152D01*
X0173334Y0020150D01*
X0174362Y0020150D01*
X0174362Y0023850D01*
X0174362Y0022617D02*
X0173334Y0022617D01*
X0173286Y0022615D01*
X0173237Y0022609D01*
X0173190Y0022600D01*
X0173143Y0022587D01*
X0173098Y0022570D01*
X0173054Y0022550D01*
X0173012Y0022526D01*
X0172971Y0022499D01*
X0172933Y0022469D01*
X0172898Y0022436D01*
X0172865Y0022401D01*
X0172835Y0022363D01*
X0172808Y0022322D01*
X0172784Y0022280D01*
X0172764Y0022236D01*
X0172747Y0022191D01*
X0172734Y0022144D01*
X0172725Y0022097D01*
X0172719Y0022048D01*
X0172717Y0022000D01*
X0181470Y0023850D02*
X0182703Y0020150D01*
X0183937Y0023850D01*
X0185121Y0023850D02*
X0185326Y0023850D01*
X0185326Y0023644D01*
X0185121Y0023644D01*
X0185121Y0023850D01*
X0185223Y0022617D02*
X0185223Y0020150D01*
X0186801Y0020150D02*
X0186801Y0022617D01*
X0187829Y0022617D01*
X0187877Y0022615D01*
X0187926Y0022609D01*
X0187973Y0022600D01*
X0188020Y0022587D01*
X0188065Y0022570D01*
X0188109Y0022550D01*
X0188151Y0022526D01*
X0188192Y0022499D01*
X0188230Y0022469D01*
X0188265Y0022436D01*
X0188298Y0022401D01*
X0188328Y0022363D01*
X0188355Y0022322D01*
X0188379Y0022280D01*
X0188399Y0022236D01*
X0188416Y0022191D01*
X0188429Y0022144D01*
X0188438Y0022097D01*
X0188444Y0022048D01*
X0188446Y0022000D01*
X0188446Y0020150D01*
X0205397Y0020664D02*
X0205442Y0020760D01*
X0205483Y0020858D01*
X0205521Y0020958D01*
X0205556Y0021058D01*
X0205587Y0021160D01*
X0205615Y0021263D01*
X0205638Y0021366D01*
X0205659Y0021471D01*
X0205675Y0021576D01*
X0205688Y0021681D01*
X0205698Y0021787D01*
X0205703Y0021894D01*
X0205705Y0022000D01*
X0203650Y0022000D02*
X0203652Y0022106D01*
X0203657Y0022213D01*
X0203667Y0022319D01*
X0203680Y0022424D01*
X0203696Y0022529D01*
X0203717Y0022634D01*
X0203740Y0022737D01*
X0203768Y0022840D01*
X0203799Y0022942D01*
X0203834Y0023042D01*
X0203872Y0023142D01*
X0203913Y0023240D01*
X0203958Y0023336D01*
X0204678Y0023850D02*
X0204730Y0023848D01*
X0204783Y0023843D01*
X0204834Y0023834D01*
X0204885Y0023821D01*
X0204935Y0023805D01*
X0204984Y0023786D01*
X0205031Y0023763D01*
X0205077Y0023737D01*
X0205120Y0023708D01*
X0205162Y0023676D01*
X0205201Y0023642D01*
X0205238Y0023604D01*
X0205272Y0023564D01*
X0205304Y0023522D01*
X0205332Y0023478D01*
X0205357Y0023432D01*
X0205379Y0023385D01*
X0205398Y0023336D01*
X0205500Y0023028D02*
X0203856Y0020972D01*
X0204678Y0020150D02*
X0204730Y0020152D01*
X0204783Y0020157D01*
X0204834Y0020166D01*
X0204885Y0020179D01*
X0204935Y0020195D01*
X0204984Y0020214D01*
X0205031Y0020237D01*
X0205077Y0020263D01*
X0205120Y0020292D01*
X0205162Y0020324D01*
X0205201Y0020358D01*
X0205238Y0020396D01*
X0205272Y0020436D01*
X0205304Y0020478D01*
X0205332Y0020522D01*
X0205357Y0020568D01*
X0205379Y0020615D01*
X0205398Y0020664D01*
X0204678Y0020150D02*
X0204626Y0020152D01*
X0204573Y0020157D01*
X0204522Y0020166D01*
X0204471Y0020179D01*
X0204421Y0020195D01*
X0204372Y0020214D01*
X0204325Y0020237D01*
X0204279Y0020263D01*
X0204236Y0020292D01*
X0204194Y0020324D01*
X0204155Y0020358D01*
X0204118Y0020396D01*
X0204084Y0020436D01*
X0204052Y0020478D01*
X0204024Y0020522D01*
X0203999Y0020568D01*
X0203977Y0020615D01*
X0203958Y0020664D01*
X0205705Y0022000D02*
X0205703Y0022106D01*
X0205698Y0022213D01*
X0205688Y0022319D01*
X0205675Y0022424D01*
X0205659Y0022529D01*
X0205638Y0022634D01*
X0205615Y0022737D01*
X0205587Y0022840D01*
X0205556Y0022942D01*
X0205521Y0023042D01*
X0205483Y0023142D01*
X0205442Y0023240D01*
X0205397Y0023336D01*
X0204678Y0023850D02*
X0204626Y0023848D01*
X0204573Y0023843D01*
X0204522Y0023834D01*
X0204471Y0023821D01*
X0204421Y0023805D01*
X0204372Y0023786D01*
X0204325Y0023763D01*
X0204279Y0023737D01*
X0204236Y0023708D01*
X0204194Y0023676D01*
X0204155Y0023642D01*
X0204118Y0023604D01*
X0204084Y0023564D01*
X0204052Y0023522D01*
X0204024Y0023478D01*
X0203999Y0023432D01*
X0203977Y0023385D01*
X0203958Y0023336D01*
X0203650Y0022000D02*
X0203652Y0021894D01*
X0203657Y0021787D01*
X0203667Y0021681D01*
X0203680Y0021576D01*
X0203696Y0021471D01*
X0203717Y0021366D01*
X0203740Y0021263D01*
X0203768Y0021160D01*
X0203799Y0021058D01*
X0203834Y0020958D01*
X0203872Y0020858D01*
X0203913Y0020760D01*
X0203958Y0020664D01*
X0213650Y0020150D02*
X0215706Y0020150D01*
X0214678Y0020150D02*
X0214678Y0023850D01*
X0213650Y0023028D01*
X0223650Y0020150D02*
X0225706Y0020150D01*
X0223650Y0020150D02*
X0225397Y0022206D01*
X0224781Y0023850D02*
X0224713Y0023848D01*
X0224645Y0023842D01*
X0224578Y0023833D01*
X0224512Y0023819D01*
X0224446Y0023802D01*
X0224381Y0023781D01*
X0224318Y0023756D01*
X0224256Y0023728D01*
X0224196Y0023696D01*
X0224138Y0023661D01*
X0224082Y0023623D01*
X0224029Y0023581D01*
X0223977Y0023537D01*
X0223929Y0023489D01*
X0223883Y0023439D01*
X0223840Y0023387D01*
X0223800Y0023332D01*
X0223763Y0023275D01*
X0223730Y0023216D01*
X0223700Y0023155D01*
X0223674Y0023092D01*
X0223651Y0023028D01*
X0225398Y0022205D02*
X0225441Y0022249D01*
X0225482Y0022296D01*
X0225519Y0022345D01*
X0225554Y0022396D01*
X0225585Y0022450D01*
X0225613Y0022505D01*
X0225637Y0022562D01*
X0225658Y0022620D01*
X0225675Y0022680D01*
X0225689Y0022740D01*
X0225698Y0022801D01*
X0225704Y0022863D01*
X0225706Y0022925D01*
X0225704Y0022983D01*
X0225699Y0023041D01*
X0225690Y0023098D01*
X0225677Y0023155D01*
X0225661Y0023211D01*
X0225641Y0023266D01*
X0225618Y0023319D01*
X0225592Y0023371D01*
X0225562Y0023421D01*
X0225529Y0023469D01*
X0225494Y0023515D01*
X0225455Y0023558D01*
X0225414Y0023599D01*
X0225371Y0023638D01*
X0225325Y0023673D01*
X0225277Y0023706D01*
X0225227Y0023736D01*
X0225175Y0023762D01*
X0225122Y0023785D01*
X0225067Y0023805D01*
X0225011Y0023821D01*
X0224954Y0023834D01*
X0224897Y0023843D01*
X0224839Y0023848D01*
X0224781Y0023850D01*
X0233650Y0023850D02*
X0234883Y0023850D01*
X0234939Y0023848D01*
X0234995Y0023842D01*
X0235050Y0023833D01*
X0235105Y0023820D01*
X0235158Y0023803D01*
X0235210Y0023782D01*
X0235261Y0023758D01*
X0235310Y0023730D01*
X0235357Y0023700D01*
X0235402Y0023666D01*
X0235444Y0023629D01*
X0235484Y0023589D01*
X0235521Y0023547D01*
X0235555Y0023502D01*
X0235585Y0023455D01*
X0235613Y0023406D01*
X0235637Y0023355D01*
X0235658Y0023303D01*
X0235675Y0023250D01*
X0235688Y0023195D01*
X0235697Y0023140D01*
X0235703Y0023084D01*
X0235705Y0023028D01*
X0235703Y0022972D01*
X0235697Y0022916D01*
X0235688Y0022861D01*
X0235675Y0022806D01*
X0235658Y0022753D01*
X0235637Y0022701D01*
X0235613Y0022650D01*
X0235585Y0022601D01*
X0235555Y0022554D01*
X0235521Y0022509D01*
X0235484Y0022467D01*
X0235444Y0022427D01*
X0235402Y0022390D01*
X0235357Y0022356D01*
X0235310Y0022326D01*
X0235261Y0022298D01*
X0235210Y0022274D01*
X0235158Y0022253D01*
X0235105Y0022236D01*
X0235050Y0022223D01*
X0234995Y0022214D01*
X0234939Y0022208D01*
X0234883Y0022206D01*
X0234061Y0022206D01*
X0234678Y0022206D02*
X0234741Y0022204D01*
X0234804Y0022198D01*
X0234867Y0022188D01*
X0234929Y0022175D01*
X0234990Y0022158D01*
X0235049Y0022137D01*
X0235108Y0022112D01*
X0235164Y0022084D01*
X0235219Y0022052D01*
X0235272Y0022017D01*
X0235322Y0021979D01*
X0235371Y0021938D01*
X0235416Y0021894D01*
X0235459Y0021847D01*
X0235498Y0021798D01*
X0235535Y0021746D01*
X0235568Y0021692D01*
X0235598Y0021636D01*
X0235625Y0021579D01*
X0235648Y0021520D01*
X0235667Y0021459D01*
X0235682Y0021398D01*
X0235694Y0021336D01*
X0235702Y0021273D01*
X0235706Y0021210D01*
X0235706Y0021146D01*
X0235702Y0021083D01*
X0235694Y0021020D01*
X0235682Y0020958D01*
X0235667Y0020897D01*
X0235648Y0020836D01*
X0235625Y0020777D01*
X0235598Y0020720D01*
X0235568Y0020664D01*
X0235535Y0020610D01*
X0235498Y0020558D01*
X0235459Y0020509D01*
X0235416Y0020462D01*
X0235371Y0020418D01*
X0235322Y0020377D01*
X0235272Y0020339D01*
X0235219Y0020304D01*
X0235164Y0020272D01*
X0235108Y0020244D01*
X0235049Y0020219D01*
X0234990Y0020198D01*
X0234929Y0020181D01*
X0234867Y0020168D01*
X0234804Y0020158D01*
X0234741Y0020152D01*
X0234678Y0020150D01*
X0233650Y0020150D01*
X0243650Y0020972D02*
X0245706Y0020972D01*
X0245089Y0021794D02*
X0245089Y0020150D01*
X0243650Y0020972D02*
X0244472Y0023850D01*
X0253650Y0023850D02*
X0255706Y0023850D01*
X0254883Y0022206D02*
X0253650Y0022206D01*
X0253650Y0023850D01*
X0254883Y0022205D02*
X0254939Y0022203D01*
X0254995Y0022197D01*
X0255050Y0022188D01*
X0255105Y0022175D01*
X0255158Y0022158D01*
X0255210Y0022137D01*
X0255261Y0022113D01*
X0255310Y0022085D01*
X0255357Y0022055D01*
X0255402Y0022021D01*
X0255444Y0021984D01*
X0255484Y0021944D01*
X0255521Y0021902D01*
X0255555Y0021857D01*
X0255585Y0021810D01*
X0255613Y0021761D01*
X0255637Y0021710D01*
X0255658Y0021658D01*
X0255675Y0021605D01*
X0255688Y0021550D01*
X0255697Y0021495D01*
X0255703Y0021439D01*
X0255705Y0021383D01*
X0255706Y0021383D02*
X0255706Y0020972D01*
X0255705Y0020972D02*
X0255703Y0020916D01*
X0255697Y0020860D01*
X0255688Y0020805D01*
X0255675Y0020750D01*
X0255658Y0020697D01*
X0255637Y0020645D01*
X0255613Y0020594D01*
X0255585Y0020545D01*
X0255555Y0020498D01*
X0255521Y0020453D01*
X0255484Y0020411D01*
X0255444Y0020371D01*
X0255402Y0020334D01*
X0255357Y0020300D01*
X0255310Y0020270D01*
X0255261Y0020242D01*
X0255210Y0020218D01*
X0255158Y0020197D01*
X0255105Y0020180D01*
X0255050Y0020167D01*
X0254995Y0020158D01*
X0254939Y0020152D01*
X0254883Y0020150D01*
X0253650Y0020150D01*
X0242068Y0009437D02*
X0241041Y0009437D01*
X0241041Y0006970D01*
X0239514Y0006970D02*
X0238692Y0006970D01*
X0239103Y0006970D02*
X0239103Y0010670D01*
X0238692Y0010670D02*
X0239514Y0010670D01*
X0242068Y0009437D02*
X0242116Y0009435D01*
X0242165Y0009429D01*
X0242212Y0009420D01*
X0242259Y0009407D01*
X0242304Y0009390D01*
X0242348Y0009370D01*
X0242390Y0009346D01*
X0242431Y0009319D01*
X0242469Y0009289D01*
X0242504Y0009256D01*
X0242537Y0009221D01*
X0242567Y0009183D01*
X0242594Y0009142D01*
X0242618Y0009100D01*
X0242638Y0009056D01*
X0242655Y0009011D01*
X0242668Y0008964D01*
X0242677Y0008917D01*
X0242683Y0008868D01*
X0242685Y0008820D01*
X0242685Y0006970D01*
X0235227Y0006970D02*
X0234199Y0006970D01*
X0234151Y0006972D01*
X0234102Y0006978D01*
X0234055Y0006987D01*
X0234008Y0007000D01*
X0233963Y0007017D01*
X0233919Y0007037D01*
X0233877Y0007061D01*
X0233836Y0007088D01*
X0233798Y0007118D01*
X0233763Y0007151D01*
X0233730Y0007186D01*
X0233700Y0007224D01*
X0233673Y0007265D01*
X0233649Y0007307D01*
X0233629Y0007351D01*
X0233612Y0007396D01*
X0233599Y0007443D01*
X0233590Y0007490D01*
X0233584Y0007539D01*
X0233582Y0007587D01*
X0233583Y0007587D02*
X0233583Y0008820D01*
X0233582Y0008820D02*
X0233584Y0008868D01*
X0233590Y0008917D01*
X0233599Y0008964D01*
X0233612Y0009011D01*
X0233629Y0009056D01*
X0233649Y0009100D01*
X0233673Y0009142D01*
X0233700Y0009183D01*
X0233730Y0009221D01*
X0233763Y0009256D01*
X0233798Y0009289D01*
X0233836Y0009319D01*
X0233877Y0009346D01*
X0233919Y0009370D01*
X0233963Y0009390D01*
X0234008Y0009407D01*
X0234055Y0009420D01*
X0234102Y0009429D01*
X0234151Y0009435D01*
X0234199Y0009437D01*
X0235227Y0009437D01*
X0235227Y0006353D01*
X0235228Y0006353D02*
X0235226Y0006305D01*
X0235220Y0006256D01*
X0235211Y0006209D01*
X0235198Y0006162D01*
X0235181Y0006117D01*
X0235161Y0006073D01*
X0235137Y0006031D01*
X0235110Y0005990D01*
X0235080Y0005952D01*
X0235047Y0005917D01*
X0235012Y0005884D01*
X0234974Y0005854D01*
X0234933Y0005827D01*
X0234891Y0005803D01*
X0234847Y0005783D01*
X0234802Y0005766D01*
X0234755Y0005753D01*
X0234708Y0005744D01*
X0234659Y0005738D01*
X0234611Y0005736D01*
X0234611Y0005737D02*
X0233788Y0005737D01*
X0232125Y0007792D02*
X0232125Y0008615D01*
X0232123Y0008671D01*
X0232117Y0008727D01*
X0232108Y0008782D01*
X0232095Y0008837D01*
X0232078Y0008890D01*
X0232057Y0008942D01*
X0232033Y0008993D01*
X0232005Y0009042D01*
X0231975Y0009089D01*
X0231941Y0009134D01*
X0231904Y0009176D01*
X0231864Y0009216D01*
X0231822Y0009253D01*
X0231777Y0009287D01*
X0231730Y0009317D01*
X0231681Y0009345D01*
X0231630Y0009369D01*
X0231578Y0009390D01*
X0231525Y0009407D01*
X0231470Y0009420D01*
X0231415Y0009429D01*
X0231359Y0009435D01*
X0231303Y0009437D01*
X0231247Y0009435D01*
X0231191Y0009429D01*
X0231136Y0009420D01*
X0231081Y0009407D01*
X0231028Y0009390D01*
X0230976Y0009369D01*
X0230925Y0009345D01*
X0230876Y0009317D01*
X0230829Y0009287D01*
X0230784Y0009253D01*
X0230742Y0009216D01*
X0230702Y0009176D01*
X0230665Y0009134D01*
X0230631Y0009089D01*
X0230601Y0009042D01*
X0230573Y0008993D01*
X0230549Y0008942D01*
X0230528Y0008890D01*
X0230511Y0008837D01*
X0230498Y0008782D01*
X0230489Y0008727D01*
X0230483Y0008671D01*
X0230481Y0008615D01*
X0230481Y0007792D01*
X0230483Y0007736D01*
X0230489Y0007680D01*
X0230498Y0007625D01*
X0230511Y0007570D01*
X0230528Y0007517D01*
X0230549Y0007465D01*
X0230573Y0007414D01*
X0230601Y0007365D01*
X0230631Y0007318D01*
X0230665Y0007273D01*
X0230702Y0007231D01*
X0230742Y0007191D01*
X0230784Y0007154D01*
X0230829Y0007120D01*
X0230876Y0007090D01*
X0230925Y0007062D01*
X0230976Y0007038D01*
X0231028Y0007017D01*
X0231081Y0007000D01*
X0231136Y0006987D01*
X0231191Y0006978D01*
X0231247Y0006972D01*
X0231303Y0006970D01*
X0231359Y0006972D01*
X0231415Y0006978D01*
X0231470Y0006987D01*
X0231525Y0007000D01*
X0231578Y0007017D01*
X0231630Y0007038D01*
X0231681Y0007062D01*
X0231730Y0007090D01*
X0231777Y0007120D01*
X0231822Y0007154D01*
X0231864Y0007191D01*
X0231904Y0007231D01*
X0231941Y0007273D01*
X0231975Y0007318D01*
X0232005Y0007365D01*
X0232033Y0007414D01*
X0232057Y0007465D01*
X0232078Y0007517D01*
X0232095Y0007570D01*
X0232108Y0007625D01*
X0232117Y0007680D01*
X0232123Y0007736D01*
X0232125Y0007792D01*
X0229227Y0006970D02*
X0229179Y0006972D01*
X0229130Y0006978D01*
X0229083Y0006987D01*
X0229036Y0007000D01*
X0228991Y0007017D01*
X0228947Y0007037D01*
X0228905Y0007061D01*
X0228864Y0007088D01*
X0228826Y0007118D01*
X0228791Y0007151D01*
X0228758Y0007186D01*
X0228728Y0007224D01*
X0228701Y0007265D01*
X0228677Y0007307D01*
X0228657Y0007351D01*
X0228640Y0007396D01*
X0228627Y0007443D01*
X0228618Y0007490D01*
X0228612Y0007539D01*
X0228610Y0007587D01*
X0228610Y0010670D01*
X0226947Y0008820D02*
X0226947Y0006970D01*
X0226022Y0006970D01*
X0226022Y0006971D02*
X0225970Y0006973D01*
X0225917Y0006979D01*
X0225866Y0006988D01*
X0225815Y0007001D01*
X0225765Y0007018D01*
X0225717Y0007039D01*
X0225670Y0007063D01*
X0225625Y0007090D01*
X0225583Y0007121D01*
X0225542Y0007155D01*
X0225504Y0007191D01*
X0225469Y0007230D01*
X0225437Y0007272D01*
X0225408Y0007315D01*
X0225383Y0007361D01*
X0225360Y0007409D01*
X0225342Y0007458D01*
X0225326Y0007508D01*
X0225315Y0007559D01*
X0225307Y0007611D01*
X0225303Y0007664D01*
X0225303Y0007716D01*
X0225307Y0007769D01*
X0225315Y0007821D01*
X0225326Y0007872D01*
X0225342Y0007922D01*
X0225360Y0007971D01*
X0225383Y0008019D01*
X0225408Y0008065D01*
X0225437Y0008108D01*
X0225469Y0008150D01*
X0225504Y0008189D01*
X0225542Y0008225D01*
X0225583Y0008259D01*
X0225625Y0008290D01*
X0225670Y0008317D01*
X0225717Y0008341D01*
X0225765Y0008362D01*
X0225815Y0008379D01*
X0225866Y0008392D01*
X0225917Y0008401D01*
X0225970Y0008407D01*
X0226022Y0008409D01*
X0226947Y0008409D01*
X0226948Y0008820D02*
X0226946Y0008868D01*
X0226940Y0008917D01*
X0226931Y0008964D01*
X0226918Y0009011D01*
X0226901Y0009056D01*
X0226881Y0009100D01*
X0226857Y0009142D01*
X0226830Y0009183D01*
X0226800Y0009221D01*
X0226767Y0009256D01*
X0226732Y0009289D01*
X0226694Y0009319D01*
X0226653Y0009346D01*
X0226611Y0009370D01*
X0226567Y0009390D01*
X0226522Y0009407D01*
X0226475Y0009420D01*
X0226428Y0009429D01*
X0226379Y0009435D01*
X0226331Y0009437D01*
X0225508Y0009437D01*
X0223725Y0008820D02*
X0223725Y0006970D01*
X0222081Y0006970D02*
X0222081Y0009437D01*
X0223109Y0009437D01*
X0223157Y0009435D01*
X0223206Y0009429D01*
X0223253Y0009420D01*
X0223300Y0009407D01*
X0223345Y0009390D01*
X0223389Y0009370D01*
X0223431Y0009346D01*
X0223472Y0009319D01*
X0223510Y0009289D01*
X0223545Y0009256D01*
X0223578Y0009221D01*
X0223608Y0009183D01*
X0223635Y0009142D01*
X0223659Y0009100D01*
X0223679Y0009056D01*
X0223696Y0009011D01*
X0223709Y0008964D01*
X0223718Y0008917D01*
X0223724Y0008868D01*
X0223726Y0008820D01*
X0220348Y0007895D02*
X0218498Y0007895D01*
X0218190Y0006970D02*
X0219423Y0010670D01*
X0220656Y0006970D01*
X0126850Y0020110D02*
X0126850Y0020932D01*
X0126850Y0020521D02*
X0123150Y0020521D01*
X0123150Y0020110D02*
X0123150Y0020932D01*
X0124178Y0022374D02*
X0125822Y0022374D01*
X0125822Y0022373D02*
X0125885Y0022375D01*
X0125948Y0022381D01*
X0126011Y0022391D01*
X0126073Y0022404D01*
X0126134Y0022421D01*
X0126193Y0022442D01*
X0126252Y0022467D01*
X0126308Y0022495D01*
X0126363Y0022527D01*
X0126416Y0022562D01*
X0126466Y0022600D01*
X0126515Y0022641D01*
X0126560Y0022685D01*
X0126603Y0022732D01*
X0126642Y0022781D01*
X0126679Y0022833D01*
X0126712Y0022887D01*
X0126742Y0022943D01*
X0126769Y0023000D01*
X0126792Y0023059D01*
X0126811Y0023120D01*
X0126826Y0023181D01*
X0126838Y0023243D01*
X0126846Y0023306D01*
X0126850Y0023369D01*
X0126850Y0023433D01*
X0126846Y0023496D01*
X0126838Y0023559D01*
X0126826Y0023621D01*
X0126811Y0023682D01*
X0126792Y0023743D01*
X0126769Y0023802D01*
X0126742Y0023859D01*
X0126712Y0023915D01*
X0126679Y0023969D01*
X0126642Y0024021D01*
X0126603Y0024070D01*
X0126560Y0024117D01*
X0126515Y0024161D01*
X0126466Y0024202D01*
X0126416Y0024240D01*
X0126363Y0024275D01*
X0126308Y0024307D01*
X0126252Y0024335D01*
X0126193Y0024360D01*
X0126134Y0024381D01*
X0126073Y0024398D01*
X0126011Y0024411D01*
X0125948Y0024421D01*
X0125885Y0024427D01*
X0125822Y0024429D01*
X0124178Y0024429D01*
X0124115Y0024427D01*
X0124052Y0024421D01*
X0123989Y0024411D01*
X0123927Y0024398D01*
X0123866Y0024381D01*
X0123807Y0024360D01*
X0123748Y0024335D01*
X0123692Y0024307D01*
X0123637Y0024275D01*
X0123584Y0024240D01*
X0123534Y0024202D01*
X0123485Y0024161D01*
X0123440Y0024117D01*
X0123397Y0024070D01*
X0123358Y0024021D01*
X0123321Y0023969D01*
X0123288Y0023915D01*
X0123258Y0023859D01*
X0123231Y0023802D01*
X0123208Y0023743D01*
X0123189Y0023682D01*
X0123174Y0023621D01*
X0123162Y0023559D01*
X0123154Y0023496D01*
X0123150Y0023433D01*
X0123150Y0023369D01*
X0123154Y0023306D01*
X0123162Y0023243D01*
X0123174Y0023181D01*
X0123189Y0023120D01*
X0123208Y0023059D01*
X0123231Y0023000D01*
X0123258Y0022943D01*
X0123288Y0022887D01*
X0123321Y0022833D01*
X0123358Y0022781D01*
X0123397Y0022732D01*
X0123440Y0022685D01*
X0123485Y0022641D01*
X0123534Y0022600D01*
X0123584Y0022562D01*
X0123637Y0022527D01*
X0123692Y0022495D01*
X0123748Y0022467D01*
X0123807Y0022442D01*
X0123866Y0022421D01*
X0123927Y0022404D01*
X0123989Y0022391D01*
X0124052Y0022381D01*
X0124115Y0022375D01*
X0124178Y0022373D01*
X0124383Y0026079D02*
X0124383Y0027313D01*
X0124794Y0027313D01*
X0124383Y0026079D02*
X0126850Y0026079D01*
M02*
