%
M48
M72
T01C0.0138
T02C0.0315
T03C0.0394
T04C0.0400
T05C0.0827
%
T01
X6000Y4000
X10500Y8000
X6000Y10000
X5000Y10000
X5000Y8500
X5000Y11500
X6500Y12000
X8000Y14500
X2900Y13200
X14000Y16000
T02
X1500Y8500
X1500Y9500
X1500Y10500
X1500Y11500
X1500Y12500
X1500Y13500
X7500Y13500
X7500Y12500
X7500Y11500
X7500Y10500
X7500Y9500
X7500Y8500
T03
X11500Y1500
X12500Y1500
X13500Y1500
X14500Y1500
X15500Y1500
X16500Y1500
X17500Y1500
X18500Y1500
X20500Y1500
X21500Y1500
X22500Y1500
X23500Y1500
X24500Y1500
X25500Y1500
X22484Y3244
X21500Y3244
X20516Y3244
X20516Y8744
X21500Y8744
X22484Y8744
X22484Y14244
X21500Y14244
X20516Y14244
X20500Y20500
X19500Y20500
X18500Y20500
X16900Y20500
X15900Y20500
X14900Y20500
X13900Y20500
X12900Y20500
X11900Y20500
X10900Y20500
X9900Y20500
X8900Y20500
X7900Y20500
X21500Y20500
X22500Y20500
X23500Y20500
X24500Y20500
X25500Y20500
T04
X16000Y3000
X15000Y3000
X15000Y4000
X16000Y4000
X16000Y5000
X15000Y5000
X12500Y5000
X12500Y4000
X11500Y4000
X10500Y4000
X10500Y5000
X11500Y5000
X11500Y6000
X10500Y6000
X12500Y6000
X13500Y11000
X14500Y11000
X15500Y11000
X16500Y11000
X14980Y17000
X12020Y17000
T05
X19669Y6000
X23331Y6000
X23331Y11500
X19669Y11500
X19669Y17000
X23331Y17000
M30
