M48
;GenerationSoftware,Autodesk,EAGLE,9.3.0*%
;CreationDate,2019-02-28T03:51:56Z*%
FMAT,2
ICI,OFF
METRIC,TZ,000.000
T5C0.381
T4C0.800
T3C1.000
T2C1.016
T1C2.100
%
G90
M71
T1
X51230Y11430
X60530Y11430
X55880Y21385
X55880Y30685
X60530Y40640
X51230Y40640
T2
X45720Y19685
X45720Y17145
X43180Y19685
X43180Y17145
X40640Y19685
X40640Y17145
X13970Y50165
X11430Y50165
X6350Y50165
X8890Y50165
X10160Y32385
X10160Y27305
X10160Y29845
X10160Y24765
X10160Y19685
X10160Y22225
T3
X40640Y12065
X43180Y12065
X45720Y12065
X48260Y12065
X30480Y1905
X21336Y50165
X18796Y50165
X53380Y33640
X58380Y33640
X48880Y28535
X48880Y26035
X48880Y23535
X58380Y18430
X55880Y18430
X53380Y18430
X55880Y33640
X53340Y50165
X50800Y1905
X55880Y50165
X58420Y50165
X60960Y50165
X63500Y50165
X50800Y50165
X48260Y50165
X45720Y50165
X41656Y50165
X39116Y50165
X36576Y50165
X34036Y50165
X31496Y50165
X28956Y50165
X26416Y50165
X23876Y50165
X53340Y1905
X55880Y1905
X58420Y1905
X60960Y1905
X63500Y1905
X45720Y1905
X43180Y1905
X40640Y1905
X38100Y1905
X35560Y1905
X33020Y1905
T4
X17780Y24765
X2540Y24765
X2540Y22225
X2540Y19685
X17780Y32385
X17780Y19685
X17780Y22225
X17780Y29845
X17780Y27305
X2540Y32385
X2540Y29845
X2540Y27305
T5
X57785Y43180
X31115Y10795
X45720Y25400
X43180Y25400
X40640Y25400
X7620Y18415
X19050Y22225
X14605Y24765
X59690Y29845
X59690Y14605
X60960Y6350
X44450Y38100
X60960Y32385
X26670Y9525
X26670Y31115
X45720Y26670
X30290Y18860
X17780Y4445
X46355Y43180
X36830Y17780
X24765Y1905
X4445Y16510
X19050Y12700
X19685Y8255
X25400Y36195
X17145Y13970
M30