G04 EAGLE Gerber RS-274X export*
G75*
%MOMM*%
%FSLAX34Y34*%
%LPD*%
%INMechanical*%
%IPPOS*%
%AMOC8*
5,1,8,0,0,1.08239X$1,22.5*%
G01*
%ADD10C,0.000000*%
%ADD11C,0.254000*%


D10*
X829Y507325D02*
X21Y12713D01*
X24Y12406D01*
X35Y12099D01*
X53Y11792D01*
X79Y11486D01*
X112Y11181D01*
X152Y10876D01*
X200Y10573D01*
X255Y10271D01*
X317Y9970D01*
X387Y9671D01*
X463Y9374D01*
X547Y9078D01*
X638Y8785D01*
X737Y8494D01*
X842Y8205D01*
X954Y7919D01*
X1073Y7636D01*
X1199Y7356D01*
X1331Y7079D01*
X1470Y6805D01*
X1616Y6535D01*
X1768Y6268D01*
X1927Y6005D01*
X2092Y5746D01*
X2263Y5491D01*
X2441Y5241D01*
X2624Y4994D01*
X2813Y4752D01*
X3008Y4515D01*
X3209Y4283D01*
X3415Y4055D01*
X3627Y3833D01*
X3844Y3615D01*
X4066Y3403D01*
X4294Y3197D01*
X4526Y2996D01*
X4763Y2800D01*
X5005Y2611D01*
X5251Y2427D01*
X5501Y2250D01*
X5756Y2078D01*
X6015Y1913D01*
X6278Y1754D01*
X6544Y1602D01*
X6815Y1455D01*
X7088Y1316D01*
X7365Y1183D01*
X7645Y1057D01*
X7928Y938D01*
X8214Y825D01*
X8502Y720D01*
X8793Y622D01*
X9087Y530D01*
X9382Y446D01*
X9679Y369D01*
X9978Y299D01*
X10279Y236D01*
X10581Y181D01*
X10884Y133D01*
X11189Y92D01*
X11494Y59D01*
X11800Y33D01*
X12107Y15D01*
X12414Y4D01*
X12721Y0D01*
X687300Y0D01*
X687607Y4D01*
X687914Y15D01*
X688220Y33D01*
X688526Y59D01*
X688831Y93D01*
X689135Y133D01*
X689438Y181D01*
X689740Y237D01*
X690040Y299D01*
X690339Y369D01*
X690636Y446D01*
X690932Y530D01*
X691225Y622D01*
X691515Y720D01*
X691803Y825D01*
X692089Y938D01*
X692372Y1057D01*
X692652Y1183D01*
X692929Y1315D01*
X693202Y1455D01*
X693472Y1601D01*
X693738Y1753D01*
X694001Y1912D01*
X694260Y2077D01*
X694514Y2248D01*
X694765Y2425D01*
X695011Y2609D01*
X695253Y2798D01*
X695489Y2993D01*
X695722Y3194D01*
X695949Y3400D01*
X696171Y3612D01*
X696388Y3829D01*
X696600Y4051D01*
X696806Y4278D01*
X697007Y4511D01*
X697202Y4747D01*
X697391Y4989D01*
X697575Y5235D01*
X697752Y5486D01*
X697923Y5740D01*
X698088Y5999D01*
X698247Y6262D01*
X698399Y6528D01*
X698545Y6798D01*
X698685Y7071D01*
X698817Y7348D01*
X698943Y7628D01*
X699062Y7911D01*
X699175Y8197D01*
X699280Y8485D01*
X699378Y8775D01*
X699470Y9068D01*
X699554Y9364D01*
X699631Y9661D01*
X699701Y9960D01*
X699763Y10260D01*
X699819Y10562D01*
X699867Y10865D01*
X699907Y11169D01*
X699941Y11474D01*
X699967Y11780D01*
X699985Y12086D01*
X699996Y12393D01*
X700000Y12700D01*
X700000Y507300D01*
X699996Y507607D01*
X699985Y507914D01*
X699967Y508220D01*
X699941Y508526D01*
X699907Y508831D01*
X699867Y509135D01*
X699819Y509438D01*
X699763Y509740D01*
X699701Y510040D01*
X699631Y510339D01*
X699554Y510636D01*
X699470Y510932D01*
X699378Y511225D01*
X699280Y511515D01*
X699175Y511803D01*
X699062Y512089D01*
X698943Y512372D01*
X698817Y512652D01*
X698685Y512929D01*
X698545Y513202D01*
X698399Y513472D01*
X698247Y513738D01*
X698088Y514001D01*
X697923Y514260D01*
X697752Y514514D01*
X697575Y514765D01*
X697391Y515011D01*
X697202Y515253D01*
X697007Y515489D01*
X696806Y515722D01*
X696600Y515949D01*
X696388Y516171D01*
X696171Y516388D01*
X695949Y516600D01*
X695722Y516806D01*
X695489Y517007D01*
X695253Y517202D01*
X695011Y517391D01*
X694765Y517575D01*
X694514Y517752D01*
X694260Y517923D01*
X694001Y518088D01*
X693738Y518247D01*
X693472Y518399D01*
X693202Y518545D01*
X692929Y518685D01*
X692652Y518817D01*
X692372Y518943D01*
X692089Y519062D01*
X691803Y519175D01*
X691515Y519280D01*
X691225Y519378D01*
X690932Y519470D01*
X690636Y519554D01*
X690339Y519631D01*
X690040Y519701D01*
X689740Y519763D01*
X689438Y519819D01*
X689135Y519867D01*
X688831Y519907D01*
X688526Y519941D01*
X688220Y519967D01*
X687914Y519985D01*
X687607Y519996D01*
X687300Y520000D01*
X13529Y520000D01*
X13218Y519996D01*
X12907Y519985D01*
X12596Y519966D01*
X12286Y519939D01*
X11976Y519905D01*
X11668Y519863D01*
X11360Y519813D01*
X11054Y519757D01*
X10750Y519692D01*
X10447Y519620D01*
X10146Y519541D01*
X9847Y519455D01*
X9550Y519361D01*
X9256Y519259D01*
X8964Y519151D01*
X8675Y519036D01*
X8389Y518913D01*
X8105Y518784D01*
X7826Y518647D01*
X7549Y518504D01*
X7276Y518354D01*
X7007Y518198D01*
X6742Y518034D01*
X6481Y517865D01*
X6224Y517689D01*
X5972Y517507D01*
X5724Y517318D01*
X5481Y517124D01*
X5242Y516924D01*
X5009Y516718D01*
X4781Y516506D01*
X4558Y516289D01*
X4340Y516066D01*
X4128Y515839D01*
X3921Y515606D01*
X3721Y515368D01*
X3526Y515125D01*
X3337Y514877D01*
X3154Y514625D01*
X2978Y514369D01*
X2808Y514108D01*
X2644Y513843D01*
X2487Y513574D01*
X2337Y513302D01*
X2193Y513026D01*
X2056Y512746D01*
X1926Y512463D01*
X1803Y512177D01*
X1687Y511889D01*
X1578Y511597D01*
X1476Y511303D01*
X1382Y511006D01*
X1295Y510707D01*
X1215Y510406D01*
X1142Y510104D01*
X1077Y509799D01*
X1020Y509493D01*
X970Y509186D01*
X927Y508877D01*
X892Y508568D01*
X865Y508258D01*
X846Y507947D01*
X833Y507636D01*
X829Y507325D01*
D11*
X21Y12713D02*
X68Y11607D01*
X211Y10508D01*
X449Y9427D01*
X781Y8370D01*
X1203Y7346D01*
X1713Y6363D01*
X2307Y5428D01*
X2980Y4548D01*
X3727Y3731D01*
X4543Y2981D01*
X5421Y2306D01*
X6354Y1710D01*
X7336Y1197D01*
X8359Y772D01*
X9415Y437D01*
X10496Y196D01*
X11594Y50D01*
X12700Y0D01*
X687300Y0D01*
X688407Y48D01*
X689505Y193D01*
X690587Y433D01*
X691644Y766D01*
X692667Y1190D01*
X693650Y1701D01*
X694584Y2297D01*
X695463Y2971D01*
X696280Y3720D01*
X697029Y4537D01*
X697703Y5416D01*
X698299Y6350D01*
X698810Y7333D01*
X699234Y8356D01*
X699567Y9413D01*
X699807Y10495D01*
X699952Y11593D01*
X700000Y12700D01*
X700000Y507300D01*
X699952Y508407D01*
X699807Y509505D01*
X699567Y510587D01*
X699234Y511644D01*
X698810Y512667D01*
X698299Y513650D01*
X697703Y514584D01*
X697029Y515463D01*
X696280Y516280D01*
X695463Y517029D01*
X694584Y517703D01*
X693650Y518299D01*
X692667Y518810D01*
X691644Y519234D01*
X690587Y519567D01*
X689505Y519807D01*
X688407Y519952D01*
X687300Y520000D01*
X13529Y520000D01*
X12422Y519952D01*
X11324Y519807D01*
X10242Y519567D01*
X9186Y519234D01*
X8162Y518810D01*
X7179Y518299D01*
X6245Y517703D01*
X5366Y517029D01*
X4549Y516280D01*
X3801Y515463D01*
X3126Y514584D01*
X2531Y513650D01*
X2019Y512667D01*
X1595Y511644D01*
X1262Y510587D01*
X1022Y509505D01*
X878Y508407D01*
X829Y507325D01*
X21Y12713D01*
M02*
