G04 EAGLE Gerber RS-274X export*
G75*
%MOMM*%
%FSLAX34Y34*%
%LPD*%
%INTop Paste*%
%IPPOS*%
%AMOC8*
5,1,8,0,0,1.08239X$1,22.5*%
G01*
%ADD10R,3.200000X1.300000*%
%ADD11R,1.300000X1.500000*%
%ADD12R,1.500000X1.300000*%
%ADD13R,1.400000X1.000000*%
%ADD14R,1.000000X2.750000*%
%ADD15R,1.100000X1.500000*%
%ADD16R,1.000000X1.400000*%


D10*
X425450Y280350D03*
X425450Y367350D03*
D11*
X669900Y476250D03*
X650900Y476250D03*
X669900Y323850D03*
X650900Y323850D03*
X669900Y171450D03*
X650900Y171450D03*
D12*
X406400Y225450D03*
X406400Y244450D03*
X431800Y225450D03*
X431800Y244450D03*
X457200Y225450D03*
X457200Y244450D03*
X285750Y130200D03*
X285750Y149200D03*
X349250Y130200D03*
X349250Y149200D03*
D11*
X308000Y88900D03*
X327000Y88900D03*
X206400Y171450D03*
X225400Y171450D03*
X206400Y196850D03*
X225400Y196850D03*
X206400Y222250D03*
X225400Y222250D03*
X206400Y247650D03*
X225400Y247650D03*
X206400Y273050D03*
X225400Y273050D03*
X206400Y298450D03*
X225400Y298450D03*
X206400Y323850D03*
X225400Y323850D03*
X206400Y349250D03*
X225400Y349250D03*
D13*
X226900Y130200D03*
X226900Y149200D03*
X204900Y139700D03*
X226900Y92100D03*
X226900Y111100D03*
X204900Y101600D03*
X226900Y54000D03*
X226900Y73000D03*
X204900Y63500D03*
X226900Y15900D03*
X226900Y34900D03*
X204900Y25400D03*
D14*
X640400Y384000D03*
X680400Y384000D03*
X680400Y441500D03*
X640400Y441500D03*
X640400Y231600D03*
X680400Y231600D03*
X680400Y289100D03*
X640400Y289100D03*
X640400Y79200D03*
X680400Y79200D03*
X680400Y136700D03*
X640400Y136700D03*
D15*
X310000Y154700D03*
X310000Y124700D03*
X325000Y124700D03*
X325000Y154700D03*
D16*
X473050Y417400D03*
X454050Y417400D03*
X463550Y395400D03*
D11*
X434950Y393700D03*
X415950Y393700D03*
M02*
